<svg width="28" height="28" viewBox="0 0 28 28" fill="none" xmlns="http://www.w3.org/2000/svg">
<path d="M12.7266 16.5078C12.7266 15.7786 12.8151 15.1979 12.9922 14.7656C13.1693 14.3333 13.4922 13.9089 13.9609 13.4922C14.4349 13.0703 14.75 12.7292 14.9062 12.4688C15.0625 12.2031 15.1406 11.9245 15.1406 11.6328C15.1406 10.7526 14.7344 10.3125 13.9219 10.3125C13.5365 10.3125 13.2266 10.4323 12.9922 10.6719C12.763 10.9062 12.6432 11.2318 12.6328 11.6484H10.3672C10.3776 10.6536 10.6979 9.875 11.3281 9.3125C11.9635 8.75 12.8281 8.46875 13.9219 8.46875C15.026 8.46875 15.8828 8.73698 16.4922 9.27344C17.1016 9.80469 17.4062 10.5573 17.4062 11.5312C17.4062 11.974 17.3073 12.3932 17.1094 12.7891C16.9115 13.1797 16.5651 13.6146 16.0703 14.0938L15.4375 14.6953C15.0417 15.0755 14.8151 15.5208 14.7578 16.0312L14.7266 16.5078H12.7266ZM12.5 18.9062C12.5 18.5573 12.6172 18.2708 12.8516 18.0469C13.0911 17.8177 13.3958 17.7031 13.7656 17.7031C14.1354 17.7031 14.4375 17.8177 14.6719 18.0469C14.9115 18.2708 15.0312 18.5573 15.0312 18.9062C15.0312 19.25 14.9141 19.5339 14.6797 19.7578C14.4505 19.9818 14.1458 20.0938 13.7656 20.0938C13.3854 20.0938 13.0781 19.9818 12.8438 19.7578C12.6146 19.5339 12.5 19.25 12.5 18.9062Z" fill="#A4A4A4"/>
<circle cx="14" cy="14" r="13.5" stroke="#A4A4A4"/>
</svg>
