<svg width="28" height="28" viewBox="0 0 28 28" fill="none" xmlns="http://www.w3.org/2000/svg">
<circle cx="14" cy="14" r="14" fill="#602A2A"/>
<path d="M19.2483 17.351C18.0848 18.9916 16.168 20.0714 14 20.0714C11.832 20.0714 9.91518 18.9916 8.75167 17.351C8.96931 15.7857 9.60547 14.3962 11.0285 14.2037C11.7651 15.0073 12.8281 15.5179 14 15.5179C15.1719 15.5179 16.2349 15.0073 16.9715 14.2037C18.3945 14.3962 19.0307 15.7857 19.2483 17.351ZM17.2143 11.5C17.2143 13.2746 15.7746 14.7143 14 14.7143C12.2254 14.7143 10.7857 13.2746 10.7857 11.5C10.7857 9.72545 12.2254 8.28571 14 8.28571C15.7746 8.28571 17.2143 9.72545 17.2143 11.5ZM21.5 13.6429C21.5 9.49944 18.1434 6.14286 14 6.14286C9.85658 6.14286 6.5 9.49944 6.5 13.6429C6.5 17.7779 9.85658 21.1429 14 21.1429C18.1518 21.1429 21.5 17.7695 21.5 13.6429Z" fill="white"/>
</svg>
