<svg width="28" height="28" viewBox="0 0 28 28" fill="none" xmlns="http://www.w3.org/2000/svg">
<circle cx="14" cy="14" r="14" fill="#602A2A"/>
<path d="M14.1339 20.3393C14.1339 20.4146 14.0753 20.4732 14 20.4732C13.1881 20.4732 12.5268 19.8119 12.5268 19C12.5268 18.9247 12.5854 18.8661 12.6607 18.8661C12.736 18.8661 12.7946 18.9247 12.7946 19C12.7946 19.6613 13.3387 20.2054 14 20.2054C14.0753 20.2054 14.1339 20.264 14.1339 20.3393ZM20.9643 17.9286C19.7254 16.8823 18.2857 15.0073 18.2857 10.9643C18.2857 9.35714 16.9548 7.59933 14.7366 7.27288C14.7785 7.17243 14.8036 7.06362 14.8036 6.94643C14.8036 6.50279 14.4436 6.14286 14 6.14286C13.5564 6.14286 13.1964 6.50279 13.1964 6.94643C13.1964 7.06362 13.2215 7.17243 13.2634 7.27288C11.0452 7.59933 9.71429 9.35714 9.71429 10.9643C9.71429 15.0073 8.27455 16.8823 7.03571 17.9286C7.03571 18.5145 7.52121 19 8.10714 19H11.8571C11.8571 20.1802 12.8198 21.1429 14 21.1429C15.1802 21.1429 16.1429 20.1802 16.1429 19H19.8929C20.4788 19 20.9643 18.5145 20.9643 17.9286Z" fill="white"/>
</svg>
