<svg width="28" height="28" viewBox="0 0 28 28" fill="none" xmlns="http://www.w3.org/2000/svg">
<circle cx="14" cy="14" r="14" fill="#602A2A"/>
<path d="M21.7118 14.5714C21.7118 12.1306 20.5868 9.88058 18.6281 8.41406C18.0656 7.98214 17.252 8.09263 16.8301 8.66518C16.3982 9.22768 16.5187 10.0413 17.0812 10.4632C18.387 11.4475 19.1403 12.9442 19.1403 14.5714C19.1403 17.404 16.8301 19.7143 13.9975 19.7143C11.1649 19.7143 8.85463 17.404 8.85463 14.5714C8.85463 12.9442 9.60798 11.4475 10.9138 10.4632C11.4763 10.0413 11.5968 9.22768 11.1649 8.66518C10.743 8.09263 9.93945 7.98214 9.36691 8.41406C7.4082 9.88058 6.2832 12.1306 6.2832 14.5714C6.2832 18.8203 9.74861 22.2857 13.9975 22.2857C18.2464 22.2857 21.7118 18.8203 21.7118 14.5714ZM15.2832 6.85714C15.2832 6.15402 14.7006 5.57143 13.9975 5.57143C13.2944 5.57143 12.7118 6.15402 12.7118 6.85714V13.2857C12.7118 13.9888 13.2944 14.5714 13.9975 14.5714C14.7006 14.5714 15.2832 13.9888 15.2832 13.2857V6.85714Z" fill="white"/>
</svg>
