<svg width="16" height="14" viewBox="0 0 16 14" fill="none" xmlns="http://www.w3.org/2000/svg">
<path d="M8 0C6.06694 0 4.5 1.54246 4.5 3.44531C4.5 4.98367 6.7875 7.7875 7.66389 8.80523C7.84139 9.01141 8.15889 9.01141 8.33611 8.80523C9.2125 7.7875 11.5 4.98367 11.5 3.44531C11.5 1.54246 9.93306 0 8 0ZM8 4.59375C7.35556 4.59375 6.83333 4.07969 6.83333 3.44531C6.83333 2.81094 7.35556 2.29688 8 2.29688C8.64444 2.29688 9.16667 2.81094 9.16667 3.44531C9.16667 4.07969 8.64444 4.59375 8 4.59375ZM0.558889 5.90488C0.393938 5.96983 0.252536 6.08193 0.152919 6.22673C0.0533024 6.37153 3.95058e-05 6.54239 0 6.71727L0 13.562C0 13.8715 0.3175 14.0831 0.609444 13.9683L4.44444 12.25V5.87672C4.19889 5.43977 3.99806 5.0143 3.85417 4.60742L0.558889 5.90488ZM8 9.83473C7.60917 9.83473 7.23944 9.66574 6.98583 9.37098C6.43972 8.7366 5.85889 8.01418 5.33333 7.27316V12.2497L10.6667 13.9997V7.27344C10.1411 8.01418 9.56056 8.73687 9.01417 9.37125C8.76056 9.66574 8.39083 9.83473 8 9.83473ZM15.3906 4.40672L11.5556 6.125V14L15.4411 12.4701C15.6061 12.4052 15.7475 12.2931 15.8471 12.1483C15.9468 12.0035 16 11.8326 16 11.6577V4.81305C16 4.50352 15.6825 4.29187 15.3906 4.40672Z" fill="#42474A"/>
</svg>
