<svg width="94" height="76" viewBox="0 0 94 76" fill="none" xmlns="http://www.w3.org/2000/svg">
<path d="M0 33.25V73.625C0 74.9372 1.05162 76 2.35 76H14.1V28.5H4.7C2.10472 28.5 0 30.6271 0 33.25ZM52.875 26.125H49.35V20.1875C49.35 19.5314 48.8242 19 48.175 19H45.825C45.1758 19 44.65 19.5314 44.65 20.1875V29.6875C44.65 30.3436 45.1758 30.875 45.825 30.875H52.875C53.5242 30.875 54.05 30.3436 54.05 29.6875V27.3125C54.05 26.6564 53.5242 26.125 52.875 26.125ZM73.107 16.6309L49.607 0.797122C48.8348 0.277341 47.9278 0 47 0C46.0722 0 45.1652 0.277341 44.393 0.797122L20.893 16.6309C20.2493 17.0646 19.7215 17.6522 19.3564 18.3415C18.9913 19.0308 18.8002 19.8005 18.8 20.5824V76H37.6V54.625C37.6 53.3128 38.6516 52.25 39.95 52.25H54.05C55.3484 52.25 56.4 53.3128 56.4 54.625V76H75.2V20.5838C75.2 18.9956 74.4142 17.5112 73.107 16.6309ZM47 38C40.5111 38 35.25 32.683 35.25 26.125C35.25 19.567 40.5111 14.25 47 14.25C53.4889 14.25 58.75 19.567 58.75 26.125C58.75 32.683 53.4889 38 47 38ZM89.3 28.5H79.9V76H91.65C92.9484 76 94 74.9372 94 73.625V33.25C94 30.6271 91.8953 28.5 89.3 28.5Z" fill="#602A2A"/>
</svg>
