<svg width="94" height="76" viewBox="0 0 94 76" fill="none" xmlns="http://www.w3.org/2000/svg">
<mask id="path-1-inside-1" fill="white">
<path d="M90.475 28.5H70.5V3.5625C70.5 1.59422 68.9226 0 66.975 0H45.825C43.8774 0 42.3 1.59422 42.3 3.5625V14.25H32.9V2.375C32.9 1.06281 31.8484 0 30.55 0H28.2C26.9016 0 25.85 1.06281 25.85 2.375V14.25H16.45V2.375C16.45 1.06281 15.3984 0 14.1 0H11.75C10.4516 0 9.4 1.06281 9.4 2.375V14.25H3.525C1.57744 14.25 0 15.8442 0 17.8125V71.25C0 73.8729 2.10472 76 4.7 76H89.3C91.8953 76 94 73.8729 94 71.25V32.0625C94 30.0942 92.4211 28.5 90.475 28.5ZM18.8 59.9688C18.8 60.9529 18.0113 61.75 17.0375 61.75H11.1625C10.1887 61.75 9.4 60.9529 9.4 59.9688V54.0312C9.4 53.0471 10.1887 52.25 11.1625 52.25H17.0375C18.0113 52.25 18.8 53.0471 18.8 54.0312V59.9688ZM18.8 45.7188C18.8 46.7029 18.0113 47.5 17.0375 47.5H11.1625C10.1887 47.5 9.4 46.7029 9.4 45.7188V39.7812C9.4 38.7971 10.1887 38 11.1625 38H17.0375C18.0113 38 18.8 38.7971 18.8 39.7812V45.7188ZM18.8 31.4688C18.8 32.4529 18.0113 33.25 17.0375 33.25H11.1625C10.1887 33.25 9.4 32.4529 9.4 31.4688V25.5312C9.4 24.5471 10.1887 23.75 11.1625 23.75H17.0375C18.0113 23.75 18.8 24.5471 18.8 25.5312V31.4688ZM37.6 59.9688C37.6 60.9529 36.8113 61.75 35.8375 61.75H29.9625C28.9887 61.75 28.2 60.9529 28.2 59.9688V54.0312C28.2 53.0471 28.9887 52.25 29.9625 52.25H35.8375C36.8113 52.25 37.6 53.0471 37.6 54.0312V59.9688ZM37.6 45.7188C37.6 46.7029 36.8113 47.5 35.8375 47.5H29.9625C28.9887 47.5 28.2 46.7029 28.2 45.7188V39.7812C28.2 38.7971 28.9887 38 29.9625 38H35.8375C36.8113 38 37.6 38.7971 37.6 39.7812V45.7188ZM37.6 31.4688C37.6 32.4529 36.8113 33.25 35.8375 33.25H29.9625C28.9887 33.25 28.2 32.4529 28.2 31.4688V25.5312C28.2 24.5471 28.9887 23.75 29.9625 23.75H35.8375C36.8113 23.75 37.6 24.5471 37.6 25.5312V31.4688ZM61.1 45.7188C61.1 46.7029 60.3113 47.5 59.3375 47.5H53.4625C52.4887 47.5 51.7 46.7029 51.7 45.7188V39.7812C51.7 38.7971 52.4887 38 53.4625 38H59.3375C60.3113 38 61.1 38.7971 61.1 39.7812V45.7188ZM61.1 31.4688C61.1 32.4529 60.3113 33.25 59.3375 33.25H53.4625C52.4887 33.25 51.7 32.4529 51.7 31.4688V25.5312C51.7 24.5471 52.4887 23.75 53.4625 23.75H59.3375C60.3113 23.75 61.1 24.5471 61.1 25.5312V31.4688ZM61.1 17.2188C61.1 18.2029 60.3113 19 59.3375 19H53.4625C52.4887 19 51.7 18.2029 51.7 17.2188V11.2812C51.7 10.2971 52.4887 9.5 53.4625 9.5H59.3375C60.3113 9.5 61.1 10.2971 61.1 11.2812V17.2188ZM84.6 59.9688C84.6 60.9529 83.8113 61.75 82.8375 61.75H76.9625C75.9887 61.75 75.2 60.9529 75.2 59.9688V54.0312C75.2 53.0471 75.9887 52.25 76.9625 52.25H82.8375C83.8113 52.25 84.6 53.0471 84.6 54.0312V59.9688ZM84.6 45.7188C84.6 46.7029 83.8113 47.5 82.8375 47.5H76.9625C75.9887 47.5 75.2 46.7029 75.2 45.7188V39.7812C75.2 38.7971 75.9887 38 76.9625 38H82.8375C83.8113 38 84.6 38.7971 84.6 39.7812V45.7188Z"/>
</mask>
<path d="M90.475 28.5H70.5V3.5625C70.5 1.59422 68.9226 0 66.975 0H45.825C43.8774 0 42.3 1.59422 42.3 3.5625V14.25H32.9V2.375C32.9 1.06281 31.8484 0 30.55 0H28.2C26.9016 0 25.85 1.06281 25.85 2.375V14.25H16.45V2.375C16.45 1.06281 15.3984 0 14.1 0H11.75C10.4516 0 9.4 1.06281 9.4 2.375V14.25H3.525C1.57744 14.25 0 15.8442 0 17.8125V71.25C0 73.8729 2.10472 76 4.7 76H89.3C91.8953 76 94 73.8729 94 71.25V32.0625C94 30.0942 92.4211 28.5 90.475 28.5ZM18.8 59.9688C18.8 60.9529 18.0113 61.75 17.0375 61.75H11.1625C10.1887 61.75 9.4 60.9529 9.4 59.9688V54.0312C9.4 53.0471 10.1887 52.25 11.1625 52.25H17.0375C18.0113 52.25 18.8 53.0471 18.8 54.0312V59.9688ZM18.8 45.7188C18.8 46.7029 18.0113 47.5 17.0375 47.5H11.1625C10.1887 47.5 9.4 46.7029 9.4 45.7188V39.7812C9.4 38.7971 10.1887 38 11.1625 38H17.0375C18.0113 38 18.8 38.7971 18.8 39.7812V45.7188ZM18.8 31.4688C18.8 32.4529 18.0113 33.25 17.0375 33.25H11.1625C10.1887 33.25 9.4 32.4529 9.4 31.4688V25.5312C9.4 24.5471 10.1887 23.75 11.1625 23.75H17.0375C18.0113 23.75 18.8 24.5471 18.8 25.5312V31.4688ZM37.6 59.9688C37.6 60.9529 36.8113 61.75 35.8375 61.75H29.9625C28.9887 61.75 28.2 60.9529 28.2 59.9688V54.0312C28.2 53.0471 28.9887 52.25 29.9625 52.25H35.8375C36.8113 52.25 37.6 53.0471 37.6 54.0312V59.9688ZM37.6 45.7188C37.6 46.7029 36.8113 47.5 35.8375 47.5H29.9625C28.9887 47.5 28.2 46.7029 28.2 45.7188V39.7812C28.2 38.7971 28.9887 38 29.9625 38H35.8375C36.8113 38 37.6 38.7971 37.6 39.7812V45.7188ZM37.6 31.4688C37.6 32.4529 36.8113 33.25 35.8375 33.25H29.9625C28.9887 33.25 28.2 32.4529 28.2 31.4688V25.5312C28.2 24.5471 28.9887 23.75 29.9625 23.75H35.8375C36.8113 23.75 37.6 24.5471 37.6 25.5312V31.4688ZM61.1 45.7188C61.1 46.7029 60.3113 47.5 59.3375 47.5H53.4625C52.4887 47.5 51.7 46.7029 51.7 45.7188V39.7812C51.7 38.7971 52.4887 38 53.4625 38H59.3375C60.3113 38 61.1 38.7971 61.1 39.7812V45.7188ZM61.1 31.4688C61.1 32.4529 60.3113 33.25 59.3375 33.25H53.4625C52.4887 33.25 51.7 32.4529 51.7 31.4688V25.5312C51.7 24.5471 52.4887 23.75 53.4625 23.75H59.3375C60.3113 23.75 61.1 24.5471 61.1 25.5312V31.4688ZM61.1 17.2188C61.1 18.2029 60.3113 19 59.3375 19H53.4625C52.4887 19 51.7 18.2029 51.7 17.2188V11.2812C51.7 10.2971 52.4887 9.5 53.4625 9.5H59.3375C60.3113 9.5 61.1 10.2971 61.1 11.2812V17.2188ZM84.6 59.9688C84.6 60.9529 83.8113 61.75 82.8375 61.75H76.9625C75.9887 61.75 75.2 60.9529 75.2 59.9688V54.0312C75.2 53.0471 75.9887 52.25 76.9625 52.25H82.8375C83.8113 52.25 84.6 53.0471 84.6 54.0312V59.9688ZM84.6 45.7188C84.6 46.7029 83.8113 47.5 82.8375 47.5H76.9625C75.9887 47.5 75.2 46.7029 75.2 45.7188V39.7812C75.2 38.7971 75.9887 38 76.9625 38H82.8375C83.8113 38 84.6 38.7971 84.6 39.7812V45.7188Z" fill="#602A2A" stroke="#602A2A" stroke-width="2" mask="url(#path-1-inside-1)"/>
</svg>
