
<svg width="46" height="28" viewBox="0 0 46 28" fill="none" xmlns="http://www.w3.org/2000/svg">
<path d="M18.1125 8.23958C19.4542 6.63542 21.0833 5.83333 23 5.83333C24.9167 5.83333 26.5458 6.63542 27.8875 8.23958C29.2292 9.84375 29.9 11.7639 29.9 14C29.9 16.2361 29.2292 18.1562 27.8875 19.7604C26.5458 21.3646 24.9167 22.1667 23 22.1667C21.0833 22.1667 19.4542 21.3646 18.1125 19.7604C16.7708 18.1562 16.1 16.2361 16.1 14C16.1 11.7639 16.7708 9.84375 18.1125 8.23958ZM25.875 18.0833V16.9167C25.875 16.5278 25.6833 16.3333 25.3 16.3333H24.15V9.91667C24.15 9.52778 23.9583 9.33333 23.575 9.33333H22.5688C22.2333 9.33333 21.9219 9.43056 21.6344 9.625L20.5562 10.3542C20.3646 10.5 20.2687 10.6701 20.2687 10.8646C20.2687 10.9618 20.3167 11.059 20.4125 11.1562L20.9875 12.1771C21.1313 12.3229 21.299 12.3958 21.4906 12.3958C21.6344 12.3958 21.7542 12.3715 21.85 12.3229V16.3333H20.7C20.3167 16.3333 20.125 16.5278 20.125 16.9167V18.0833C20.125 18.4722 20.3167 18.6667 20.7 18.6667H25.3C25.6833 18.6667 25.875 18.4722 25.875 18.0833ZM43.7 0C44.3229 0 44.85 0.243056 45.2812 0.729167C45.7604 1.16667 46 1.70139 46 2.33333V25.6667C46 26.2986 45.7604 26.8576 45.2812 27.3438C44.85 27.7812 44.3229 28 43.7 28H2.3C1.67708 28 1.12604 27.7812 0.646875 27.3438C0.215625 26.8576 0 26.2986 0 25.6667V2.33333C0 1.70139 0.215625 1.16667 0.646875 0.729167C1.12604 0.243056 1.67708 0 2.3 0H43.7ZM42.55 19.8333V8.16667C41.2562 8.16667 40.1542 7.72917 39.2437 6.85417C38.3812 5.93056 37.95 4.8125 37.95 3.5H8.05C8.05 4.8125 7.59479 5.93056 6.68437 6.85417C5.82188 7.72917 4.74375 8.16667 3.45 8.16667V19.8333C4.74375 19.8333 5.82188 20.2951 6.68437 21.2188C7.59479 22.0938 8.05 23.1875 8.05 24.5H37.95C37.95 23.1875 38.3812 22.0938 39.2437 21.2188C40.1542 20.2951 41.2562 19.8333 42.55 19.8333Z" fill="#602A2A"/>
</svg>
