<svg width="14" height="15" viewBox="0 0 14 15" fill="none" xmlns="http://www.w3.org/2000/svg">
<path d="M0.297458 10.8199L3.49941 7.61797C4.13105 6.98633 5.07441 6.86328 5.83457 7.23789L8.74941 4.32305V2.625L12.2494 0L13.9994 1.75L11.3744 5.25H9.67636L6.76152 8.16484C7.1334 8.925 7.01308 9.86836 6.38144 10.5L3.17949 13.702C2.78027 14.1012 2.13496 14.1012 1.73847 13.702L0.297458 12.2609C-0.0990267 11.8617 -0.0990267 11.2164 0.297458 10.8199ZM4.92949 6.15234C4.15566 6.15234 3.42832 6.45312 2.88144 7L2.35097 7.53047C1.91894 7.3418 1.50879 7.0793 1.15332 6.72383C0.138865 5.70937 -0.205667 4.28203 0.116989 2.98594C0.177145 2.73984 0.48613 2.65508 0.666598 2.83555L2.70097 4.86992L4.55762 4.56094L4.8666 2.7043L2.83222 0.669922C2.65176 0.489453 2.73925 0.180469 2.98808 0.117578C4.28418 -0.202344 5.71152 0.142188 6.72324 1.15391C7.50254 1.9332 7.86894 2.96133 7.8498 3.98672L5.60488 6.23164C5.3834 6.17969 5.15371 6.15234 4.92949 6.15234ZM7.7705 8.39453L9.3209 6.84414L13.4881 11.0141C14.1717 11.6977 14.1717 12.8051 13.4881 13.4887C12.8045 14.1723 11.6971 14.1723 11.0135 13.4887L7.63379 10.109C7.8416 9.56484 7.90449 8.97148 7.7705 8.39453ZM12.2494 12.9062C12.6103 12.9062 12.9057 12.6109 12.9057 12.25C12.9057 11.8863 12.6131 11.5938 12.2494 11.5938C11.8857 11.5938 11.5932 11.8863 11.5932 12.25C11.5932 12.6109 11.8857 12.9062 12.2494 12.9062Z" fill="#42474A"/>
</svg>
