
<svg width="41" height="55" viewBox="0 0 41 55" fill="none" xmlns="http://www.w3.org/2000/svg">
<path d="M23.9167 14.6094C23.9167 15.3255 24.1658 15.9342 24.6641 16.4355C25.1623 16.9368 25.7674 17.1875 26.4792 17.1875H41V52.4219C41 53.138 40.7509 53.7467 40.2526 54.248C39.7543 54.7493 39.1493 55 38.4375 55H2.5625C1.85069 55 1.24566 54.7493 0.747396 54.248C0.249132 53.7467 0 53.138 0 52.4219V2.57812C0 1.86198 0.249132 1.25326 0.747396 0.751953C1.24566 0.250651 1.85069 0 2.5625 0H23.9167V14.6094ZM6.83333 7.73438V9.45312C6.83333 10.026 7.11806 10.3125 7.6875 10.3125H16.2292C16.7986 10.3125 17.0833 10.026 17.0833 9.45312V7.73438C17.0833 7.16146 16.7986 6.875 16.2292 6.875H7.6875C7.11806 6.875 6.83333 7.16146 6.83333 7.73438ZM6.83333 14.6094V16.3281C6.83333 16.901 7.11806 17.1875 7.6875 17.1875H16.2292C16.7986 17.1875 17.0833 16.901 17.0833 16.3281V14.6094C17.0833 14.0365 16.7986 13.75 16.2292 13.75H7.6875C7.11806 13.75 6.83333 14.0365 6.83333 14.6094ZM27.4401 41.25C26.9418 41.25 26.5859 41.0352 26.3724 40.6055C25.7318 39.3164 24.6285 38.5286 23.0625 38.2422C21.5677 37.8841 20.322 38.1348 19.3255 38.9941L17.8307 34.5898C17.4036 33.3724 16.5851 32.7637 15.375 32.7637C14.1649 32.7637 13.3464 33.3724 12.9193 34.5898L10.9974 40.3906C10.7839 40.9635 10.3924 41.25 9.82292 41.25H8.54167C8.0434 41.25 7.61632 41.429 7.26042 41.7871C6.97569 42.0736 6.83333 42.4674 6.83333 42.9688C6.83333 43.4701 6.97569 43.8997 7.26042 44.2578C7.61632 44.5443 8.0434 44.6875 8.54167 44.6875H9.82292C10.8194 44.6875 11.7092 44.401 12.4922 43.8281C13.3464 43.2552 13.9158 42.4674 14.2005 41.4648L15.375 38.1348L17.1901 43.5059C17.4036 44.222 17.9019 44.6159 18.6849 44.6875C18.7561 44.6875 18.7917 44.6875 18.7917 44.6875C19.5035 44.6875 20.0017 44.3652 20.2865 43.7207L21.1406 42.1094C21.3542 41.6797 21.7101 41.4648 22.2083 41.4648C22.7066 41.4648 23.0625 41.6797 23.276 42.1094C24.1302 43.8281 25.5182 44.6875 27.4401 44.6875H32.4583C32.9566 44.6875 33.3481 44.5443 33.6328 44.2578C33.9887 43.8997 34.1667 43.4701 34.1667 42.9688C34.1667 42.4674 33.9887 42.0736 33.6328 41.7871C33.3481 41.429 32.9566 41.25 32.4583 41.25H27.4401ZM40.2526 11.2793C40.7509 11.7806 41 12.3893 41 13.1055V13.75H27.3333V0H27.974C28.6858 0 29.2908 0.250651 29.7891 0.751953L40.2526 11.2793Z" fill="#602A2A"/>
</svg>
