<svg width="26" height="36" viewBox="0 0 26 36" fill="none" xmlns="http://www.w3.org/2000/svg">
<path d="M5.49219 31.1445H2.51367L1.84473 33H0.87793L3.59277 25.8906H4.41309L7.13281 33H6.1709L5.49219 31.1445ZM2.79688 30.373H5.21387L4.00293 27.0479L2.79688 30.373ZM8.88086 27.7168V33.6104C8.88086 34.626 8.42025 35.1338 7.49902 35.1338C7.30046 35.1338 7.11654 35.1045 6.94727 35.0459V34.3232C7.05143 34.3493 7.18815 34.3623 7.35742 34.3623C7.55924 34.3623 7.71224 34.307 7.81641 34.1963C7.92383 34.0889 7.97754 33.9001 7.97754 33.6299V27.7168H8.88086ZM7.88477 26.3154C7.88477 26.1722 7.92871 26.0501 8.0166 25.9492C8.10775 25.8451 8.23958 25.793 8.41211 25.793C8.58789 25.793 8.72135 25.8434 8.8125 25.9443C8.90365 26.0452 8.94922 26.1689 8.94922 26.3154C8.94922 26.4619 8.90365 26.584 8.8125 26.6816C8.72135 26.7793 8.58789 26.8281 8.41211 26.8281C8.23633 26.8281 8.10449 26.7793 8.0166 26.6816C7.92871 26.584 7.88477 26.4619 7.88477 26.3154ZM13.6025 32.4775C13.251 32.891 12.735 33.0977 12.0547 33.0977C11.4915 33.0977 11.0618 32.9349 10.7656 32.6094C10.4727 32.2806 10.3245 31.7956 10.3213 31.1543V27.7168H11.2246V31.1299C11.2246 31.9307 11.5501 32.3311 12.2012 32.3311C12.8913 32.3311 13.3503 32.0739 13.5781 31.5596V27.7168H14.4814V33H13.6221L13.6025 32.4775ZM15.6387 30.3145C15.6387 29.5039 15.8307 28.8529 16.2148 28.3613C16.599 27.8665 17.1019 27.6191 17.7236 27.6191C18.3421 27.6191 18.832 27.8307 19.1934 28.2539V25.5H20.0967V33H19.2666L19.2227 32.4336C18.8613 32.8763 18.3584 33.0977 17.7139 33.0977C17.1019 33.0977 16.6022 32.847 16.2148 32.3457C15.8307 31.8444 15.6387 31.1901 15.6387 30.3828V30.3145ZM16.542 30.417C16.542 31.016 16.6657 31.4847 16.9131 31.8232C17.1605 32.1618 17.5023 32.3311 17.9385 32.3311C18.5114 32.3311 18.9297 32.0739 19.1934 31.5596V29.1328C18.9232 28.6348 18.5081 28.3857 17.9482 28.3857C17.5055 28.3857 17.1605 28.5566 16.9131 28.8984C16.6657 29.2402 16.542 29.7464 16.542 30.417ZM24.7646 33C24.7126 32.8958 24.6702 32.7103 24.6377 32.4434C24.2178 32.8796 23.7165 33.0977 23.1338 33.0977C22.613 33.0977 22.1849 32.9512 21.8496 32.6582C21.5176 32.362 21.3516 31.9876 21.3516 31.5352C21.3516 30.985 21.5599 30.5586 21.9766 30.2559C22.3965 29.9499 22.9857 29.7969 23.7441 29.7969H24.623V29.3818C24.623 29.0661 24.5286 28.8154 24.3398 28.6299C24.151 28.4411 23.8727 28.3467 23.5049 28.3467C23.1826 28.3467 22.9124 28.4281 22.6943 28.5908C22.4762 28.7536 22.3672 28.9505 22.3672 29.1816H21.459C21.459 28.918 21.5518 28.6641 21.7373 28.4199C21.9261 28.1725 22.18 27.9772 22.499 27.834C22.8213 27.6908 23.1745 27.6191 23.5586 27.6191C24.1673 27.6191 24.6442 27.7721 24.9893 28.0781C25.3343 28.3809 25.5133 28.7992 25.5264 29.333V31.7646C25.5264 32.2497 25.5882 32.6354 25.7119 32.9219V33H24.7646ZM23.2656 32.3115C23.5488 32.3115 23.8174 32.2383 24.0713 32.0918C24.3252 31.9453 24.5091 31.7549 24.623 31.5205V30.4365H23.915C22.8083 30.4365 22.2549 30.7604 22.2549 31.4082C22.2549 31.6914 22.3493 31.9128 22.5381 32.0723C22.7269 32.2318 22.9694 32.3115 23.2656 32.3115Z" fill="#929394"/>
<path d="M11.7266 8.50781C11.7266 7.77865 11.8151 7.19792 11.9922 6.76562C12.1693 6.33333 12.4922 5.90885 12.9609 5.49219C13.4349 5.07031 13.75 4.72917 13.9062 4.46875C14.0625 4.20312 14.1406 3.92448 14.1406 3.63281C14.1406 2.7526 13.7344 2.3125 12.9219 2.3125C12.5365 2.3125 12.2266 2.43229 11.9922 2.67188C11.763 2.90625 11.6432 3.23177 11.6328 3.64844H9.36719C9.3776 2.65365 9.69792 1.875 10.3281 1.3125C10.9635 0.75 11.8281 0.46875 12.9219 0.46875C14.026 0.46875 14.8828 0.736979 15.4922 1.27344C16.1016 1.80469 16.4062 2.55729 16.4062 3.53125C16.4062 3.97396 16.3073 4.39323 16.1094 4.78906C15.9115 5.17969 15.5651 5.61458 15.0703 6.09375L14.4375 6.69531C14.0417 7.07552 13.8151 7.52083 13.7578 8.03125L13.7266 8.50781H11.7266ZM11.5 10.9062C11.5 10.5573 11.6172 10.2708 11.8516 10.0469C12.0911 9.81771 12.3958 9.70312 12.7656 9.70312C13.1354 9.70312 13.4375 9.81771 13.6719 10.0469C13.9115 10.2708 14.0312 10.5573 14.0312 10.9062C14.0312 11.25 13.9141 11.5339 13.6797 11.7578C13.4505 11.9818 13.1458 12.0938 12.7656 12.0938C12.3854 12.0938 12.0781 11.9818 11.8438 11.7578C11.6146 11.5339 11.5 11.25 11.5 10.9062Z" fill="#A4A4A4"/>
</svg>
