<svg width="68" height="77" viewBox="0 0 68 77" fill="none" xmlns="http://www.w3.org/2000/svg">
<path d="M66.1786 72.1875H63.1429V3.60938C63.1429 1.61595 61.5119 0 59.5 0H8.5C6.48808 0 4.85714 1.61595 4.85714 3.60938V72.1875H1.82143C0.815545 72.1875 0 72.9956 0 73.9922V77H68V73.9922C68 72.9956 67.1845 72.1875 66.1786 72.1875ZM19.4286 11.4297C19.4286 10.433 20.2441 9.625 21.25 9.625H27.3214C28.3273 9.625 29.1429 10.433 29.1429 11.4297V17.4453C29.1429 18.442 28.3273 19.25 27.3214 19.25H21.25C20.2441 19.25 19.4286 18.442 19.4286 17.4453V11.4297ZM19.4286 25.8672C19.4286 24.8705 20.2441 24.0625 21.25 24.0625H27.3214C28.3273 24.0625 29.1429 24.8705 29.1429 25.8672V31.8828C29.1429 32.8795 28.3273 33.6875 27.3214 33.6875H21.25C20.2441 33.6875 19.4286 32.8795 19.4286 31.8828V25.8672ZM27.3214 48.125H21.25C20.2441 48.125 19.4286 47.317 19.4286 46.3203V40.3047C19.4286 39.308 20.2441 38.5 21.25 38.5H27.3214C28.3273 38.5 29.1429 39.308 29.1429 40.3047V46.3203C29.1429 47.317 28.3273 48.125 27.3214 48.125ZM38.8571 72.1875H29.1429V59.5547C29.1429 58.558 29.9584 57.75 30.9643 57.75H37.0357C38.0416 57.75 38.8571 58.558 38.8571 59.5547V72.1875ZM48.5714 46.3203C48.5714 47.317 47.7559 48.125 46.75 48.125H40.6786C39.6727 48.125 38.8571 47.317 38.8571 46.3203V40.3047C38.8571 39.308 39.6727 38.5 40.6786 38.5H46.75C47.7559 38.5 48.5714 39.308 48.5714 40.3047V46.3203ZM48.5714 31.8828C48.5714 32.8795 47.7559 33.6875 46.75 33.6875H40.6786C39.6727 33.6875 38.8571 32.8795 38.8571 31.8828V25.8672C38.8571 24.8705 39.6727 24.0625 40.6786 24.0625H46.75C47.7559 24.0625 48.5714 24.8705 48.5714 25.8672V31.8828ZM48.5714 17.4453C48.5714 18.442 47.7559 19.25 46.75 19.25H40.6786C39.6727 19.25 38.8571 18.442 38.8571 17.4453V11.4297C38.8571 10.433 39.6727 9.625 40.6786 9.625H46.75C47.7559 9.625 48.5714 10.433 48.5714 11.4297V17.4453Z" fill="#602A2A"/>
</svg>
