<svg width="600" height="768" viewBox="0 0 600 768" fill="none" xmlns="http://www.w3.org/2000/svg">
<g clip-path="url(#clip0)">
<rect width="600" height="768" fill="#7F4F4F"/>
<g clip-path="url(#clip1)">
<path opacity="0.2" d="M431.358 596.417H374.127V564.236H431.358V596.417ZM376.545 594.003H428.939V566.65H376.545V594.003Z" fill="#602A2A"/>
<path opacity="0.2" d="M488.588 594.808H431.358V562.627H488.588V594.808ZM433.776 592.394H486.17V565.04H433.776V592.394Z" fill="#602A2A"/>
<path opacity="0.2" d="M545.818 594.808H488.588V562.627H545.818V594.808ZM491.006 592.394H543.4V565.04H491.006V592.394Z" fill="#602A2A"/>
<path opacity="0.2" d="M545.818 562.627H488.588V530.446H545.818V562.627ZM491.006 560.213H543.4V532.86H491.006V560.213Z" fill="#602A2A"/>
<path opacity="0.2" d="M488.588 562.627H431.358V530.446H488.588V562.627ZM433.776 560.213H486.17V532.86H433.776V560.213Z" fill="#602A2A"/>
<path opacity="0.2" d="M15.4302 596.417H-41.8V564.236H15.4302V596.417ZM-39.3819 594.003H13.0121V566.65H-39.3819V594.003Z" fill="#602A2A"/>
<path d="M489.62 495.337C489.62 495.337 479.028 459.432 491.603 433.003C496.95 421.953 498.563 409.47 496.197 397.428C495.03 391.718 493.341 386.128 491.151 380.726" stroke="#535461" stroke-width="2" stroke-miterlimit="10"/>
<path d="M498.986 364C498.986 368.401 491.006 381.16 491.006 381.16C491.006 381.16 483.026 368.401 483.026 364C483.026 361.887 483.867 359.86 485.365 358.365C486.862 356.871 488.893 356.031 491.01 356.031C493.128 356.031 495.158 356.871 496.656 358.365C498.153 359.86 498.994 361.887 498.994 364H498.986Z" fill="#602A2A"/>
<path d="M512.181 388.401C509.763 392.094 496.133 398.474 496.133 398.474C496.133 398.474 496.382 383.429 498.776 379.736C499.346 378.858 500.083 378.1 500.946 377.506C501.809 376.912 502.781 376.493 503.806 376.274C504.831 376.055 505.889 376.039 506.92 376.228C507.952 376.417 508.935 376.807 509.815 377.375C510.696 377.943 511.455 378.679 512.05 379.541C512.645 380.402 513.065 381.372 513.285 382.395C513.504 383.418 513.52 384.474 513.331 385.503C513.141 386.533 512.751 387.514 512.181 388.393V388.401Z" fill="#602A2A"/>
<path d="M511.601 430.059C507.667 432.038 492.658 430.67 492.658 430.67C492.658 430.67 500.477 417.798 504.419 415.827C506.31 414.875 508.502 414.712 510.513 415.374C512.524 416.035 514.19 417.467 515.143 419.355C516.097 421.242 516.26 423.43 515.597 425.437C514.934 427.445 513.5 429.107 511.609 430.059H511.601Z" fill="#602A2A"/>
<path d="M504.056 461.475C500.51 464.09 485.517 465.272 485.517 465.272C485.517 465.272 491.046 451.282 494.593 448.659C495.436 448.037 496.393 447.586 497.41 447.333C498.427 447.08 499.484 447.03 500.521 447.184C501.557 447.339 502.553 447.696 503.452 448.235C504.35 448.773 505.134 449.484 505.757 450.325C506.38 451.166 506.832 452.121 507.085 453.136C507.339 454.151 507.39 455.206 507.235 456.241C507.08 457.275 506.722 458.27 506.182 459.166C505.643 460.063 504.931 460.845 504.088 461.467L504.056 461.475Z" fill="#602A2A"/>
<path d="M479.374 399.334C482.534 402.4 497.269 405.577 497.269 405.577C497.269 405.577 493.658 390.967 490.498 387.878C489.746 387.149 488.857 386.575 487.883 386.189C486.909 385.803 485.868 385.612 484.819 385.627C483.771 385.642 482.736 385.864 481.773 386.278C480.811 386.693 479.94 387.292 479.209 388.043C478.479 388.794 477.904 389.681 477.517 390.653C477.13 391.626 476.938 392.665 476.954 393.711C476.969 394.757 477.191 395.79 477.606 396.751C478.021 397.712 478.622 398.581 479.374 399.31V399.334Z" fill="#602A2A"/>
<path d="M471.016 436.181C474.95 438.16 489.958 436.793 489.958 436.793C489.958 436.793 482.14 423.92 478.198 421.949C476.307 420.998 474.115 420.835 472.104 421.496C470.092 422.158 468.427 423.59 467.473 425.477C466.52 427.364 466.357 429.552 467.019 431.56C467.682 433.567 469.117 435.229 471.008 436.181H471.016Z" fill="#602A2A"/>
<path d="M467.816 473.117C471.363 475.731 486.355 476.914 486.355 476.914C486.355 476.914 480.858 462.955 477.303 460.309C476.461 459.686 475.503 459.236 474.486 458.983C473.469 458.73 472.412 458.679 471.376 458.834C470.339 458.988 469.343 459.345 468.445 459.884C467.546 460.423 466.763 461.133 466.139 461.974C465.516 462.815 465.064 463.77 464.811 464.785C464.557 465.8 464.506 466.855 464.661 467.89C464.816 468.925 465.174 469.919 465.714 470.816C466.254 471.712 466.965 472.494 467.808 473.117H467.816Z" fill="#602A2A"/>
<path opacity="0.25" d="M498.986 364C498.986 368.401 491.006 381.16 491.006 381.16C491.006 381.16 483.026 368.401 483.026 364C483.026 361.887 483.867 359.86 485.365 358.365C486.862 356.871 488.893 356.031 491.01 356.031C493.128 356.031 495.158 356.871 496.656 358.365C498.153 359.86 498.994 361.887 498.994 364H498.986Z" fill="black"/>
<path opacity="0.25" d="M512.181 388.401C509.763 392.094 496.133 398.474 496.133 398.474C496.133 398.474 496.382 383.429 498.776 379.736C499.346 378.858 500.083 378.1 500.946 377.506C501.809 376.912 502.781 376.493 503.806 376.274C504.831 376.055 505.889 376.039 506.92 376.228C507.952 376.417 508.935 376.807 509.815 377.375C510.696 377.943 511.455 378.679 512.05 379.541C512.645 380.402 513.065 381.372 513.285 382.395C513.504 383.418 513.52 384.474 513.331 385.503C513.141 386.533 512.751 387.514 512.181 388.393V388.401Z" fill="black"/>
<path opacity="0.25" d="M511.601 430.059C507.667 432.038 492.658 430.67 492.658 430.67C492.658 430.67 500.477 417.798 504.419 415.827C506.31 414.875 508.502 414.712 510.513 415.374C512.524 416.035 514.19 417.467 515.143 419.355C516.097 421.242 516.26 423.43 515.597 425.437C514.934 427.445 513.5 429.107 511.609 430.059H511.601Z" fill="black"/>
<path opacity="0.25" d="M504.056 461.475C500.51 464.09 485.517 465.272 485.517 465.272C485.517 465.272 491.046 451.282 494.593 448.659C495.436 448.037 496.393 447.586 497.41 447.333C498.427 447.08 499.484 447.03 500.521 447.184C501.557 447.339 502.553 447.696 503.452 448.235C504.35 448.773 505.134 449.484 505.757 450.325C506.38 451.166 506.832 452.121 507.085 453.136C507.339 454.151 507.39 455.206 507.235 456.241C507.08 457.275 506.722 458.27 506.182 459.166C505.643 460.063 504.931 460.845 504.088 461.467L504.056 461.475Z" fill="black"/>
<path opacity="0.25" d="M479.374 399.334C482.534 402.4 497.269 405.577 497.269 405.577C497.269 405.577 493.658 390.967 490.498 387.878C489.746 387.149 488.857 386.575 487.883 386.189C486.909 385.803 485.868 385.612 484.819 385.627C483.771 385.642 482.736 385.864 481.773 386.278C480.811 386.693 479.94 387.292 479.209 388.043C478.479 388.794 477.904 389.681 477.517 390.653C477.13 391.626 476.938 392.665 476.954 393.711C476.969 394.757 477.191 395.79 477.606 396.751C478.021 397.712 478.622 398.581 479.374 399.31V399.334Z" fill="black"/>
<path opacity="0.25" d="M471.016 436.181C474.95 438.16 489.958 436.793 489.958 436.793C489.958 436.793 482.14 423.92 478.198 421.949C476.307 420.998 474.115 420.835 472.104 421.496C470.092 422.158 468.427 423.59 467.473 425.477C466.52 427.364 466.357 429.552 467.019 431.56C467.682 433.567 469.117 435.229 471.008 436.181H471.016Z" fill="black"/>
<path opacity="0.25" d="M467.816 473.117C471.363 475.731 486.355 476.914 486.355 476.914C486.355 476.914 480.858 462.955 477.303 460.309C476.461 459.686 475.503 459.236 474.486 458.983C473.469 458.73 472.412 458.679 471.376 458.834C470.339 458.988 469.343 459.345 468.445 459.884C467.546 460.423 466.763 461.133 466.139 461.974C465.516 462.815 465.064 463.77 464.811 464.785C464.557 465.8 464.506 466.855 464.661 467.89C464.816 468.925 465.174 469.919 465.714 470.816C466.254 471.712 466.965 472.494 467.808 473.117H467.816Z" fill="black"/>
<g opacity="0.7">
<path opacity="0.6" d="M570 123.361H-228V529.642H570V123.361Z" fill="#BE4040"/>
<path opacity="0.6" d="M-228 123V530.085H570V123H-228ZM-192.533 158.399H153.267V308.843H-192.533V158.399ZM-192.533 344.242H153.267V494.686H-192.533V344.242ZM534.533 494.686H188.733V344.242H534.533V494.686ZM534.533 308.843H188.733V158.399H534.533V308.843Z" fill="black"/>
</g>
<g opacity="0.7">
<path opacity="0.7" d="M66.6885 552.245C66.6885 552.245 -3.14862 526.758 -12.7085 562.631L14.0769 630.588L16.9465 674.032H75.2972V637.193C75.2972 637.193 66.6885 600.379 88.694 577.732L66.6885 552.245Z" fill="url(#paint0_linear)"/>
<g opacity="0.1">
<path opacity="0.1" d="M78.3845 350.005C75.4182 349.024 71.8473 348.147 69.4291 350.102C68.0266 351.236 67.4221 353.063 66.3339 354.495C62.7147 359.233 55.4198 358.348 49.6565 360.046C41.1848 362.54 35.9534 370.915 32.9549 379.121C19.6871 415.324 34.4783 456.733 22.9275 493.499C19.5259 504.32 13.9641 516.331 19.4614 526.283C21.2912 529.606 24.2978 532.373 25.1844 536.042C26.4258 541.022 24.0318 547.554 28.2152 550.587C29.5211 551.529 31.1735 551.826 32.7372 552.196C42.152 554.674 49.2857 561.987 56.4596 568.488C63.6336 574.988 72.2584 581.28 81.9876 580.853C85.1318 580.594 88.2364 579.979 91.2411 579.019L139.524 565.6C144.361 564.256 149.616 562.631 152.421 558.512C154.138 555.994 154.678 552.88 155.113 549.887C156.78 538.452 157.569 526.905 157.475 515.35C157.475 511.536 157.298 507.634 155.863 504.086C154.251 499.991 151.027 496.717 148.681 492.976C144.151 485.735 142.934 477.039 141.813 468.615C140.032 455.204 138.251 441.527 140.717 428.22C141.773 422.508 143.595 416.957 144.804 411.285C146.763 402.045 147.074 392.532 145.723 383.184C144.594 375.42 142.176 367.544 136.856 361.703C133.374 357.811 128.643 355.251 123.476 354.462C116.946 353.658 113.698 357.407 107.878 358.807C99.2695 360.955 86.6627 352.733 78.3845 350.005Z" fill="url(#paint1_linear)"/>
</g>
<path opacity="0.7" d="M78.3845 348.083C75.4182 347.101 71.8473 346.224 69.4291 348.179C68.0266 349.314 67.4221 351.14 66.3339 352.572C62.7147 357.31 55.4198 356.426 49.6565 358.123C41.1848 360.617 35.9534 368.992 32.9549 377.198C19.6871 413.401 34.4783 454.81 22.9275 491.576C19.5259 502.397 13.9641 514.408 19.4614 524.36C21.2912 527.683 24.2978 530.45 25.1844 534.119C26.4258 539.099 24.0318 545.632 28.2152 548.665C29.5211 549.606 31.1735 549.904 32.7372 550.274C42.152 552.752 49.2857 560.065 56.4596 566.565C63.6336 573.066 72.2423 579.429 81.9876 578.979C85.1318 578.72 88.2364 578.104 91.2411 577.144L139.524 563.725C144.361 562.382 149.616 560.757 152.421 556.637C154.138 554.119 154.678 551.006 155.113 548.013C156.78 536.577 157.569 525.031 157.475 513.475C157.475 509.662 157.298 505.76 155.863 502.212C154.251 498.117 151.027 494.843 148.681 491.102C144.151 483.861 142.934 475.164 141.813 466.741C140.032 453.329 138.251 439.653 140.717 426.346C141.773 420.634 143.595 415.083 144.804 409.411C146.763 400.17 147.074 390.658 145.723 381.309C144.594 373.546 142.176 365.669 136.856 359.829C133.374 355.937 128.643 353.377 123.476 352.588C116.946 351.783 113.698 355.532 107.878 356.932C99.2695 359.024 86.6627 350.85 78.3845 348.083Z" fill="url(#paint2_linear)"/>
<path opacity="0.7" d="M64.7781 276.634C64.7781 276.634 65.7373 312.499 54.259 311.558C42.7807 310.616 86.7513 371.019 86.7513 371.019L124.056 351.196C124.056 351.196 102.066 316.28 117.382 294.566C132.697 272.852 64.7781 276.634 64.7781 276.634Z" fill="url(#paint3_linear)"/>
<g opacity="0.1">
<path opacity="0.1" d="M0.680294 581.505C0.680294 581.505 -6.96923 633.42 -26.1051 619.261C-45.241 605.101 -42.3714 581.505 -42.3714 581.505C-42.3714 581.505 -5.05885 481.455 -6.96922 466.346C-8.87958 451.238 56.7096 333.843 56.7096 333.843L81.0042 526.758C81.0042 526.758 8.32981 553.186 0.680294 581.505Z" fill="url(#paint4_linear)"/>
</g>
<path opacity="0.7" d="M-1.23012 581.505C-1.23012 581.505 -8.87964 633.42 -28.0155 619.261C-47.1514 605.101 -44.2818 581.505 -44.2818 581.505C-44.2818 581.505 -6.96927 481.455 -8.88769 466.346C-10.8061 451.238 54.7911 333.843 54.7911 333.843L79.0857 526.758C79.0857 526.758 6.41939 553.186 -1.23012 581.505Z" fill="url(#paint5_linear)"/>
<path opacity="0.7" d="M66.6885 299.289C66.6885 299.289 29.376 324.752 15.012 323.826L3.86419 326.851C-7.15889 329.802 -17.1355 335.771 -24.9384 344.083C-32.7412 352.396 -38.0593 362.721 -40.2918 373.892L-40.4691 374.793C-46.1922 405.002 -48.1106 488.068 -48.1106 488.068C-48.1106 488.068 -47.1514 509.79 -37.5915 515.422L23.6691 556.951C23.6691 556.951 21.7587 511.649 44.7153 506.926C67.6719 502.204 38.9762 505.036 38.9762 505.036L-3.11629 480.498C-3.11629 480.498 -2.15709 443.683 9.32121 431.422C20.7995 419.162 60.9816 354.993 60.9816 354.993L49.5033 315.355L66.6885 299.289Z" fill="url(#paint6_linear)"/>
<g opacity="0.1">
<path opacity="0.1" d="M107.822 323.827C107.822 323.827 131.319 329.965 147.77 332.966C150.334 333.423 152.753 334.477 154.831 336.043C156.91 337.609 158.589 339.641 159.732 341.976C164.698 352.202 172.266 370.698 170.961 386.12L185.309 441.809L226.418 490.884L189.121 507.884L147.045 461.632L181.48 549.413L117.382 552.245C117.382 552.245 98.2459 410.65 103.034 387.07L107.822 323.827Z" fill="url(#paint7_linear)"/>
</g>
<path opacity="0.7" d="M109.732 323.827C109.732 323.827 133.229 329.965 149.68 332.966C152.244 333.423 154.663 334.477 156.741 336.043C158.82 337.609 160.499 339.641 161.642 341.976C166.608 352.202 174.177 370.698 172.871 386.12L187.219 441.809L228.328 490.884L191.023 507.876L148.931 461.624L183.398 549.413L119.3 552.245C119.3 552.245 100.164 410.65 104.952 387.07L109.732 323.827Z" fill="url(#paint8_linear)"/>
<path opacity="0.7" d="M63.5448 296.28L76.732 360.167L55.2102 371.019L43.4175 313.472L63.5448 296.28Z" fill="url(#paint9_linear)"/>
<path opacity="0.7" d="M99.6887 364.889L109.732 323.827L122.653 347.898L115.955 367.721L99.6887 364.889Z" fill="url(#paint10_linear)"/>
<path opacity="0.1" d="M136.042 377.158C136.042 377.158 136.042 441.342 144.651 446.057Z" fill="url(#paint11_linear)"/>
<path opacity="0.1" d="M12.6342 393.2C12.6342 393.2 -7.21909 456.411 -1.60084 463.032Z" fill="url(#paint12_linear)"/>
<path opacity="0.1" d="M8.81323 480.023C8.81323 480.023 47.085 504.714 52.3405 505.108Z" fill="url(#paint13_linear)"/>
<g opacity="0.1">
<path opacity="0.1" d="M65.7292 280.407C65.7292 280.407 65.8743 285.934 65.3584 292.587C68.7704 300.488 74.4312 307.216 81.6387 311.935C88.8461 316.655 97.2832 319.158 105.903 319.136C108.265 319.134 110.624 318.946 112.956 318.573C112.706 311.509 114.069 304.422 118.341 298.372C133.648 276.634 65.7292 280.407 65.7292 280.407Z" fill="url(#paint14_linear)"/>
</g>
<path opacity="0.7" d="M104.952 315.339C129.254 315.339 148.955 295.899 148.955 271.919C148.955 247.939 129.254 228.499 104.952 228.499C80.6502 228.499 60.9495 247.939 60.9495 271.919C60.9495 295.899 80.6502 315.339 104.952 315.339Z" fill="url(#paint15_linear)"/>
<g opacity="0.1">
<path opacity="0.1" d="M132.874 253.665C138.202 254.373 144.965 252.619 146.021 247.405C147.319 240.825 138.396 236.545 137.017 229.972C136.501 227.51 137.114 224.935 136.816 222.433C136.219 217.397 132.092 213.519 127.893 210.591C114.558 201.377 98.4058 197.128 82.2536 198.587C80.2546 198.773 78.1507 199.094 76.6112 200.357C74.8539 201.781 74.193 204.098 72.9758 205.989C68.8488 212.57 59.5791 213.342 52.9291 217.445C45.1506 222.272 41.2976 231.661 40.951 240.704C40.6044 249.747 43.216 258.62 45.7874 267.309C47.9879 274.695 50.2933 282.281 55.1216 288.331C59.9499 294.381 67.9621 298.605 75.5472 296.787C72.073 294.317 74.596 288.581 78.3603 286.569C82.1246 284.558 86.7997 284.212 90.0159 281.436C93.2321 278.661 94.1994 274.115 95.2473 269.98C96.5692 264.767 98.4715 259.473 102.341 255.668C109.926 248.218 123.588 252.434 132.874 253.665Z" fill="url(#paint16_linear)"/>
</g>
<path opacity="0.7" d="M131.891 252.723C137.219 253.431 143.982 251.678 145.038 246.464C146.335 239.883 137.412 235.603 136.034 229.03C135.518 226.569 136.131 223.994 135.832 221.492C135.236 216.456 131.109 212.578 126.909 209.65C113.585 200.44 97.4448 196.189 81.3024 197.638C79.3033 197.823 77.1995 198.145 75.6599 199.408C73.9027 200.832 73.2418 203.149 72.0246 205.04C67.8976 211.621 58.6279 212.393 51.9779 216.496C44.1994 221.323 40.3464 230.712 39.9998 239.755C39.6532 248.797 42.2649 257.671 44.8362 266.36C47.0367 273.745 49.3421 281.332 54.1704 287.382C58.9987 293.432 67.0109 297.656 74.596 295.837C71.1218 293.368 73.6448 287.631 77.4091 285.62C81.1734 283.609 85.8486 283.263 89.0647 280.487C92.2809 277.712 93.2482 273.166 94.2961 269.031C95.618 263.818 97.5203 258.524 101.389 254.719C108.966 247.277 122.629 251.484 131.891 252.723Z" fill="url(#paint17_linear)"/>
<g opacity="0.1">
<path opacity="0.1" d="M97.343 277.776C96.6982 282.265 95.2634 290.037 92.5631 294.944C88.9921 301.331 85.9382 307.992 83.4304 314.864V314.864C83.4304 314.864 101.051 328.324 110.03 337.519C112.795 340.408 116.332 342.443 120.222 343.382C124.111 344.322 128.189 344.128 131.971 342.821C136.638 341.148 140.725 337.914 141.813 331.848C143.522 322.282 141.491 315.065 139.573 310.793C138.648 308.775 138.164 306.583 138.153 304.364C138.142 302.145 138.604 299.949 139.508 297.921C140.169 296.473 140.943 295.339 141.805 295.057C141.805 295.057 124.588 291.284 123.629 295.998C122.669 300.713 109.281 305.435 106.411 296.94L105.605 278.21C105.555 277.149 105.096 276.148 104.324 275.416C103.552 274.685 102.527 274.279 101.462 274.284V274.284C100.469 274.275 99.5068 274.622 98.7503 275.264C97.9938 275.905 97.4942 276.797 97.343 277.776V277.776Z" fill="url(#paint18_linear)"/>
</g>
<path opacity="0.7" d="M97.343 278.725C96.6982 283.215 95.2634 290.986 92.5631 295.894C88.9921 302.28 85.9382 308.941 83.4304 315.814V315.814C83.4304 315.814 101.051 329.273 110.03 338.469C112.795 341.357 116.332 343.392 120.222 344.332C124.111 345.272 128.189 345.077 131.971 343.77C136.638 342.097 140.725 338.863 141.813 332.797C143.522 323.231 141.491 316.015 139.573 311.743C138.648 309.724 138.164 307.533 138.153 305.313C138.142 303.094 138.604 300.898 139.508 298.87C140.169 297.422 140.943 296.288 141.805 296.006C141.805 296.006 124.588 292.233 123.629 296.948C122.669 301.662 109.281 306.385 106.411 297.889L105.605 279.16C105.555 278.098 105.096 277.097 104.324 276.366C103.552 275.634 102.527 275.228 101.462 275.234V275.234C100.469 275.224 99.5068 275.572 98.7503 276.213C97.9938 276.854 97.4942 277.746 97.343 278.725V278.725Z" fill="url(#paint19_linear)"/>
</g>
<path d="M65.6237 546.625C65.6237 546.625 -1.41638 521.878 -10.5974 556.706L15.1159 622.676L17.8485 664.889H73.8697V629.128C73.8697 629.128 65.6076 593.384 86.7667 571.38L65.6237 546.625Z" fill="#535461"/>
<path opacity="0.1" d="M76.8522 350.235C74.0068 349.285 70.573 348.433 68.2596 350.331C66.9135 351.433 66.3331 353.203 65.2852 354.595C61.8111 359.197 54.8064 358.336 49.2768 359.985C41.1437 362.399 36.13 370.541 33.2443 378.489C20.5086 413.639 34.7033 453.864 23.62 489.561C20.3957 500.068 15.0193 511.733 20.2909 521.395C22.0481 524.614 24.9097 527.309 25.7883 530.873C26.9812 535.7 24.6839 542.055 28.6981 545C29.9475 545.917 31.5355 546.199 33.0347 546.609C42.0707 549.023 48.9222 556.118 55.8059 562.434C62.6897 568.749 70.976 574.856 80.3102 574.445C83.3242 574.193 86.2992 573.597 89.1768 572.667L135.525 559.634C140.176 558.323 145.198 556.746 147.914 552.747C149.527 550.334 150.083 547.293 150.502 544.372C152.101 533.265 152.858 522.053 152.767 510.832C152.767 507.131 152.598 503.342 151.235 499.899C149.623 495.924 146.593 492.747 144.336 489.102C139.991 482.087 138.814 473.623 137.742 465.441C136.033 452.416 134.324 439.134 136.686 426.213C137.702 420.67 139.451 415.28 140.612 409.769C142.494 400.793 142.794 391.558 141.498 382.48C140.418 374.941 138.089 367.29 132.994 361.619C129.667 357.847 125.12 355.359 120.146 354.587C113.874 353.783 110.755 357.451 105.169 358.811C96.907 360.83 84.7999 352.89 76.8522 350.235Z" fill="black"/>
<path d="M76.8522 348.4C74.0068 347.451 70.573 346.598 68.2596 348.497C66.9135 349.599 66.3331 351.369 65.2852 352.761C61.8111 357.363 54.8064 356.502 49.2769 358.151C41.1437 360.565 36.13 368.706 33.2443 376.655C20.5086 411.804 34.7033 452.03 23.62 487.727C20.3957 498.234 15.0193 509.899 20.2909 519.561C22.0481 522.779 24.9097 525.474 25.7883 529.038C26.9812 533.866 24.6839 540.221 28.6981 543.166C29.9475 544.083 31.5355 544.364 33.0347 544.775C42.0707 547.188 48.9222 554.284 55.8059 560.6C62.6897 566.915 70.976 573.021 80.3102 572.611C83.3242 572.359 86.2993 571.763 89.1769 570.833L135.533 557.808C140.184 556.497 145.206 554.92 147.923 550.921C149.535 548.508 150.091 545.467 150.51 542.546C152.109 531.439 152.866 520.227 152.775 509.006C152.775 505.305 152.606 501.516 151.244 498.073C149.631 494.098 146.601 490.92 144.344 487.276C139.999 480.261 138.822 471.797 137.75 463.615C136.041 450.59 134.332 437.308 136.694 424.387C137.71 418.844 139.459 413.454 140.62 407.943C142.502 398.967 142.802 389.732 141.506 380.654C140.426 373.115 138.097 365.464 133.002 359.792C129.685 356.017 125.147 353.521 120.178 352.737C113.907 351.932 110.787 355.601 105.201 356.96C96.907 359.004 84.8 351.055 76.8522 348.4Z" fill="#E0E0E0"/>
<path d="M63.794 278.987C63.794 278.987 64.713 313.814 53.6941 312.897C42.6753 311.98 84.9209 370.645 84.9209 370.645L120.734 351.393C120.734 351.393 99.6154 317.483 114.286 296.396C128.956 275.31 63.794 278.987 63.794 278.987Z" fill="#E2A88F"/>
<path opacity="0.1" d="M2.25927 575.049C2.25927 575.049 -5.08394 625.46 -23.4541 611.71C-41.8242 597.961 -39.0674 575.049 -39.0674 575.049C-39.0674 575.049 -3.25418 477.887 -5.092 463.221C-6.92982 448.555 56.0719 334.539 56.0719 334.539L79.3912 521.878C79.3912 521.878 9.60248 547.55 2.25927 575.049Z" fill="black"/>
<path d="M0.421396 575.049C0.421396 575.049 -6.92181 625.46 -25.2919 611.71C-43.662 597.961 -40.9053 575.049 -40.9053 575.049C-40.9053 575.049 -5.09205 477.887 -6.92987 463.221C-8.76769 448.555 54.234 334.539 54.234 334.539L77.5533 521.878C77.5533 521.878 7.76461 547.55 0.421396 575.049Z" fill="#4D8AF0"/>
<path d="M65.6236 300.982C65.6236 300.982 29.8103 325.729 16.0347 324.812L5.33023 327.749C-5.29841 330.664 -14.8993 336.486 -22.3895 344.557C-29.8797 352.629 -34.9611 362.629 -37.0605 373.429L-37.2298 374.306C-42.7432 403.639 -44.573 484.299 -44.573 484.299C-44.573 484.299 -43.6541 505.378 -34.4731 510.848L24.2968 551.219C24.2968 551.219 22.459 507.22 44.5048 502.642C66.5506 498.065 38.9913 500.808 38.9913 500.808L-1.4165 476.97C-1.4165 476.97 -0.497589 441.226 10.5213 429.311C21.5401 417.396 60.1101 355.07 60.1101 355.07L49.0913 316.534L65.6236 300.982Z" fill="#4D8AF0"/>
<path opacity="0.1" d="M105.113 324.82C105.113 324.82 127.682 330.782 143.465 333.67C145.935 334.121 148.262 335.15 150.257 336.671C152.252 338.193 153.858 340.164 154.943 342.423C159.707 352.359 166.97 370.307 165.72 385.287L179.496 439.367L218.993 487.027L183.172 503.551L142.788 458.643L175.836 543.922L114.302 546.625C114.302 546.625 95.9317 409.133 100.526 386.221L105.113 324.82Z" fill="black"/>
<path d="M106.95 324.82C106.95 324.82 129.52 330.782 145.303 333.67C147.772 334.121 150.099 335.15 152.094 336.671C154.089 338.193 155.695 340.164 156.781 342.423C161.545 352.359 168.807 370.307 167.558 385.287L181.334 439.367L220.831 487.027L185.017 503.527L144.61 458.611L177.658 543.89L116.131 546.625C116.131 546.625 97.7613 409.133 102.356 386.221L106.95 324.82Z" fill="#4D8AF0"/>
<path d="M62.6091 298.07L75.2723 360.106L54.6049 370.645L43.2878 314.764L62.6091 298.07Z" fill="#E0E0E0"/>
<path d="M97.3098 364.692L106.95 324.82L119.348 348.191L112.923 367.443L97.3098 364.692Z" fill="#E0E0E0"/>
<path opacity="0.1" d="M132.204 376.607C132.204 376.607 132.204 438.933 140.466 443.518Z" fill="black"/>
<path opacity="0.1" d="M13.7376 392.158C13.7376 392.158 -5.32571 453.543 0.0345924 459.971Z" fill="black"/>
<path opacity="0.1" d="M10.062 476.511C10.062 476.511 46.8023 500.486 51.8482 500.872Z" fill="black"/>
<path opacity="0.1" d="M64.7048 282.655C64.7048 282.655 64.8499 288.022 64.3501 294.482C68.0365 303.185 74.5446 310.401 82.8308 314.971C91.1169 319.542 100.701 321.203 110.046 319.687C109.804 312.825 111.118 305.946 115.213 300.065C129.891 278.987 64.7048 282.655 64.7048 282.655Z" fill="black"/>
<path d="M102.356 316.574C125.688 316.574 144.602 297.696 144.602 274.409C144.602 251.122 125.688 232.244 102.356 232.244C79.0244 232.244 60.1104 251.122 60.1104 274.409C60.1104 297.696 79.0244 316.574 102.356 316.574Z" fill="#E2A88F"/>
<path opacity="0.1" d="M129.157 256.686C134.276 257.369 140.797 255.664 141.78 250.612C143.03 244.216 134.461 240.064 133.139 233.717C132.64 231.303 133.236 228.825 132.946 226.404C132.374 221.512 128.408 217.747 124.377 214.907C111.615 205.973 96.0922 201.845 80.5681 203.258C78.6497 203.443 76.6265 203.749 75.1433 204.971C73.4586 206.355 72.8057 208.6 71.6531 210.458C67.6873 216.846 58.7561 217.602 52.4124 221.585C44.9402 226.243 41.2485 235.39 40.9099 244.175C40.5714 252.961 43.0863 261.577 45.569 270.008C47.6808 277.185 49.8975 284.546 54.5324 290.419C59.1672 296.292 66.8651 300.395 74.1357 298.625C70.7986 296.212 73.2249 290.652 76.836 288.705C80.4472 286.758 84.8967 286.421 88.0322 283.717C91.1678 281.014 92.0625 276.605 93.054 272.591C94.3276 267.522 96.1654 262.39 99.8652 258.689C107.136 251.368 120.218 255.487 129.157 256.686Z" fill="black"/>
<path d="M128.279 255.768C133.397 256.452 139.918 254.747 140.902 249.694C142.151 243.298 133.583 239.147 132.261 232.8C131.761 230.386 132.357 227.908 132.067 225.486C131.455 220.555 127.473 216.774 123.442 213.95C110.688 205.018 95.1742 200.888 79.6572 202.292C77.7388 202.477 75.7156 202.783 74.2324 204.006C72.5478 205.39 71.8948 207.634 70.7422 209.493C66.7763 215.881 57.8452 216.637 51.5015 220.619C44.0293 225.277 40.3376 234.425 39.999 243.21C39.6605 251.995 42.1754 260.612 44.658 269.043C46.7699 276.219 48.9866 283.581 53.6214 289.454C58.2563 295.326 65.9542 299.43 73.2248 297.66C69.8878 295.246 72.314 289.687 75.9251 287.74C79.5363 285.793 83.9857 285.455 87.1213 282.752C90.2569 280.049 91.1516 275.64 92.1431 271.625C93.4167 266.557 95.2545 261.424 98.9543 257.723C106.217 250.475 119.332 254.586 128.279 255.768Z" fill="#72351C"/>
<path opacity="0.1" d="M95.053 280.097C94.4323 284.458 93.0539 292.004 90.4584 296.767C87.0291 302.962 84.0966 309.418 81.6885 316.075C81.6885 316.075 98.6157 329.148 107.2 338.079C109.836 340.878 113.228 342.855 116.967 343.769C120.705 344.683 124.629 344.495 128.263 343.227C132.744 341.618 136.67 338.457 137.71 332.576C139.322 323.283 137.403 316.276 135.566 312.125C134.684 310.162 134.226 308.036 134.221 305.885C134.215 303.734 134.662 301.606 135.533 299.639C136.17 298.231 136.912 297.137 137.742 296.855C137.742 296.855 121.21 293.187 120.291 297.772C119.372 302.358 106.515 306.936 103.758 298.689L103.001 280.499C102.959 279.473 102.521 278.503 101.779 277.793C101.037 277.082 100.048 276.685 99.0188 276.686V276.686C98.0559 276.678 97.123 277.02 96.3935 277.648C95.6641 278.275 95.1877 279.145 95.053 280.097Z" fill="black"/>
<path d="M95.053 281.014C94.4323 285.375 93.0539 292.921 90.4584 297.684C87.0291 303.879 84.0966 310.335 81.6885 316.992C81.6885 316.992 98.6157 330.066 107.2 338.996C109.836 341.796 113.228 343.772 116.967 344.686C120.705 345.6 124.629 345.412 128.263 344.145C132.744 342.535 136.67 339.374 137.71 333.493C139.322 324.201 137.403 317.193 135.566 313.042C134.676 311.076 134.211 308.946 134.201 306.789C134.192 304.632 134.637 302.497 135.509 300.524C136.146 299.116 136.888 298.022 137.718 297.74C137.718 297.74 121.185 294.071 120.267 298.657C119.348 303.243 106.515 307.861 103.734 299.639L102.977 281.449C102.935 280.423 102.497 279.453 101.755 278.742C101.012 278.031 100.023 277.634 98.9946 277.635V277.635C98.0406 277.632 97.1175 277.972 96.3938 278.593C95.6701 279.213 95.1942 280.073 95.053 281.014V281.014Z" fill="#72351C"/>
<path d="M422.297 546.857C422.297 546.857 405.7 530.276 399.598 508.24H401.025L400.34 506.326H401.025L398.865 500.195C404.983 494.193 409.505 488.377 410.238 485.07C411.48 479.503 412.713 449.382 413.463 428.448L414.124 428.609C415.736 425.858 416.074 422.39 415.961 419.245C416.022 415.711 415.566 412.188 414.607 408.786L411.617 378.898C411.329 376.149 410.484 373.486 409.133 371.073C407.782 368.659 405.953 366.545 403.758 364.859L373.45 341.392C375.045 339.244 377.071 337.452 379.399 336.13C381.132 335.213 383.147 334.586 384.316 333.017C386.427 330.177 384.63 325.945 386.073 322.711C387.153 320.297 389.813 318.946 391.369 316.782C394.552 312.349 392.247 306.226 389.869 301.319L376.053 272.815C372.225 264.922 368.364 256.966 363.011 250.015C346.624 228.711 315.091 218.116 289.386 227.352C282.059 229.982 275.312 235.035 272.184 242.147C271.096 244.625 270.443 247.328 268.863 249.524C265.341 254.424 258.465 255.349 253.548 258.873C247.269 263.402 244.939 271.93 245.818 279.613C246.697 287.296 250.227 294.392 253.709 301.335C257.369 308.576 261.149 316.033 267.155 321.52C269.96 324.087 273.393 326.468 274.288 330.161C275.054 333.33 273.7 336.597 273.982 339.879C274.1 341.245 274.5 342.571 275.159 343.773C261.593 345.471 251.968 356.718 247.656 373.452C247.39 374.49 247.285 375.061 247.285 375.061L245.375 392.39C245.334 393.138 245.375 393.862 245.375 394.578C245.201 398.477 246.034 402.356 247.793 405.842V466.687L189.757 503.357C181.051 507.219 182.986 538.104 200.397 543.888C217.807 549.673 233.292 513.067 233.292 513.067C243.892 512.359 261.722 498.248 271.306 487.323C272.601 489.41 274.323 491.2 276.36 492.576C269.444 508.136 255.765 540.324 257.949 546.857C259.263 550.799 293.231 551.161 329.947 550.389C330.886 550.91 331.87 551.343 332.889 551.684C336.806 552.987 340.627 552.135 344.174 550.035C383.896 548.901 422.297 546.857 422.297 546.857ZM373.281 428.875C374.087 426.646 376.73 425.431 380.269 424.852V448.32L373.281 428.875ZM369.903 346.412L370.016 346.243L369.903 346.412Z" fill="url(#paint20_linear)"/>
<path d="M283.736 394.483C283.736 394.483 281.898 459.56 280.06 467.815C278.222 476.069 251.606 500.768 237.814 501.725C237.814 501.725 223.12 536.553 206.588 531.058C190.055 525.563 188.217 496.23 196.488 492.562L251.606 457.726V388.063L283.736 394.483Z" fill="#FDB797"/>
<path d="M282.357 474.219C282.357 474.219 258.482 525.547 261.238 533.801C263.995 542.055 417.356 533.801 417.356 533.801C417.356 533.801 388.886 505.386 394.4 474.219H282.357Z" fill="#3AD29F"/>
<path d="M300.727 322.069C300.727 322.069 304.403 357.813 297.97 366.068C291.538 374.322 323.684 378.94 326.441 378.94C329.197 378.94 358.586 368.859 364.092 366.068C369.597 363.276 374.192 343.155 374.192 343.155C374.192 343.155 346.64 348.658 338.378 316.606L300.727 322.069Z" fill="#7C5846"/>
<path d="M291.103 230.37C284.147 232.872 277.73 237.667 274.764 244.425C273.732 246.774 273.112 249.34 271.612 251.432C268.267 256.082 261.738 256.959 257.103 260.282C251.138 264.586 248.93 272.679 249.76 279.984C250.59 287.289 253.944 294.023 257.248 300.588C260.723 307.483 264.318 314.546 270.016 319.76C272.676 322.173 275.941 324.458 276.787 327.966C277.513 330.975 276.231 334.12 276.497 337.202C277.158 344.82 286.283 348.368 293.9 349.213C297.213 349.583 301.001 349.599 303.339 347.226C304.532 346.003 305.136 344.346 305.886 342.817C307.619 339.316 310.291 336.363 313.603 334.285C316.916 332.207 320.741 331.086 324.653 331.046C328.566 331.006 332.413 332.049 335.767 334.058C339.122 336.068 341.853 338.966 343.658 342.431C345.448 345.858 346.487 350.026 349.736 352.085C354.709 355.303 361.367 351.53 365.051 346.88C368.735 342.23 371.379 336.421 376.61 333.63C378.222 332.753 380.173 332.165 381.285 330.669C383.292 327.974 381.583 323.951 382.954 320.886C383.985 318.577 386.508 317.314 387.983 315.254C391.006 311.047 388.789 305.23 386.557 300.572L373.434 273.5C369.799 266.002 366.131 258.448 361.053 251.842C345.456 231.665 315.51 221.601 291.103 230.37Z" fill="#200E0E"/>
<path opacity="0.1" d="M324.603 372.48C324.603 372.48 360.416 372.48 369.605 339.494L399.752 362.825C401.833 364.436 403.564 366.453 404.839 368.753C406.114 371.053 406.907 373.589 407.168 376.205L410.013 404.588C410.013 404.588 413.237 415.127 409.554 421.547C409.554 421.547 371.443 411.893 370.524 422.923L397.124 497.163C397.124 497.163 355.797 498.081 344.779 490.727C344.779 490.727 299.776 499.891 288.757 489.81C277.739 479.73 266.72 480.647 275.86 457.726C275.86 457.726 257.49 439.391 265.76 413.727C274.031 388.063 266.22 414.186 266.22 414.186C266.22 414.186 248.382 405.481 249.301 388.94L251.138 372.439C251.138 372.439 251.235 371.892 251.493 370.911C257.095 349.189 272.136 337.121 293.287 344.812C299.47 347.049 305.789 344.482 305.789 344.482C305.789 344.482 298.89 374.314 324.603 372.48Z" fill="black"/>
<path d="M324.603 370.645C324.603 370.645 360.416 370.645 369.605 337.66L399.752 360.991C401.833 362.602 403.564 364.619 404.839 366.919C406.114 369.219 406.907 371.754 407.168 374.37L410.013 402.754C410.013 402.754 413.237 413.293 409.554 419.713C409.554 419.713 371.443 410.059 370.524 421.088L397.124 495.329C397.124 495.329 355.797 496.246 344.779 488.893C344.779 488.893 299.776 498.056 288.757 487.976C277.739 477.895 266.72 478.812 275.86 455.892C275.86 455.892 257.49 437.557 265.76 411.893C274.031 386.229 266.22 412.351 266.22 412.351C266.22 412.351 248.382 403.647 249.301 387.146L251.138 370.645C251.138 370.645 251.235 370.098 251.493 369.117C257.095 347.395 272.136 335.327 293.287 343.018C299.47 345.255 305.789 342.688 305.789 342.688C305.789 342.688 298.89 372.48 324.603 370.645Z" fill="#252A62"/>
<path d="M409.554 401.812C409.554 401.812 407.716 466.89 405.878 475.144C404.04 483.398 377.408 508.129 363.632 509.054C363.632 509.054 348.938 543.882 332.406 538.387C315.873 532.892 314.036 503.559 322.306 499.891L377.408 465.063V395.376L409.554 401.812Z" fill="#7C5846"/>
<path opacity="0.1" d="M370.097 404.105C370.097 404.105 391.216 418.409 409.594 417.219C409.594 417.219 411.432 392.649 405.918 391.273C400.405 389.897 376.489 391.273 370.097 404.105Z" fill="black"/>
<path d="M370.097 403.188C370.097 403.188 391.216 417.492 409.594 416.302C409.594 416.302 411.432 391.732 405.918 390.356C400.405 388.98 376.489 390.356 370.097 403.188Z" fill="#252A62"/>
<path opacity="0.1" d="M340.216 318.4L302.565 323.903C302.565 323.903 303.412 332.173 303.581 341.675C310.901 344.756 318.943 345.715 326.784 344.443C334.625 343.171 341.949 339.719 347.914 334.482C344.738 330.613 342.022 325.383 340.216 318.4Z" fill="black"/>
<path d="M318.179 343.155C341.51 343.155 360.424 324.277 360.424 300.99C360.424 277.703 341.51 258.826 318.179 258.826C294.847 258.826 275.933 277.703 275.933 300.99C275.933 324.277 294.847 343.155 318.179 343.155Z" fill="#7C5846"/>
<path opacity="0.1" d="M329.31 292.881C327.511 293.556 325.585 293.831 323.668 293.685C316.198 293.637 308.731 293.369 301.267 292.881C295.625 292.503 289.58 291.835 285.219 288.223C279.351 283.396 278.424 274.248 281.454 267.265C284.485 260.282 290.668 255.133 297.197 251.175C300.884 248.853 304.878 247.055 309.062 245.833C321.153 242.55 334.566 246.581 344.182 254.626C353.798 262.671 359.932 274.288 363.181 286.388C364.301 290.572 365.744 295.56 369.895 296.847C367.131 301.433 360.384 302.165 355.547 299.864C348.406 296.477 344.746 283.508 338.338 281.465C331.188 279.172 335.348 290.113 329.31 292.881Z" fill="black"/>
<path d="M329.31 291.964C327.511 292.639 325.585 292.913 323.668 292.768C316.198 292.72 308.731 292.452 301.267 291.964C295.625 291.586 289.58 290.918 285.219 287.306C279.351 282.478 278.424 273.331 281.454 266.348C284.485 259.365 290.668 254.216 297.197 250.258C300.883 247.942 304.873 246.15 309.054 244.932C321.145 241.649 334.558 245.68 344.174 253.725C353.79 261.77 359.924 273.387 363.173 285.487C364.293 289.671 365.736 294.659 369.887 295.946C367.122 300.532 360.376 301.264 355.539 298.963C348.398 295.576 344.738 282.607 338.33 280.564C331.188 278.255 335.348 289.18 329.31 291.964Z" fill="#200E0E"/>
<path opacity="0.1" d="M275.473 455.433C289.247 451.76 303.446 449.91 317.703 449.93Z" fill="black"/>
<path opacity="0.1" d="M370.097 405.939C370.097 405.939 356.321 416.02 359.997 421.523Z" fill="black"/>
<g opacity="0.7">
<path opacity="0.7" d="M464.656 505.844H13.7375V545.201H39.9829V552.876V669H439.346V552.876V545.201H464.656V505.844Z" fill="url(#paint21_linear)"/>
</g>
<path d="M435.267 528.765H44.0454V669.008H435.267V528.765Z" fill="#E0E0E0"/>
<path opacity="0.1" d="M435.267 536.094H44.0454V558.089H435.267V536.094Z" fill="black"/>
<path d="M460.061 513.181H18.332V550.76H460.061V513.181Z" fill="#E0E0E0"/>
<path d="M160.892 503.929H86.8795C83.9859 503.929 81.6401 506.271 81.6401 509.159V510.615C81.6401 513.503 83.9859 515.844 86.8795 515.844H160.892C163.786 515.844 166.131 513.503 166.131 510.615V509.159C166.131 506.271 163.786 503.929 160.892 503.929Z" fill="#535461"/>
<g opacity="0.7">
<path opacity="0.7" d="M320.315 371.08H155.814C143.251 371.08 133.067 381.244 133.067 393.783V493.294C133.067 505.832 143.251 515.997 155.814 515.997H320.315C332.878 515.997 343.062 505.832 343.062 493.294V393.783C343.062 381.244 332.878 371.08 320.315 371.08Z" fill="url(#paint22_linear)"/>
</g>
<path d="M314.1 373.751H158.442C146.493 373.751 136.807 383.418 136.807 395.344V494.396C136.807 506.322 146.493 515.989 158.442 515.989H314.1C326.049 515.989 335.735 506.322 335.735 494.396V395.344C335.735 383.418 326.049 373.751 314.1 373.751Z" fill="#3E3F49"/>
<path d="M316.857 373.751H161.198C149.25 373.751 139.564 383.418 139.564 395.344V494.396C139.564 506.322 149.25 515.989 161.198 515.989H316.857C328.805 515.989 338.491 506.322 338.491 494.396V395.344C338.491 383.418 328.805 373.751 316.857 373.751Z" fill="#535461"/>
<path d="M248.317 450.316C251.87 450.316 254.75 447.442 254.75 443.896C254.75 440.351 251.87 437.476 248.317 437.476C244.765 437.476 241.885 440.351 241.885 443.896C241.885 447.442 244.765 450.316 248.317 450.316Z" fill="#E0E0E0"/>
<path opacity="0.1" d="M-14.7327 531.508C-14.7327 531.508 -9.29982 539.465 6.81329 541.903Z" fill="black"/>
<path opacity="0.2" d="M129.085 123.361H71.8545V91.1807H129.085V123.361ZM74.2727 120.948H126.667V93.5942H74.2727V120.948Z" fill="#602A2A"/>
<path opacity="0.2" d="M186.315 123.361H129.085V91.1807H186.315V123.361ZM131.503 120.948H183.897V93.5942H131.503V120.948Z" fill="#602A2A"/>
<path opacity="0.2" d="M243.545 123.361H186.315V91.1807H243.545V123.361ZM188.733 120.948H241.127V93.5942H188.733V120.948Z" fill="#602A2A"/>
<path opacity="0.2" d="M300.776 123.361H243.545V91.1807H300.776V123.361ZM245.964 120.948H298.358V93.5942H245.964V120.948Z" fill="#602A2A"/>
<path opacity="0.2" d="M243.545 91.1806H186.315V59H243.545V91.1806ZM188.733 88.7671H241.127V61.4135H188.733V88.7671Z" fill="#602A2A"/>
<path opacity="0.2" d="M186.315 91.1806H129.085V59H186.315V91.1806ZM131.503 88.7671H183.897V61.4135H131.503V88.7671Z" fill="#602A2A"/>
<path opacity="0.2" d="M416.849 123.361H359.618V91.1807H416.849V123.361ZM362.036 120.948H414.43V93.5942H362.036V120.948Z" fill="#602A2A"/>
<path opacity="0.2" d="M474.079 123.361H416.848V91.1807H474.079V123.361ZM419.267 120.948H471.661V93.5942H419.267V120.948Z" fill="#602A2A"/>
<path opacity="0.2" d="M474.079 91.1806H416.848V59H474.079V91.1806ZM419.267 88.7671H471.661V61.4135H419.267V88.7671Z" fill="#602A2A"/>
</g>
</g>
<defs>
<linearGradient id="paint0_linear" x1="-12.7166" y1="608.73" x2="88.694" y2="608.73" gradientUnits="userSpaceOnUse">
<stop stop-color="#808080" stop-opacity="0.25"/>
<stop offset="0.54" stop-color="#808080" stop-opacity="0.12"/>
<stop offset="1" stop-color="#808080" stop-opacity="0.1"/>
</linearGradient>
<linearGradient id="paint1_linear" x1="57086.4" y1="132376" x2="81522.4" y2="132376" gradientUnits="userSpaceOnUse">
<stop stop-color="#808080" stop-opacity="0.25"/>
<stop offset="0.54" stop-color="#808080" stop-opacity="0.12"/>
<stop offset="1" stop-color="#808080" stop-opacity="0.1"/>
</linearGradient>
<linearGradient id="paint2_linear" x1="57086.4" y1="131858" x2="81522.4" y2="131858" gradientUnits="userSpaceOnUse">
<stop stop-color="#808080" stop-opacity="0.25"/>
<stop offset="0.54" stop-color="#808080" stop-opacity="0.12"/>
<stop offset="1" stop-color="#808080" stop-opacity="0.1"/>
</linearGradient>
<linearGradient id="paint3_linear" x1="32343.3" y1="37534.5" x2="38726" y2="37534.5" gradientUnits="userSpaceOnUse">
<stop stop-color="#808080" stop-opacity="0.25"/>
<stop offset="0.54" stop-color="#808080" stop-opacity="0.12"/>
<stop offset="1" stop-color="#808080" stop-opacity="0.1"/>
</linearGradient>
<linearGradient id="paint4_linear" x1="41045.5" y1="168792" x2="59981.2" y2="168792" gradientUnits="userSpaceOnUse">
<stop stop-color="#808080" stop-opacity="0.25"/>
<stop offset="0.54" stop-color="#808080" stop-opacity="0.12"/>
<stop offset="1" stop-color="#808080" stop-opacity="0.1"/>
</linearGradient>
<linearGradient id="paint5_linear" x1="40748.1" y1="168792" x2="59682.6" y2="168792" gradientUnits="userSpaceOnUse">
<stop stop-color="#808080" stop-opacity="0.25"/>
<stop offset="0.54" stop-color="#808080" stop-opacity="0.12"/>
<stop offset="1" stop-color="#808080" stop-opacity="0.1"/>
</linearGradient>
<linearGradient id="paint6_linear" x1="37340.8" y1="135183" x2="53690.5" y2="135183" gradientUnits="userSpaceOnUse">
<stop stop-color="#808080" stop-opacity="0.25"/>
<stop offset="0.54" stop-color="#808080" stop-opacity="0.12"/>
<stop offset="1" stop-color="#808080" stop-opacity="0.1"/>
</linearGradient>
<linearGradient id="paint7_linear" x1="63699.5" y1="122713" x2="82825.2" y2="122713" gradientUnits="userSpaceOnUse">
<stop stop-color="#808080" stop-opacity="0.25"/>
<stop offset="0.54" stop-color="#808080" stop-opacity="0.12"/>
<stop offset="1" stop-color="#808080" stop-opacity="0.1"/>
</linearGradient>
<linearGradient id="paint8_linear" x1="63992.7" y1="122713" x2="83117.2" y2="122713" gradientUnits="userSpaceOnUse">
<stop stop-color="#808080" stop-opacity="0.25"/>
<stop offset="0.54" stop-color="#808080" stop-opacity="0.12"/>
<stop offset="1" stop-color="#808080" stop-opacity="0.1"/>
</linearGradient>
<linearGradient id="paint9_linear" x1="11178.5" y1="25346.7" x2="12555.4" y2="25346.7" gradientUnits="userSpaceOnUse">
<stop stop-color="#808080" stop-opacity="0.25"/>
<stop offset="0.54" stop-color="#808080" stop-opacity="0.12"/>
<stop offset="1" stop-color="#808080" stop-opacity="0.1"/>
</linearGradient>
<linearGradient id="paint10_linear" x1="9378.58" y1="15697.4" x2="10032.8" y2="15697.4" gradientUnits="userSpaceOnUse">
<stop stop-color="#808080" stop-opacity="0.25"/>
<stop offset="0.54" stop-color="#808080" stop-opacity="0.12"/>
<stop offset="1" stop-color="#808080" stop-opacity="0.1"/>
</linearGradient>
<linearGradient id="paint11_linear" x1="4906.56" y1="35030.5" x2="4998.5" y2="35030.5" gradientUnits="userSpaceOnUse">
<stop stop-color="#808080" stop-opacity="0.25"/>
<stop offset="0.54" stop-color="#808080" stop-opacity="0.12"/>
<stop offset="1" stop-color="#808080" stop-opacity="0.1"/>
</linearGradient>
<linearGradient id="paint12_linear" x1="5820.02" y1="36948.9" x2="6107.99" y2="36948.9" gradientUnits="userSpaceOnUse">
<stop stop-color="#808080" stop-opacity="0.25"/>
<stop offset="0.54" stop-color="#808080" stop-opacity="0.12"/>
<stop offset="1" stop-color="#808080" stop-opacity="0.1"/>
</linearGradient>
<linearGradient id="paint13_linear" x1="17259.1" y1="15621.4" x2="19609.6" y2="15621.4" gradientUnits="userSpaceOnUse">
<stop stop-color="#808080" stop-opacity="0.25"/>
<stop offset="0.54" stop-color="#808080" stop-opacity="0.12"/>
<stop offset="1" stop-color="#808080" stop-opacity="0.1"/>
</linearGradient>
<linearGradient id="paint14_linear" x1="25828.1" y1="14460.3" x2="29611.9" y2="14460.3" gradientUnits="userSpaceOnUse">
<stop stop-color="#808080" stop-opacity="0.25"/>
<stop offset="0.54" stop-color="#808080" stop-opacity="0.12"/>
<stop offset="1" stop-color="#808080" stop-opacity="0.1"/>
</linearGradient>
<linearGradient id="paint15_linear" x1="31390.1" y1="22671.3" x2="40998.6" y2="22671.3" gradientUnits="userSpaceOnUse">
<stop stop-color="#808080" stop-opacity="0.25"/>
<stop offset="0.54" stop-color="#808080" stop-opacity="0.12"/>
<stop offset="1" stop-color="#808080" stop-opacity="0.1"/>
</linearGradient>
<linearGradient id="paint16_linear" x1="45934.8" y1="29803" x2="59673.5" y2="29803" gradientUnits="userSpaceOnUse">
<stop stop-color="#808080" stop-opacity="0.25"/>
<stop offset="0.54" stop-color="#808080" stop-opacity="0.12"/>
<stop offset="1" stop-color="#808080" stop-opacity="0.1"/>
</linearGradient>
<linearGradient id="paint17_linear" x1="45794.5" y1="29684.3" x2="59529.1" y2="29684.3" gradientUnits="userSpaceOnUse">
<stop stop-color="#808080" stop-opacity="0.25"/>
<stop offset="0.54" stop-color="#808080" stop-opacity="0.12"/>
<stop offset="1" stop-color="#808080" stop-opacity="0.1"/>
</linearGradient>
<linearGradient id="paint18_linear" x1="28939.7" y1="26446.8" x2="33259.7" y2="26446.8" gradientUnits="userSpaceOnUse">
<stop stop-color="#808080" stop-opacity="0.25"/>
<stop offset="0.54" stop-color="#808080" stop-opacity="0.12"/>
<stop offset="1" stop-color="#808080" stop-opacity="0.1"/>
</linearGradient>
<linearGradient id="paint19_linear" x1="28939.7" y1="26529.3" x2="33259.7" y2="26529.3" gradientUnits="userSpaceOnUse">
<stop stop-color="#808080" stop-opacity="0.25"/>
<stop offset="0.54" stop-color="#808080" stop-opacity="0.12"/>
<stop offset="1" stop-color="#808080" stop-opacity="0.1"/>
</linearGradient>
<linearGradient id="paint20_linear" x1="182096" y1="222728" x2="182096" y2="88764" gradientUnits="userSpaceOnUse">
<stop stop-color="#808080" stop-opacity="0.25"/>
<stop offset="0.54" stop-color="#808080" stop-opacity="0.12"/>
<stop offset="1" stop-color="#808080" stop-opacity="0.1"/>
</linearGradient>
<linearGradient id="paint21_linear" x1="261366" y1="124214" x2="261366" y2="91125.8" gradientUnits="userSpaceOnUse">
<stop stop-color="#808080" stop-opacity="0.25"/>
<stop offset="0.54" stop-color="#808080" stop-opacity="0.12"/>
<stop offset="1" stop-color="#808080" stop-opacity="0.1"/>
</linearGradient>
<linearGradient id="paint22_linear" x1="121552" y1="82690" x2="121552" y2="56586" gradientUnits="userSpaceOnUse">
<stop stop-color="#808080" stop-opacity="0.25"/>
<stop offset="0.54" stop-color="#808080" stop-opacity="0.12"/>
<stop offset="1" stop-color="#808080" stop-opacity="0.1"/>
</linearGradient>
<clipPath id="clip0">
<rect width="600" height="768" fill="white"/>
</clipPath>
<clipPath id="clip1">
<rect x="-228" y="59" width="798" height="610" fill="white"/>
</clipPath>
</defs>
</svg>
