<svg width="383" height="95" viewBox="0 0 383 95" fill="none" xmlns="http://www.w3.org/2000/svg">
<g clip-path="url(#clip0)">
<path d="M83.4749 7.88127C98.6888 10.8766 109.786 16.6972 116.725 23.3676C114.73 16.2086 109.786 9.87814 101.171 5.33208C82.223 -4.67351 54.5536 0.977201 36.1993 9.47452C36.9844 9.28333 37.7908 9.09214 38.5971 8.92219C50.3523 5.11964 65.545 4.35488 83.4749 7.88127Z" fill="#AE9293"/>
<path d="M11.8189 67.9148C11.2885 67.4475 10.8004 66.9589 10.3973 66.4915C8.10565 63.8786 6.25961 61.3506 4.77429 58.9077C6.66277 71.4837 15.0442 81.4893 23.1922 87.7985C34.3958 96.4658 51.1587 97.3155 68.3247 90.3902C48.3578 88.5421 32.4861 83.0613 22.9588 76.922C18.227 73.8629 14.5774 70.8676 11.8189 67.9148Z" fill="#AE9293"/>
<path d="M4.88034 47.7549C4.944 47.4363 4.98644 47.0964 5.05009 46.7777C5.05009 46.7352 5.07131 46.6715 5.07131 46.629C5.13497 46.3316 5.19862 46.0342 5.26228 45.7368C5.2835 45.6518 5.30472 45.5456 5.32594 45.4606C5.36838 45.2695 5.41081 45.0995 5.45325 44.9083C7.89342 34.8178 14.0681 26.278 19.8396 20.1811C20.1155 19.8837 20.4125 19.5863 20.7308 19.2677C23.8924 16.1449 27.8179 13.4682 32.4224 11.3227C33.6319 10.6854 34.905 10.0693 36.2206 9.45326C26.9904 11.7263 19.097 15.3801 13.3042 19.905C2.88577 28.0411 -5.72908 41.4881 4.77425 58.8864C4.24378 55.3813 4.22256 51.6424 4.88034 47.7549Z" fill="#AE9293"/>
<path d="M126.273 52.9595C125.849 50.3891 125.276 47.9674 124.555 45.6943C123.239 49.3269 120.438 52.4922 116.131 54.7227C102.678 61.6905 104.991 67.0014 109.404 70.6764C111.802 72.6733 113.096 74.8189 113.372 76.9432C124.894 68.8283 127.546 60.6709 126.273 52.9595Z" fill="#AE9293"/>
<path d="M73.396 88.1172C71.6985 88.9457 70.0222 89.7104 68.3247 90.3902C72.2078 90.7513 76.2393 90.9638 80.4194 91.0275C102.699 91.3674 114.306 84.2721 113.394 76.922C109.871 79.3862 105.543 81.8504 100.217 84.3146C93.1507 87.5648 83.581 88.5633 73.396 88.1172Z" fill="#AE9293"/>
<path d="M117.765 32.0561C120.587 35.9437 122.921 40.4685 124.555 45.6943C126.952 39.0239 124.342 30.6966 116.725 23.3676C117.51 26.1505 117.828 29.0608 117.765 32.0561Z" fill="#AE9293"/>
<path d="M16.0627 71.6111C14.7684 70.379 13.177 69.1469 11.819 67.9148C14.5562 70.8676 18.2058 73.8629 22.9589 76.922C32.4861 83.0613 48.379 88.542 68.3247 90.3902C70.0222 89.7104 71.6985 88.9457 73.396 88.1172C49.928 87.0975 23.171 78.3877 16.0627 71.6111Z" fill="#865D5D"/>
<path d="M38.5758 8.9222C51.3283 6.18181 66.3937 6.03311 81.7986 9.81442C92.8324 12.5336 108.089 18.6729 117.765 32.0561C117.849 29.0821 117.51 26.1505 116.725 23.3676C109.786 16.6972 98.6888 10.8553 83.4749 7.88128C65.5449 4.35489 50.3523 5.11965 38.5758 8.9222Z" fill="#865D5D"/>
<path d="M109.425 70.6552C104.991 66.9801 102.699 61.6693 116.152 54.7015C120.459 52.4709 123.26 49.3269 124.576 45.6731C122.942 40.4472 120.608 35.9437 117.786 32.0349C117.552 41.5519 113.181 51.8124 105.988 60.9683C96.2061 73.4381 84.8328 82.4877 73.4171 88.1172C83.6022 88.5633 93.1718 87.5436 100.238 84.2934C105.542 81.8504 109.892 79.3862 113.415 76.9007C113.118 74.7976 111.823 72.6521 109.425 70.6552Z" fill="#865D5D"/>
<path d="M81.7986 9.81441C66.3937 6.0331 51.3496 6.18181 38.5758 8.92219C36.3903 9.62322 34.3321 10.4305 32.4012 11.3439C27.436 13.9356 23.4044 16.676 20.7096 19.2889C20.4125 19.5863 20.1155 19.8837 19.8184 20.2024C11.734 28.9546 7.29928 37.2607 5.43202 44.9296C5.38958 45.1208 5.34715 45.2907 5.30471 45.4819C5.28349 45.5669 5.26227 45.6731 5.24105 45.7581C5.1774 46.0555 5.11374 46.3529 5.05008 46.6503C5.05008 46.6928 5.02886 46.7352 5.02886 46.799C4.96521 47.1176 4.90155 47.4575 4.85911 47.7762C4.30742 51.1114 3.43745 56.061 4.75302 58.9076C5.8564 61.2869 8.6785 64.5796 11.7977 67.936C13.1557 69.1682 14.7471 70.4003 16.0414 71.6324C23.1497 78.3877 49.9067 87.1187 73.3747 88.1384C84.7905 82.5302 96.1638 73.4593 105.946 60.9895C113.118 51.8336 117.489 41.5944 117.743 32.0561C108.089 18.6729 92.8324 12.5335 81.7986 9.81441Z" fill="#602A2A"/>
<path d="M148.702 42.4016C148.15 42.2104 147.641 42.0192 147.174 41.828C146.707 41.6369 146.325 41.3819 145.986 41.1058C145.646 40.8296 145.392 40.4897 145.222 40.1073C145.031 39.725 144.946 39.2364 144.946 38.684C144.946 37.6006 145.37 36.7297 146.198 36.0924C147.025 35.4338 148.192 35.1152 149.699 35.1152C150.251 35.1152 150.76 35.1577 151.227 35.2214C151.694 35.3064 152.097 35.4126 152.436 35.5825C152.776 35.7525 153.03 35.9437 153.221 36.1986C153.412 36.4535 153.497 36.7297 153.497 37.0696C153.497 37.4094 153.412 37.6856 153.264 37.9193C153.115 38.153 152.924 38.3654 152.712 38.5141C152.436 38.3442 152.054 38.1742 151.587 38.0467C151.121 37.9193 150.59 37.8556 150.038 37.8556C149.466 37.8556 149.041 37.9405 148.787 38.0892C148.511 38.2592 148.383 38.4504 148.383 38.684C148.383 38.8752 148.468 39.0239 148.638 39.1514C148.808 39.2789 149.041 39.3851 149.381 39.4913L150.399 39.8099C151.587 40.1923 152.521 40.6809 153.158 41.2757C153.794 41.8705 154.112 42.6778 154.112 43.6975C154.112 44.7809 153.688 45.6518 152.839 46.3316C151.991 47.0114 150.739 47.3301 149.084 47.3301C148.489 47.3301 147.959 47.2876 147.45 47.1814C146.941 47.0964 146.516 46.9477 146.134 46.7565C145.752 46.5653 145.476 46.3529 145.264 46.0767C145.052 45.8005 144.946 45.4819 144.946 45.1208C144.946 44.7596 145.052 44.441 145.264 44.1648C145.476 43.9099 145.71 43.6975 145.964 43.57C146.325 43.8462 146.75 44.1011 147.28 44.2923C147.789 44.5047 148.362 44.5897 148.977 44.5897C149.593 44.5897 150.038 44.4835 150.293 44.2923C150.548 44.1011 150.675 43.8886 150.675 43.6337C150.675 43.3788 150.569 43.1876 150.378 43.0602C150.166 42.9327 149.89 42.8052 149.508 42.6778L148.702 42.4016Z" fill="#864241"/>
<path d="M156.192 35.1364C156.192 34.6478 156.362 34.2442 156.68 33.9043C156.998 33.5644 157.444 33.4157 157.974 33.4157C158.505 33.4157 158.929 33.5857 159.269 33.9043C159.587 34.2442 159.757 34.6478 159.757 35.1364C159.757 35.625 159.587 36.0286 159.269 36.3685C158.95 36.7084 158.505 36.8571 157.974 36.8571C157.444 36.8571 157.019 36.6872 156.68 36.3685C156.34 36.0286 156.192 35.625 156.192 35.1364ZM159.587 46.9902C159.438 47.0114 159.247 47.0539 158.972 47.0964C158.696 47.1389 158.42 47.1601 158.144 47.1601C157.868 47.1601 157.614 47.1389 157.38 47.0964C157.147 47.0539 156.977 46.9902 156.807 46.8627C156.637 46.7353 156.531 46.5866 156.447 46.3954C156.362 46.2042 156.319 45.9493 156.319 45.6306V37.8556C156.468 37.8343 156.659 37.7918 156.935 37.7493C157.21 37.7069 157.486 37.6856 157.762 37.6856C158.038 37.6856 158.293 37.7069 158.526 37.7493C158.738 37.7918 158.929 37.8556 159.099 37.983C159.247 38.0892 159.375 38.2592 159.46 38.4504C159.544 38.6416 159.587 38.8965 159.587 39.2151V46.9902Z" fill="#864241"/>
<path d="M170.048 44.2285C170.048 45.2057 169.687 45.9493 168.966 46.5016C168.244 47.0539 167.162 47.3301 165.762 47.3301C165.231 47.3301 164.722 47.2876 164.276 47.2239C163.809 47.1389 163.428 47.0327 163.109 46.8627C162.791 46.6928 162.536 46.5016 162.345 46.2679C162.154 46.0342 162.07 45.7368 162.07 45.4182C162.07 45.1208 162.133 44.8446 162.261 44.6534C162.388 44.441 162.536 44.271 162.727 44.1223C163.088 44.3348 163.512 44.5047 164 44.6747C164.467 44.8446 165.019 44.9083 165.656 44.9083C166.059 44.9083 166.356 44.8446 166.568 44.7384C166.78 44.6322 166.886 44.4622 166.886 44.271C166.886 44.1011 166.801 43.9524 166.653 43.8462C166.504 43.74 166.25 43.655 165.889 43.5912L165.316 43.485C164.213 43.2726 163.385 42.9327 162.833 42.4654C162.282 41.998 162.027 41.3395 162.027 40.4685C162.027 40.0011 162.133 39.5763 162.324 39.1939C162.536 38.8115 162.812 38.4929 163.173 38.2379C163.534 37.983 163.979 37.7918 164.51 37.6431C165.019 37.4944 165.592 37.4307 166.228 37.4307C166.695 37.4307 167.141 37.4732 167.565 37.5369C167.968 37.6006 168.329 37.7069 168.647 37.8556C168.944 38.0043 169.199 38.1742 169.369 38.4079C169.539 38.6203 169.645 38.8965 169.645 39.1939C169.645 39.4913 169.581 39.7462 169.475 39.9586C169.369 40.1711 169.22 40.341 169.072 40.4897C168.966 40.426 168.817 40.3623 168.605 40.2985C168.393 40.2348 168.181 40.1711 167.947 40.1074C167.714 40.0436 167.459 40.0011 167.204 39.9586C166.95 39.9162 166.738 39.8949 166.525 39.8949C166.101 39.8949 165.783 39.9374 165.549 40.0436C165.316 40.1498 165.21 40.2985 165.21 40.4897C165.21 40.6384 165.274 40.7446 165.401 40.8296C165.528 40.9146 165.762 40.9996 166.122 41.0845L166.716 41.212C167.947 41.4882 168.817 41.8705 169.326 42.3591C169.793 42.8265 170.048 43.4638 170.048 44.2285Z" fill="#864241"/>
<path d="M175.437 43.8037C175.437 44.1436 175.543 44.3772 175.756 44.5047C175.968 44.6534 176.265 44.7171 176.647 44.7171C176.838 44.7171 177.029 44.6959 177.241 44.6747C177.453 44.6534 177.623 44.6109 177.771 44.5472C177.877 44.6959 177.984 44.8446 178.068 45.0145C178.153 45.1845 178.196 45.3969 178.196 45.6306C178.196 46.1192 178.005 46.5016 177.644 46.8202C177.283 47.1176 176.647 47.2876 175.734 47.2876C174.61 47.2876 173.761 47.0327 173.146 46.5228C172.53 46.013 172.233 45.1845 172.233 44.0374V35.8587C172.382 35.8162 172.573 35.7737 172.827 35.7312C173.082 35.6887 173.358 35.6675 173.655 35.6675C174.207 35.6675 174.652 35.7737 174.97 35.9649C175.289 36.1561 175.437 36.581 175.437 37.2183V38.4504H177.941C178.026 38.5991 178.09 38.769 178.153 38.9815C178.217 39.1939 178.259 39.4276 178.259 39.6825C178.259 40.1286 178.153 40.4472 177.962 40.6384C177.771 40.8296 177.496 40.9358 177.177 40.9358H175.437V43.8037Z" fill="#864241"/>
<path d="M185.198 47.3088C184.455 47.3088 183.755 47.2026 183.097 46.9902C182.461 46.7777 181.888 46.4591 181.421 46.0342C180.954 45.6094 180.572 45.0783 180.296 44.441C180.021 43.8037 179.893 43.0602 179.893 42.2104C179.893 41.3607 180.021 40.6384 180.296 40.0436C180.572 39.4488 180.933 38.939 181.379 38.5566C181.824 38.1742 182.333 37.8768 182.906 37.7069C183.479 37.5157 184.073 37.4307 184.668 37.4307C185.347 37.4307 185.962 37.5369 186.514 37.7281C187.065 37.9405 187.553 38.2167 187.956 38.5778C188.36 38.939 188.678 39.3638 188.89 39.8524C189.102 40.341 189.23 40.8934 189.23 41.4882C189.23 41.913 189.102 42.2529 188.869 42.4866C188.635 42.7203 188.296 42.869 187.85 42.9327L183.14 43.6337C183.288 44.0586 183.564 44.3772 183.989 44.5897C184.413 44.8021 184.922 44.9083 185.474 44.9083C186.004 44.9083 186.492 44.8446 186.959 44.7171C187.426 44.5897 187.808 44.4197 188.105 44.2498C188.317 44.3772 188.487 44.5472 188.614 44.7809C188.763 45.0145 188.826 45.2482 188.826 45.5031C188.826 46.0767 188.551 46.5016 188.02 46.7777C187.617 46.9902 187.15 47.1389 186.641 47.2238C186.11 47.2663 185.644 47.3088 185.198 47.3088ZM184.668 39.7887C184.37 39.7887 184.095 39.8312 183.882 39.9374C183.67 40.0436 183.479 40.1711 183.331 40.3198C183.182 40.4897 183.076 40.6597 183.012 40.8509C182.949 41.0421 182.906 41.2545 182.885 41.4457L186.153 40.9146C186.11 40.6597 185.983 40.4048 185.728 40.1498C185.474 39.9162 185.134 39.7887 184.668 39.7887Z" fill="#864241"/>
<path d="M195.786 37.4307C196.317 37.4307 196.826 37.4944 197.314 37.6431C197.823 37.7918 198.248 38.0043 198.63 38.3017C199.012 38.0468 199.436 37.8343 199.924 37.6644C200.391 37.4944 200.985 37.4095 201.643 37.4095C202.131 37.4095 202.598 37.4732 203.064 37.6006C203.531 37.7281 203.934 37.9193 204.295 38.1955C204.656 38.4716 204.953 38.8328 205.165 39.2789C205.377 39.725 205.483 40.2773 205.483 40.9358V46.9689C205.356 47.0114 205.165 47.0539 204.889 47.0752C204.613 47.1176 204.337 47.1389 204.04 47.1389C203.765 47.1389 203.51 47.1176 203.277 47.0752C203.043 47.0327 202.873 46.9689 202.704 46.8415C202.534 46.714 202.428 46.5653 202.343 46.3741C202.258 46.1829 202.216 45.928 202.216 45.6094V41.0421C202.216 40.6597 202.11 40.3835 201.897 40.2136C201.685 40.0436 201.388 39.9586 201.027 39.9586C200.858 39.9586 200.667 40.0011 200.454 40.0861C200.242 40.1711 200.094 40.2561 199.988 40.341C200.009 40.3835 200.009 40.4472 200.009 40.4897C200.009 40.5322 200.009 40.5747 200.009 40.6172V46.9902C199.86 47.0327 199.669 47.0752 199.393 47.0964C199.118 47.1389 198.842 47.1601 198.566 47.1601C198.29 47.1601 198.035 47.1389 197.802 47.0964C197.569 47.0539 197.399 46.9902 197.229 46.8627C197.059 46.7353 196.953 46.5866 196.868 46.3954C196.784 46.2042 196.741 45.9493 196.741 45.6306V41.0633C196.741 40.6809 196.614 40.4048 196.38 40.2348C196.147 40.0649 195.871 39.9799 195.532 39.9799C195.298 39.9799 195.107 40.0224 194.938 40.0861C194.768 40.1498 194.64 40.2136 194.513 40.2773V46.9902C194.386 47.0327 194.195 47.0752 193.919 47.0964C193.643 47.1389 193.367 47.1601 193.07 47.1601C192.794 47.1601 192.54 47.1389 192.306 47.0964C192.073 47.0539 191.903 46.9902 191.734 46.8627C191.585 46.7565 191.458 46.5866 191.373 46.3954C191.288 46.2042 191.245 45.9493 191.245 45.6306V39.8524C191.245 39.5125 191.309 39.2364 191.458 39.0239C191.606 38.8115 191.797 38.6203 192.052 38.4504C192.476 38.153 193.028 37.898 193.664 37.7069C194.428 37.5157 195.086 37.4307 195.786 37.4307Z" fill="#864241"/>
<path d="M211.891 37.4307C212.57 37.4307 213.207 37.4944 213.78 37.6431C214.353 37.7918 214.841 38.0043 215.223 38.2804C215.626 38.5566 215.923 38.939 216.156 39.3638C216.368 39.8099 216.475 40.3198 216.475 40.9146V45.2057C216.475 45.5456 216.39 45.8005 216.199 46.013C216.008 46.2254 215.796 46.3954 215.541 46.5653C214.713 47.0539 213.546 47.3088 212.04 47.3088C211.361 47.3088 210.767 47.2451 210.215 47.1176C209.663 46.9902 209.218 46.799 208.815 46.5441C208.433 46.2891 208.136 45.9705 207.923 45.5669C207.711 45.1632 207.605 44.7171 207.605 44.1861C207.605 43.3151 207.86 42.6353 208.39 42.1679C208.921 41.7006 209.727 41.4032 210.809 41.297L213.313 41.0208V40.8933C213.313 40.5322 213.143 40.2561 212.825 40.1073C212.507 39.9586 212.04 39.8737 211.424 39.8737C210.936 39.8737 210.47 39.9162 210.003 40.0224C209.536 40.1286 209.133 40.2561 208.751 40.4048C208.581 40.2985 208.454 40.1073 208.327 39.8737C208.22 39.64 208.157 39.3851 208.157 39.1302C208.157 38.7903 208.242 38.5353 208.39 38.3442C208.56 38.153 208.793 37.983 209.133 37.8343C209.494 37.6856 209.939 37.6006 210.448 37.5369C210.979 37.4519 211.446 37.4307 211.891 37.4307ZM212.04 44.9508C212.252 44.9508 212.485 44.9296 212.761 44.8871C213.016 44.8446 213.207 44.7809 213.334 44.6959V43.1664L211.955 43.2726C211.594 43.2938 211.297 43.3788 211.085 43.5063C210.852 43.6337 210.745 43.8249 210.745 44.0798C210.745 44.3348 210.852 44.5472 211.043 44.6959C211.234 44.8658 211.573 44.9508 212.04 44.9508Z" fill="#864241"/>
<path d="M223.031 42.3591C223.031 41.5094 223.159 40.7871 223.413 40.1711C223.668 39.555 224.029 39.0452 224.474 38.6416C224.92 38.2379 225.45 37.9405 226.066 37.7281C226.66 37.5369 227.317 37.4307 228.018 37.4307C228.272 37.4307 228.527 37.4519 228.76 37.4944C228.994 37.5369 229.206 37.6006 229.354 37.6644V34.5628C229.482 34.5204 229.694 34.4779 229.97 34.4354C230.246 34.3929 230.543 34.3717 230.819 34.3717C231.094 34.3717 231.349 34.3929 231.582 34.4354C231.795 34.4779 231.986 34.5416 232.155 34.6691C232.304 34.7753 232.431 34.9452 232.495 35.1364C232.58 35.3276 232.601 35.5825 232.601 35.9012V44.9721C232.601 45.5669 232.325 46.0555 231.752 46.4166C231.391 46.6503 230.903 46.8627 230.309 47.0539C229.715 47.2451 229.057 47.3301 228.294 47.3301C227.466 47.3301 226.723 47.2239 226.066 46.9902C225.408 46.7565 224.856 46.4379 224.41 45.9917C223.965 45.5669 223.604 45.0358 223.371 44.441C223.137 43.8037 223.031 43.1239 223.031 42.3591ZM228.442 39.9799C227.763 39.9799 227.233 40.1711 226.851 40.5747C226.49 40.9783 226.299 41.5731 226.299 42.3804C226.299 43.1664 226.469 43.7612 226.808 44.1648C227.148 44.5684 227.657 44.7596 228.294 44.7596C228.527 44.7596 228.739 44.7171 228.909 44.6534C229.1 44.5897 229.227 44.5047 229.333 44.4197V40.2136C229.1 40.0436 228.803 39.9799 228.442 39.9799Z" fill="#864241"/>
<path d="M240.091 47.3088C239.349 47.3088 238.648 47.2026 237.991 46.9902C237.354 46.7777 236.781 46.4591 236.314 46.0342C235.847 45.6094 235.466 45.0783 235.19 44.441C234.914 43.8037 234.786 43.0602 234.786 42.2104C234.786 41.3607 234.914 40.6384 235.19 40.0436C235.466 39.4488 235.826 38.939 236.272 38.5566C236.717 38.1742 237.227 37.8768 237.8 37.7069C238.372 37.5157 238.967 37.4307 239.561 37.4307C240.24 37.4307 240.855 37.5369 241.407 37.7281C241.958 37.9405 242.446 38.2167 242.85 38.5778C243.253 38.939 243.571 39.3638 243.783 39.8524C243.995 40.341 244.123 40.8934 244.123 41.4882C244.123 41.913 243.995 42.2529 243.762 42.4866C243.529 42.7203 243.189 42.869 242.744 42.9327L238.033 43.6337C238.182 44.0586 238.457 44.3772 238.882 44.5897C239.306 44.8021 239.815 44.9083 240.367 44.9083C240.898 44.9083 241.386 44.8446 241.852 44.7171C242.319 44.5897 242.701 44.4197 242.998 44.2498C243.21 44.3772 243.38 44.5472 243.507 44.7809C243.656 45.0145 243.72 45.2482 243.72 45.5031C243.72 46.0767 243.444 46.5016 242.913 46.7777C242.51 46.9902 242.043 47.1389 241.534 47.2238C241.025 47.2663 240.537 47.3088 240.091 47.3088ZM239.561 39.7887C239.264 39.7887 238.988 39.8312 238.776 39.9374C238.563 40.0436 238.372 40.1711 238.224 40.3198C238.075 40.4897 237.969 40.6597 237.906 40.8509C237.842 41.0421 237.8 41.2545 237.778 41.4457L241.046 40.9146C241.004 40.6597 240.876 40.4048 240.622 40.1498C240.388 39.9162 240.028 39.7887 239.561 39.7887Z" fill="#864241"/>
<path d="M253.353 35.7737C253.565 35.6463 253.905 35.5188 254.329 35.4126C254.775 35.3064 255.22 35.2426 255.666 35.2426C256.302 35.2426 256.875 35.3276 257.363 35.5188C257.851 35.71 258.17 35.9861 258.318 36.3898C258.552 37.0483 258.785 37.8343 259.061 38.7053C259.337 39.5763 259.591 40.4897 259.867 41.4244C260.143 42.3591 260.398 43.2938 260.652 44.1861C260.907 45.0995 261.119 45.9068 261.331 46.6078C261.183 46.7777 260.949 46.9264 260.652 47.0327C260.355 47.1389 259.973 47.2026 259.57 47.2026C259.273 47.2026 258.997 47.1814 258.806 47.1176C258.594 47.0751 258.424 46.9902 258.297 46.8839C258.17 46.7777 258.064 46.6503 257.979 46.4803C257.894 46.3104 257.83 46.1192 257.767 45.9068L257.427 44.5897H253.968C253.862 44.9721 253.756 45.3757 253.671 45.7793C253.565 46.1829 253.459 46.5865 253.374 46.9689C253.204 47.0327 253.013 47.0964 252.801 47.1389C252.61 47.1814 252.356 47.2026 252.08 47.2026C251.422 47.2026 250.955 47.0964 250.637 46.8627C250.319 46.6503 250.17 46.3316 250.17 45.928C250.17 45.7581 250.191 45.5669 250.255 45.3969C250.297 45.227 250.361 45.0145 250.425 44.7596C250.51 44.4197 250.637 43.9949 250.807 43.485C250.955 42.9752 251.146 42.4229 251.337 41.828C251.528 41.2332 251.74 40.6172 251.953 40.0011C252.165 39.3851 252.377 38.7903 252.568 38.2379C252.759 37.6856 252.929 37.197 253.098 36.7509C253.141 36.326 253.268 35.9861 253.353 35.7737ZM255.645 38.2379C255.475 38.769 255.263 39.3638 255.05 40.0224C254.838 40.6809 254.626 41.3395 254.456 42.0192H256.833C256.663 41.3395 256.472 40.6597 256.281 40.0011C256.09 39.3426 255.92 38.7478 255.772 38.2379H255.645Z" fill="#864241"/>
<path d="M262.625 42.3591C262.625 41.5094 262.753 40.7871 263.007 40.1711C263.262 39.555 263.623 39.0452 264.068 38.6416C264.514 38.2379 265.044 37.9405 265.66 37.7281C266.254 37.5369 266.912 37.4307 267.612 37.4307C267.867 37.4307 268.121 37.4519 268.355 37.4944C268.588 37.5369 268.8 37.6006 268.949 37.6644V34.5628C269.076 34.5204 269.288 34.4779 269.564 34.4354C269.84 34.3929 270.137 34.3717 270.413 34.3717C270.689 34.3717 270.943 34.3929 271.177 34.4354C271.389 34.4779 271.58 34.5416 271.75 34.6691C271.898 34.7753 272.025 34.9452 272.089 35.1364C272.174 35.3276 272.195 35.5825 272.195 35.9012V44.9721C272.195 45.5669 271.919 46.0555 271.346 46.4166C270.986 46.6503 270.498 46.8627 269.904 47.0539C269.309 47.2451 268.652 47.3301 267.888 47.3301C267.06 47.3301 266.318 47.2239 265.66 46.9902C265.002 46.7565 264.45 46.4379 264.005 45.9917C263.559 45.5669 263.198 45.0358 262.965 44.441C262.753 43.8037 262.625 43.1239 262.625 42.3591ZM268.058 39.9799C267.379 39.9799 266.848 40.1711 266.466 40.5747C266.105 40.9783 265.914 41.5731 265.914 42.3804C265.914 43.1664 266.084 43.7612 266.424 44.1648C266.763 44.5684 267.272 44.7596 267.909 44.7596C268.142 44.7596 268.355 44.7171 268.524 44.6534C268.715 44.5897 268.843 44.5047 268.949 44.4197V40.2136C268.715 40.0436 268.418 39.9799 268.058 39.9799Z" fill="#864241"/>
<path d="M279.24 37.4307C279.77 37.4307 280.28 37.4944 280.768 37.6431C281.277 37.7918 281.701 38.0043 282.083 38.3017C282.465 38.0468 282.89 37.8343 283.378 37.6644C283.844 37.4944 284.439 37.4095 285.096 37.4095C285.584 37.4095 286.051 37.4732 286.518 37.6006C286.985 37.7281 287.388 37.9193 287.749 38.1955C288.109 38.4716 288.406 38.8328 288.619 39.2789C288.831 39.725 288.937 40.2773 288.937 40.9358V46.9689C288.81 47.0114 288.619 47.0539 288.343 47.0752C288.067 47.1176 287.791 47.1389 287.494 47.1389C287.218 47.1389 286.964 47.1176 286.73 47.0752C286.497 47.0327 286.327 46.9689 286.157 46.8415C285.988 46.714 285.881 46.5653 285.797 46.3741C285.712 46.1829 285.669 45.928 285.669 45.6094V41.0421C285.669 40.6597 285.563 40.3835 285.351 40.2136C285.139 40.0436 284.842 39.9586 284.481 39.9586C284.311 39.9586 284.12 40.0011 283.908 40.0861C283.696 40.1711 283.547 40.2561 283.441 40.341C283.462 40.3835 283.462 40.4472 283.462 40.4897C283.462 40.5322 283.462 40.5747 283.462 40.6172V46.9902C283.314 47.0327 283.123 47.0752 282.847 47.0964C282.571 47.1389 282.295 47.1601 282.02 47.1601C281.744 47.1601 281.489 47.1389 281.256 47.0964C281.022 47.0539 280.853 46.9902 280.683 46.8627C280.513 46.7353 280.407 46.5866 280.322 46.3954C280.237 46.2042 280.195 45.9493 280.195 45.6306V41.0633C280.195 40.6809 280.067 40.4048 279.834 40.2348C279.601 40.0649 279.325 39.9799 278.985 39.9799C278.752 39.9799 278.561 40.0224 278.391 40.0861C278.221 40.1498 278.094 40.2136 277.967 40.2773V46.9902C277.839 47.0327 277.649 47.0752 277.373 47.0964C277.097 47.1389 276.821 47.1601 276.524 47.1601C276.248 47.1601 275.993 47.1389 275.76 47.0964C275.527 47.0539 275.357 46.9902 275.187 46.8627C275.039 46.7565 274.911 46.5866 274.826 46.3954C274.742 46.2042 274.699 45.9493 274.699 45.6306V39.8524C274.699 39.5125 274.763 39.2364 274.911 39.0239C275.06 38.8115 275.251 38.6203 275.505 38.4504C275.93 38.153 276.481 37.898 277.118 37.7069C277.882 37.5157 278.54 37.4307 279.24 37.4307Z" fill="#864241"/>
<path d="M291.441 35.1364C291.441 34.6478 291.611 34.2442 291.929 33.9043C292.247 33.5644 292.693 33.4157 293.223 33.4157C293.754 33.4157 294.178 33.5857 294.518 33.9043C294.836 34.2442 295.006 34.6478 295.006 35.1364C295.006 35.625 294.836 36.0286 294.518 36.3685C294.199 36.7084 293.754 36.8571 293.223 36.8571C292.693 36.8571 292.268 36.6872 291.929 36.3685C291.611 36.0286 291.441 35.625 291.441 35.1364ZM294.836 46.9902C294.687 47.0114 294.496 47.0539 294.22 47.0964C293.945 47.1389 293.669 47.1601 293.393 47.1601C293.117 47.1601 292.862 47.1389 292.629 47.0964C292.396 47.0539 292.226 46.9902 292.056 46.8627C291.886 46.7353 291.78 46.5866 291.695 46.3954C291.611 46.2042 291.568 45.9493 291.568 45.6306V37.8556C291.717 37.8343 291.908 37.7918 292.183 37.7493C292.459 37.7069 292.735 37.6856 293.011 37.6856C293.287 37.6856 293.541 37.7069 293.775 37.7493C293.987 37.7918 294.178 37.8556 294.348 37.983C294.518 38.1105 294.624 38.2592 294.708 38.4504C294.793 38.6416 294.836 38.8965 294.836 39.2151V46.9902Z" fill="#864241"/>
<path d="M303.366 41.127C303.366 40.7234 303.26 40.4472 303.026 40.2561C302.793 40.0649 302.496 39.9799 302.114 39.9799C301.859 39.9799 301.605 40.0224 301.35 40.0861C301.095 40.1498 300.883 40.2561 300.713 40.3623V46.9902C300.586 47.0327 300.395 47.0751 300.119 47.0964C299.843 47.1389 299.568 47.1601 299.27 47.1601C298.995 47.1601 298.74 47.1389 298.507 47.0964C298.273 47.0539 298.103 46.9902 297.934 46.8627C297.785 46.7565 297.658 46.5865 297.573 46.3954C297.488 46.2042 297.446 45.9493 297.446 45.6306V39.8949C297.446 39.555 297.509 39.2789 297.658 39.0452C297.806 38.8328 297.997 38.6416 298.252 38.4504C298.676 38.153 299.228 37.898 299.886 37.7069C300.544 37.5157 301.265 37.4307 302.071 37.4307C303.514 37.4307 304.618 37.7493 305.403 38.3866C306.188 39.0239 306.57 39.8949 306.57 41.0208V47.0114C306.442 47.0539 306.252 47.0964 305.976 47.1176C305.7 47.1601 305.424 47.1814 305.127 47.1814C304.851 47.1814 304.596 47.1601 304.363 47.1176C304.151 47.0751 303.96 47.0114 303.79 46.884C303.642 46.7777 303.514 46.6078 303.429 46.4166C303.345 46.2254 303.302 45.9705 303.302 45.6518V41.127H303.366Z" fill="#864241"/>
<path d="M309.116 35.1364C309.116 34.6478 309.286 34.2442 309.604 33.9043C309.922 33.5644 310.368 33.4157 310.898 33.4157C311.429 33.4157 311.853 33.5857 312.193 33.9043C312.511 34.2442 312.681 34.6478 312.681 35.1364C312.681 35.625 312.511 36.0286 312.193 36.3685C311.874 36.7084 311.429 36.8571 310.898 36.8571C310.368 36.8571 309.944 36.6872 309.604 36.3685C309.265 36.0286 309.116 35.625 309.116 35.1364ZM312.511 46.9902C312.363 47.0114 312.172 47.0539 311.896 47.0964C311.62 47.1389 311.344 47.1601 311.068 47.1601C310.792 47.1601 310.538 47.1389 310.304 47.0964C310.071 47.0539 309.901 46.9902 309.731 46.8627C309.562 46.7353 309.456 46.5866 309.371 46.3954C309.286 46.2042 309.243 45.9493 309.243 45.6306V37.8556C309.392 37.8343 309.583 37.7918 309.859 37.7493C310.135 37.7069 310.41 37.6856 310.686 37.6856C310.962 37.6856 311.217 37.7069 311.45 37.7493C311.662 37.7918 311.853 37.8556 312.023 37.983C312.193 38.1105 312.299 38.2592 312.384 38.4504C312.469 38.6416 312.511 38.8965 312.511 39.2151V46.9902Z" fill="#864241"/>
<path d="M322.972 44.2285C322.972 45.2057 322.611 45.9493 321.89 46.5016C321.168 47.0539 320.086 47.3301 318.686 47.3301C318.155 47.3301 317.646 47.2876 317.2 47.2239C316.734 47.1389 316.352 47.0327 316.033 46.8627C315.715 46.6928 315.46 46.5016 315.269 46.2679C315.078 46.0342 314.994 45.7368 314.994 45.4182C314.994 45.1208 315.057 44.8446 315.185 44.6534C315.312 44.4622 315.46 44.271 315.651 44.1223C316.012 44.3348 316.436 44.5047 316.925 44.6747C317.391 44.8446 317.943 44.9083 318.58 44.9083C318.983 44.9083 319.28 44.8446 319.492 44.7384C319.704 44.6322 319.81 44.4622 319.81 44.271C319.81 44.1011 319.725 43.9524 319.577 43.8462C319.428 43.74 319.174 43.655 318.813 43.5912L318.24 43.485C317.137 43.2726 316.309 42.9327 315.757 42.4654C315.206 41.998 314.951 41.3395 314.951 40.4685C314.951 40.0011 315.057 39.5763 315.248 39.1939C315.46 38.8115 315.736 38.4929 316.097 38.2379C316.458 37.983 316.903 37.7918 317.434 37.6431C317.943 37.4944 318.516 37.4307 319.152 37.4307C319.619 37.4307 320.065 37.4732 320.489 37.5369C320.892 37.6006 321.253 37.7069 321.571 37.8556C321.869 38.0043 322.123 38.1742 322.293 38.4079C322.463 38.6203 322.569 38.8965 322.569 39.1939C322.569 39.4913 322.505 39.7462 322.399 39.9586C322.293 40.1711 322.144 40.341 321.996 40.4897C321.89 40.426 321.741 40.3623 321.529 40.2985C321.317 40.2348 321.105 40.1711 320.871 40.1074C320.638 40.0436 320.383 40.0011 320.129 39.9586C319.874 39.9162 319.662 39.8949 319.45 39.8949C319.025 39.8949 318.707 39.9374 318.474 40.0436C318.24 40.1498 318.134 40.2985 318.134 40.4897C318.134 40.6384 318.198 40.7446 318.325 40.8296C318.452 40.9146 318.686 40.9996 319.046 41.0845L319.641 41.212C320.871 41.4882 321.741 41.8705 322.25 42.3591C322.717 42.8265 322.972 43.4638 322.972 44.2285Z" fill="#864241"/>
<path d="M328.361 43.8037C328.361 44.1436 328.468 44.3772 328.68 44.5047C328.892 44.6534 329.189 44.7171 329.571 44.7171C329.762 44.7171 329.953 44.6959 330.165 44.6747C330.377 44.6534 330.547 44.6109 330.696 44.5472C330.802 44.6959 330.908 44.8446 330.993 45.0145C331.077 45.1845 331.12 45.3969 331.12 45.6306C331.12 46.1192 330.929 46.5016 330.568 46.8202C330.208 47.1176 329.571 47.2876 328.659 47.2876C327.534 47.2876 326.685 47.0327 326.07 46.5228C325.455 46.013 325.157 45.1845 325.157 44.0374V35.8587C325.306 35.8162 325.497 35.7737 325.752 35.7312C326.006 35.6887 326.282 35.6675 326.579 35.6675C327.131 35.6675 327.576 35.7737 327.895 35.9649C328.213 36.1561 328.361 36.581 328.361 37.2183V38.4504H330.865C330.95 38.5991 331.014 38.769 331.077 38.9815C331.141 39.1939 331.184 39.4276 331.184 39.6825C331.184 40.1286 331.077 40.4472 330.887 40.6384C330.696 40.8296 330.42 40.9358 330.101 40.9358H328.361V43.8037Z" fill="#864241"/>
<path d="M336.573 46.9902C336.446 47.0327 336.255 47.0751 335.979 47.0964C335.703 47.1389 335.427 47.1601 335.13 47.1601C334.855 47.1601 334.6 47.1389 334.366 47.0964C334.133 47.0539 333.963 46.9902 333.794 46.8627C333.645 46.7565 333.518 46.5865 333.433 46.3954C333.348 46.2042 333.306 45.9493 333.306 45.6306V39.8949C333.306 39.5975 333.369 39.3426 333.475 39.1302C333.581 38.9177 333.73 38.7265 333.942 38.5566C334.154 38.3866 334.388 38.2379 334.706 38.1105C335.003 37.983 335.321 37.8556 335.661 37.7493C336 37.6431 336.361 37.5582 336.722 37.5157C337.082 37.4519 337.464 37.4307 337.825 37.4307C338.44 37.4307 338.929 37.5582 339.268 37.7918C339.629 38.0255 339.798 38.4079 339.798 38.939C339.798 39.1089 339.777 39.3001 339.714 39.4701C339.671 39.64 339.608 39.7887 339.523 39.9374C339.247 39.9374 338.971 39.9586 338.695 39.9799C338.419 40.0011 338.143 40.0436 337.868 40.0861C337.592 40.1286 337.358 40.1923 337.104 40.2561C336.87 40.3198 336.658 40.3835 336.51 40.4472V46.9902H336.573Z" fill="#864241"/>
<path d="M345.273 37.4307C345.952 37.4307 346.588 37.4944 347.161 37.6431C347.734 37.7918 348.222 38.0043 348.604 38.2804C349.007 38.5566 349.305 38.939 349.538 39.3638C349.75 39.8099 349.856 40.3198 349.856 40.9146V45.2057C349.856 45.5456 349.771 45.8005 349.58 46.013C349.389 46.2254 349.177 46.3954 348.923 46.5653C348.095 47.0539 346.928 47.3088 345.421 47.3088C344.742 47.3088 344.148 47.2451 343.597 47.1176C343.045 46.9902 342.599 46.799 342.196 46.5441C341.814 46.2891 341.517 45.9705 341.305 45.5669C341.093 45.1632 340.987 44.7171 340.987 44.1861C340.987 43.3151 341.241 42.6353 341.772 42.1679C342.302 41.7006 343.109 41.4032 344.191 41.297L346.695 41.0208V40.8933C346.695 40.5322 346.525 40.2561 346.207 40.1073C345.888 39.9586 345.421 39.8737 344.806 39.8737C344.318 39.8737 343.851 39.9162 343.384 40.0224C342.918 40.1286 342.514 40.2561 342.133 40.4048C341.963 40.2985 341.835 40.1073 341.708 39.8737C341.602 39.64 341.538 39.3851 341.538 39.1302C341.538 38.7903 341.623 38.5353 341.772 38.3442C341.942 38.153 342.175 37.983 342.514 37.8343C342.875 37.6856 343.321 37.6006 343.83 37.5369C344.361 37.4519 344.827 37.4307 345.273 37.4307ZM345.443 44.9508C345.655 44.9508 345.888 44.9296 346.164 44.8871C346.419 44.8446 346.61 44.7809 346.737 44.6959V43.1664L345.358 43.2726C344.997 43.2938 344.7 43.3788 344.488 43.5063C344.254 43.6337 344.148 43.8249 344.148 44.0798C344.148 44.3348 344.254 44.5472 344.445 44.6959C344.636 44.8658 344.955 44.9508 345.443 44.9508Z" fill="#864241"/>
<path d="M355.84 47.1389C355.246 47.0114 354.715 46.799 354.249 46.5228C353.782 46.2467 353.379 45.9068 353.039 45.4819C352.7 45.0783 352.445 44.6109 352.275 44.1011C352.105 43.5913 351.999 43.0177 351.999 42.4016C351.999 41.5519 352.127 40.8296 352.403 40.1923C352.678 39.555 353.039 39.0452 353.527 38.6416C353.994 38.2379 354.546 37.9193 355.161 37.7281C355.776 37.5157 356.434 37.4307 357.113 37.4307C358.026 37.4307 358.726 37.6006 359.235 37.9193C359.723 38.2592 359.978 38.684 359.978 39.1939C359.978 39.4276 359.914 39.6612 359.808 39.8737C359.702 40.0861 359.553 40.2561 359.405 40.426C359.193 40.3198 358.938 40.2348 358.62 40.1286C358.323 40.0436 357.983 39.9799 357.622 39.9799C357.304 39.9799 357.007 40.0224 356.71 40.1286C356.413 40.2348 356.179 40.3835 355.967 40.5747C355.755 40.7659 355.585 41.0208 355.458 41.3182C355.331 41.6156 355.267 41.9555 355.267 42.3591C355.267 43.1451 355.5 43.74 355.946 44.1436C356.392 44.5472 356.943 44.7384 357.601 44.7384C357.983 44.7384 358.323 44.6959 358.598 44.6109C358.874 44.526 359.129 44.4197 359.341 44.3135C359.596 44.4835 359.787 44.6959 359.914 44.8871C360.041 45.0995 360.105 45.3544 360.105 45.6519C360.105 46.0555 359.956 46.3741 359.659 46.6503C359.362 46.9265 358.938 47.0964 358.386 47.2026C358.492 47.3726 358.556 47.6062 358.62 47.9036C358.662 48.201 358.705 48.456 358.705 48.6684C358.705 49.3269 358.492 49.858 358.089 50.2829C357.686 50.7078 357.113 50.9202 356.392 50.9202C355.861 50.9202 355.437 50.7927 355.119 50.5378C354.779 50.2829 354.631 49.9005 354.631 49.4119C354.631 49.1995 354.652 49.0083 354.715 48.8383C355.119 48.8171 355.437 48.7109 355.67 48.5409C355.904 48.371 356.01 48.1373 356.01 47.8399C356.01 47.7125 355.989 47.585 355.967 47.4575C355.925 47.3513 355.882 47.2451 355.84 47.1389Z" fill="#864241"/>
<path d="M366.258 37.4307C366.937 37.4307 367.574 37.4944 368.147 37.6431C368.72 37.7918 369.208 38.0043 369.59 38.2804C369.993 38.5566 370.29 38.939 370.523 39.3638C370.736 39.8099 370.842 40.3198 370.842 40.9146V45.2057C370.842 45.5456 370.757 45.8005 370.566 46.013C370.375 46.2254 370.163 46.3954 369.908 46.5653C369.08 47.0539 367.913 47.3088 366.407 47.3088C365.728 47.3088 365.134 47.2451 364.582 47.1176C364.03 46.9902 363.585 46.799 363.182 46.5441C362.8 46.2891 362.503 45.9705 362.29 45.5669C362.078 45.1632 361.972 44.7171 361.972 44.1861C361.972 43.3151 362.227 42.6353 362.757 42.1679C363.288 41.7006 364.094 41.4032 365.176 41.297L367.68 41.0208V40.8933C367.68 40.5322 367.51 40.256 367.192 40.1073C366.874 39.9586 366.407 39.8737 365.792 39.8737C365.304 39.8737 364.837 39.9162 364.37 40.0224C363.903 40.1286 363.5 40.256 363.118 40.4048C362.948 40.2985 362.821 40.1073 362.694 39.8737C362.588 39.64 362.524 39.3851 362.524 39.1302C362.524 38.7903 362.609 38.5353 362.757 38.3442C362.927 38.153 363.16 37.983 363.5 37.8343C363.861 37.6856 364.306 37.6006 364.815 37.5369C365.325 37.4519 365.813 37.4307 366.258 37.4307ZM366.662 33.6706C366.895 33.7344 367.086 33.7768 367.234 33.8193C367.383 33.8618 367.51 33.8831 367.616 33.8831C367.892 33.8831 368.104 33.7981 368.274 33.6281C368.423 33.4582 368.529 33.3307 368.592 33.2033C369.038 33.2033 369.42 33.352 369.717 33.6281C370.014 33.9255 370.163 34.2867 370.163 34.7328C370.163 35.3064 369.993 35.7312 369.632 35.9861C369.271 36.2623 368.826 36.3898 368.295 36.3898C368.126 36.3898 367.935 36.3898 367.765 36.3685C367.595 36.3473 367.383 36.3048 367.171 36.2411L366.407 36.0074C366.237 35.9649 366.089 35.9224 365.961 35.8799C365.834 35.8587 365.728 35.8374 365.601 35.8374C365.325 35.8374 365.113 35.9224 364.964 36.0711C364.815 36.2411 364.709 36.3685 364.625 36.496C364.179 36.496 363.797 36.3473 363.5 36.0711C363.203 35.7737 363.054 35.4126 363.054 34.9665C363.054 34.6903 363.118 34.4354 363.224 34.223C363.33 34.0105 363.479 33.8406 363.648 33.6919C363.818 33.5432 364.03 33.4582 364.243 33.3945C364.455 33.3307 364.688 33.3095 364.922 33.3095C365.091 33.3095 365.282 33.3307 365.516 33.3732C365.77 33.437 366.152 33.5219 366.662 33.6706ZM366.407 44.9508C366.619 44.9508 366.852 44.9296 367.128 44.8871C367.383 44.8446 367.574 44.7809 367.701 44.6959V43.1664L366.322 43.2726C365.961 43.2938 365.664 43.3788 365.452 43.5063C365.219 43.6337 365.113 43.8249 365.113 44.0798C365.113 44.3348 365.219 44.5472 365.41 44.6959C365.601 44.8658 365.94 44.9508 366.407 44.9508Z" fill="#864241"/>
<path d="M383 42.3591C383 43.1451 382.873 43.8462 382.639 44.4622C382.406 45.0783 382.066 45.6094 381.621 46.013C381.175 46.4378 380.666 46.7565 380.051 46.9689C379.435 47.1814 378.756 47.2876 378.014 47.2876C377.271 47.2876 376.571 47.1814 375.977 46.9477C375.383 46.714 374.831 46.3954 374.406 45.9705C373.961 45.5456 373.621 45.0145 373.388 44.4197C373.155 43.8037 373.027 43.1239 373.027 42.3591C373.027 41.6156 373.155 40.9146 373.388 40.3198C373.621 39.7037 373.961 39.1939 374.406 38.769C374.852 38.3442 375.361 38.0043 375.977 37.7918C376.592 37.5794 377.271 37.4519 378.014 37.4519C378.756 37.4519 379.457 37.5794 380.051 37.8131C380.666 38.0467 381.196 38.3866 381.621 38.8115C382.066 39.2364 382.406 39.7675 382.639 40.3623C382.873 40.9358 383 41.6156 383 42.3591ZM376.316 42.3591C376.316 43.1451 376.465 43.7399 376.762 44.1436C377.059 44.5684 377.483 44.7596 378.014 44.7596C378.544 44.7596 378.968 44.5472 379.244 44.1223C379.541 43.6975 379.669 43.1026 379.669 42.3379C379.669 41.5731 379.52 40.9783 379.223 40.5747C378.926 40.1711 378.523 39.9586 377.992 39.9586C377.462 39.9586 377.038 40.1711 376.741 40.5747C376.465 40.9996 376.316 41.5944 376.316 42.3591Z" fill="#864241"/>
<path d="M153.54 58.3553C153.624 58.504 153.709 58.674 153.773 58.9289C153.837 59.1626 153.879 59.4175 153.879 59.6724C153.879 60.161 153.773 60.5221 153.561 60.7346C153.349 60.947 153.073 61.0532 152.712 61.0532H148.702V63.22H152.882C152.988 63.3687 153.073 63.5387 153.136 63.7724C153.2 64.006 153.242 64.2397 153.242 64.4946C153.242 64.9832 153.136 65.3231 152.924 65.5356C152.712 65.748 152.436 65.8542 152.075 65.8542H148.723V69.8904C148.574 69.9329 148.362 69.9754 148.065 69.9967C147.768 70.0391 147.471 70.0604 147.174 70.0604C146.877 70.0604 146.622 70.0391 146.41 69.9967C146.177 69.9542 146.007 69.8692 145.837 69.763C145.667 69.6568 145.561 69.4868 145.498 69.2956C145.413 69.0832 145.391 68.8283 145.391 68.4884V60.161C145.391 59.6087 145.561 59.1838 145.858 58.8652C146.177 58.5465 146.601 58.3978 147.153 58.3978H153.54V58.3553Z" fill="#864241"/>
<path d="M155.64 58.0792C155.64 57.5906 155.81 57.187 156.128 56.8471C156.447 56.5072 156.892 56.3585 157.423 56.3585C157.953 56.3585 158.377 56.5284 158.717 56.8471C159.035 57.187 159.205 57.5906 159.205 58.0792C159.205 58.5678 159.035 58.9714 158.717 59.3113C158.399 59.6512 157.953 59.7999 157.423 59.7999C156.892 59.7999 156.468 59.6299 156.128 59.3113C155.81 58.9714 155.64 58.5678 155.64 58.0792ZM159.056 69.9329C158.908 69.9542 158.717 69.9967 158.441 70.0392C158.165 70.0816 157.889 70.1029 157.614 70.1029C157.338 70.1029 157.083 70.0816 156.85 70.0392C156.638 69.9967 156.447 69.9329 156.277 69.8055C156.128 69.6993 156.001 69.5293 155.916 69.3381C155.831 69.1469 155.789 68.892 155.789 68.5734V60.7983C155.937 60.7771 156.128 60.7346 156.404 60.6921C156.68 60.6496 156.956 60.6284 157.232 60.6284C157.508 60.6284 157.762 60.6496 157.996 60.6921C158.208 60.7346 158.399 60.7983 158.568 60.9258C158.738 61.0532 158.844 61.2019 158.929 61.3931C159.014 61.5843 159.056 61.8392 159.056 62.1579V69.9329Z" fill="#864241"/>
<path d="M167.565 64.0698C167.565 63.6662 167.459 63.39 167.226 63.1988C166.992 63.0076 166.695 62.9226 166.313 62.9226C166.059 62.9226 165.804 62.9651 165.549 63.0289C165.295 63.0926 165.083 63.1988 164.913 63.305V69.9329C164.786 69.9754 164.595 70.0179 164.319 70.0391C164.043 70.0816 163.767 70.1029 163.47 70.1029C163.194 70.1029 162.939 70.0816 162.706 70.0391C162.494 69.9966 162.303 69.9329 162.133 69.8055C161.985 69.6992 161.857 69.5293 161.772 69.3381C161.688 69.1469 161.645 68.892 161.645 68.5733V62.8377C161.645 62.4978 161.709 62.2216 161.857 61.9879C162.006 61.7755 162.197 61.5843 162.451 61.3931C162.876 61.0957 163.428 60.8408 164.085 60.6496C164.743 60.4584 165.465 60.3734 166.271 60.3734C167.714 60.3734 168.817 60.6921 169.602 61.3294C170.387 61.9667 170.769 62.8377 170.769 63.9636V69.9542C170.642 69.9966 170.451 70.0391 170.175 70.0604C169.899 70.1029 169.623 70.1241 169.326 70.1241C169.051 70.1241 168.796 70.1029 168.562 70.0604C168.329 70.0179 168.159 69.9542 167.99 69.8267C167.82 69.6992 167.714 69.5505 167.629 69.3593C167.544 69.1682 167.502 68.9132 167.502 68.5946V64.0698H167.565Z" fill="#864241"/>
<path d="M177.22 60.3734C177.899 60.3734 178.535 60.4372 179.108 60.5859C179.681 60.7346 180.169 60.947 180.551 61.2232C180.954 61.4993 181.251 61.8817 181.485 62.3066C181.697 62.7527 181.803 63.2625 181.803 63.8573V68.1485C181.803 68.4884 181.718 68.7433 181.527 68.9557C181.336 69.1682 181.124 69.3381 180.869 69.5081C180.042 69.9967 178.875 70.2516 177.368 70.2516C176.689 70.2516 176.095 70.1878 175.544 70.0604C174.992 69.9329 174.546 69.7417 174.143 69.4868C173.761 69.2319 173.464 68.9132 173.252 68.5096C173.04 68.106 172.934 67.6599 172.934 67.1288C172.934 66.2578 173.188 65.578 173.719 65.1107C174.249 64.6433 175.055 64.3459 176.138 64.2397L178.641 63.9636V63.8361C178.641 63.475 178.472 63.1988 178.153 63.0501C177.835 62.9014 177.368 62.8164 176.753 62.8164C176.265 62.8164 175.798 62.8589 175.331 62.9651C174.865 63.0713 174.461 63.1988 174.079 63.3475C173.91 63.2413 173.782 63.0501 173.655 62.8164C173.549 62.5827 173.485 62.3278 173.485 62.0729C173.485 61.733 173.57 61.4781 173.719 61.2869C173.888 61.0957 174.122 60.9258 174.461 60.7771C174.822 60.6284 175.268 60.5434 175.777 60.4797C176.286 60.3947 176.774 60.3734 177.22 60.3734ZM177.368 67.8936C177.581 67.8936 177.814 67.8723 178.09 67.8298C178.344 67.7873 178.535 67.7236 178.663 67.6386V66.1091L177.283 66.2153C176.923 66.2366 176.626 66.3216 176.413 66.449C176.18 66.5765 176.074 66.7677 176.074 67.0226C176.074 67.2775 176.18 67.4899 176.371 67.6386C176.562 67.8086 176.902 67.8936 177.368 67.8936Z" fill="#864241"/>
<path d="M190.227 64.0698C190.227 63.6662 190.121 63.39 189.887 63.1988C189.654 63.0076 189.357 62.9226 188.975 62.9226C188.72 62.9226 188.466 62.9651 188.211 63.0289C187.957 63.0926 187.744 63.1988 187.575 63.305V69.9329C187.447 69.9754 187.256 70.0179 186.98 70.0391C186.705 70.0816 186.429 70.1029 186.132 70.1029C185.856 70.1029 185.601 70.0816 185.368 70.0391C185.134 69.9966 184.965 69.9329 184.795 69.8055C184.646 69.6992 184.519 69.5293 184.434 69.3381C184.349 69.1469 184.307 68.892 184.307 68.5733V62.8377C184.307 62.4978 184.371 62.2216 184.519 61.9879C184.668 61.7755 184.859 61.5843 185.113 61.3931C185.538 61.0957 186.089 60.8408 186.747 60.6496C187.405 60.4584 188.126 60.3734 188.933 60.3734C190.375 60.3734 191.479 60.6921 192.264 61.3294C193.049 61.9667 193.431 62.8377 193.431 63.9636V69.9542C193.304 69.9966 193.113 70.0391 192.837 70.0604C192.561 70.1029 192.285 70.1241 191.988 70.1241C191.712 70.1241 191.458 70.1029 191.224 70.0604C191.012 70.0179 190.821 69.9542 190.651 69.8267C190.503 69.7205 190.375 69.5505 190.291 69.3593C190.206 69.1682 190.163 68.9132 190.163 68.5946V64.0698H190.227Z" fill="#864241"/>
<path d="M199.478 70.0816C198.884 69.9542 198.354 69.7417 197.887 69.4656C197.42 69.1894 197.017 68.8495 196.677 68.4247C196.338 68.021 196.083 67.5537 195.914 67.0438C195.744 66.534 195.638 65.9604 195.638 65.3444C195.638 64.4946 195.765 63.7724 196.041 63.1351C196.317 62.4978 196.677 61.9879 197.165 61.5843C197.632 61.1807 198.184 60.862 198.799 60.6708C199.415 60.4584 200.072 60.3734 200.751 60.3734C201.664 60.3734 202.364 60.5434 202.873 60.862C203.361 61.2019 203.616 61.6268 203.616 62.1366C203.616 62.3703 203.552 62.604 203.446 62.8164C203.34 63.0289 203.192 63.1988 203.043 63.3687C202.831 63.2625 202.576 63.1776 202.258 63.0713C201.961 62.9864 201.621 62.9226 201.261 62.9226C200.942 62.9226 200.645 62.9651 200.348 63.0713C200.051 63.1776 199.818 63.3263 199.606 63.5174C199.393 63.7086 199.224 63.9636 199.096 64.261C198.969 64.5584 198.905 64.8983 198.905 65.3019C198.905 66.0879 199.139 66.6827 199.584 67.0863C200.03 67.4899 200.582 67.6811 201.24 67.6811C201.621 67.6811 201.961 67.6386 202.237 67.5537C202.513 67.4687 202.767 67.3625 202.979 67.2563C203.234 67.4262 203.425 67.6386 203.552 67.8298C203.68 68.0423 203.743 68.2972 203.743 68.5946C203.743 68.9982 203.595 69.3169 203.298 69.593C203.001 69.8692 202.576 70.0391 202.025 70.1454C202.131 70.3153 202.194 70.549 202.258 70.8464C202.3 71.1438 202.343 71.3987 202.343 71.6111C202.343 72.2697 202.131 72.8008 201.728 73.2256C201.324 73.6505 200.751 73.8629 200.03 73.8629C199.5 73.8629 199.075 73.7355 198.757 73.4806C198.417 73.2256 198.269 72.8433 198.269 72.3547C198.269 72.1422 198.29 71.951 198.354 71.7811C198.757 71.7598 199.075 71.6536 199.309 71.4837C199.542 71.3137 199.648 71.0801 199.648 70.7827C199.648 70.6552 199.627 70.5277 199.606 70.4003C199.563 70.2941 199.521 70.1878 199.478 70.0816Z" fill="#864241"/>
<path d="M209.876 60.3734C210.555 60.3734 211.191 60.4372 211.764 60.5859C212.337 60.7346 212.825 60.947 213.207 61.2232C213.61 61.4993 213.907 61.8817 214.141 62.3066C214.353 62.7527 214.459 63.2625 214.459 63.8573V68.1485C214.459 68.4884 214.374 68.7433 214.183 68.9557C213.992 69.1682 213.78 69.3381 213.525 69.5081C212.698 69.9967 211.531 70.2516 210.024 70.2516C209.345 70.2516 208.751 70.1878 208.199 70.0604C207.648 69.9329 207.202 69.7417 206.799 69.4868C206.417 69.2319 206.12 68.9132 205.908 68.5096C205.695 68.106 205.589 67.6599 205.589 67.1288C205.589 66.2578 205.844 65.578 206.374 65.1107C206.905 64.6433 207.711 64.3459 208.793 64.2397L211.297 63.9636V63.8361C211.297 63.475 211.128 63.1988 210.809 63.0501C210.491 62.9014 210.024 62.8164 209.409 62.8164C208.921 62.8164 208.454 62.8589 207.987 62.9651C207.52 63.0713 207.117 63.1988 206.735 63.3475C206.565 63.2413 206.438 63.0501 206.311 62.8164C206.205 62.5827 206.141 62.3278 206.141 62.0729C206.141 61.733 206.226 61.4781 206.374 61.2869C206.544 61.0957 206.778 60.9258 207.117 60.7771C207.478 60.6284 207.923 60.5434 208.433 60.4797C208.963 60.3947 209.43 60.3734 209.876 60.3734ZM210.045 67.8936C210.258 67.8936 210.491 67.8723 210.767 67.8298C211.021 67.7873 211.212 67.7236 211.34 67.6386V66.1091L209.96 66.2153C209.6 66.2366 209.303 66.3216 209.09 66.449C208.857 66.5765 208.751 66.7677 208.751 67.0226C208.751 67.2775 208.857 67.4899 209.048 67.6386C209.239 67.8086 209.557 67.8936 210.045 67.8936Z" fill="#864241"/>
<path d="M224.856 67.1713C224.856 68.1485 224.495 68.892 223.774 69.4443C223.052 69.9967 221.97 70.2728 220.57 70.2728C220.039 70.2728 219.53 70.2303 219.085 70.1666C218.618 70.0816 218.236 69.9754 217.917 69.8055C217.599 69.6355 217.345 69.4443 217.154 69.2106C216.963 68.977 216.878 68.6796 216.878 68.3609C216.878 68.0635 216.941 67.7874 217.069 67.5962C217.196 67.405 217.345 67.2138 217.536 67.0651C217.896 67.2775 218.321 67.4475 218.809 67.6174C219.275 67.7873 219.827 67.8511 220.464 67.8511C220.867 67.8511 221.164 67.7874 221.376 67.6811C221.588 67.5749 221.694 67.405 221.694 67.2138C221.694 67.0438 221.61 66.8951 221.461 66.7889C221.312 66.6827 221.058 66.5977 220.697 66.534L220.124 66.4278C219.021 66.2153 218.193 65.8755 217.642 65.4081C217.09 64.9407 216.835 64.2822 216.835 63.4112C216.835 62.9439 216.941 62.519 217.132 62.1366C217.345 61.7543 217.62 61.4356 217.981 61.1807C218.342 60.9258 218.787 60.7346 219.318 60.5859C219.827 60.4372 220.4 60.3734 221.037 60.3734C221.503 60.3734 221.949 60.4159 222.373 60.4797C222.777 60.5434 223.137 60.6496 223.456 60.7983C223.753 60.947 224.007 61.117 224.177 61.3506C224.347 61.5631 224.453 61.8392 224.453 62.1366C224.453 62.434 224.389 62.689 224.283 62.9014C224.177 63.1138 224.029 63.2838 223.88 63.4325C223.774 63.3687 223.625 63.305 223.413 63.2413C223.201 63.1776 222.989 63.1138 222.755 63.0501C222.522 62.9864 222.267 62.9439 222.013 62.9014C221.758 62.8589 221.546 62.8377 221.334 62.8377C220.909 62.8377 220.591 62.8801 220.358 62.9864C220.124 63.0926 220.018 63.2413 220.018 63.4325C220.018 63.5812 220.082 63.6874 220.209 63.7724C220.336 63.8573 220.57 63.9423 220.931 64.0273L221.525 64.1547C222.755 64.4309 223.625 64.8133 224.135 65.3019C224.601 65.7692 224.856 66.4065 224.856 67.1713Z" fill="#864241"/>
<path d="M236.293 70.2516C235.55 70.2516 234.85 70.1454 234.192 69.9329C233.556 69.7205 232.983 69.4018 232.516 68.977C232.049 68.5521 231.667 68.021 231.391 67.3837C231.116 66.7464 230.988 66.0029 230.988 65.1532C230.988 64.3035 231.116 63.5812 231.391 62.9864C231.667 62.3916 232.028 61.8817 232.474 61.4993C232.919 61.117 233.428 60.8196 234.001 60.6496C234.574 60.4584 235.168 60.3734 235.763 60.3734C236.442 60.3734 237.057 60.4797 237.609 60.6708C238.16 60.8833 238.648 61.1594 239.051 61.5206C239.455 61.8817 239.773 62.3066 239.985 62.7952C240.197 63.2838 240.325 63.8361 240.325 64.4309C240.325 64.8558 240.197 65.1957 239.964 65.4293C239.73 65.663 239.391 65.8117 238.945 65.8755L234.235 66.5765C234.383 67.0013 234.659 67.32 235.084 67.5324C235.508 67.7449 236.017 67.8511 236.569 67.8511C237.099 67.8511 237.587 67.7873 238.054 67.6599C238.521 67.5324 238.903 67.3625 239.2 67.1925C239.412 67.32 239.582 67.4899 239.709 67.7236C239.858 67.9573 239.921 68.191 239.921 68.4459C239.921 69.0195 239.646 69.4443 239.115 69.7205C238.712 69.9329 238.245 70.0816 237.736 70.1666C237.227 70.2091 236.739 70.2516 236.293 70.2516ZM235.763 62.7314C235.465 62.7314 235.19 62.7739 234.977 62.8801C234.765 62.9864 234.574 63.1138 234.426 63.2625C234.277 63.4325 234.171 63.6024 234.107 63.7936C234.044 63.9848 234.001 64.1972 233.98 64.3884L237.248 63.8573C237.205 63.6024 237.078 63.3475 236.823 63.0926C236.59 62.8589 236.229 62.7314 235.763 62.7314Z" fill="#864241"/>
<path d="M250.425 69.8692C250.276 69.9117 250.064 69.9542 249.767 69.9754C249.47 70.0179 249.173 70.0391 248.876 70.0391C248.579 70.0391 248.324 70.0179 248.112 69.9754C247.878 69.9329 247.709 69.848 247.539 69.7417C247.39 69.6355 247.263 69.4656 247.199 69.2744C247.115 69.062 247.093 68.807 247.093 68.4671V58.3766C247.242 58.3553 247.454 58.3128 247.772 58.2704C248.069 58.2279 248.367 58.2066 248.642 58.2066C248.939 58.2066 249.194 58.2279 249.406 58.2704C249.618 58.3128 249.809 58.3978 249.979 58.504C250.128 58.6103 250.255 58.7802 250.319 58.9714C250.404 59.1838 250.425 59.4387 250.425 59.7786V69.8692Z" fill="#864241"/>
<path d="M259.124 64.0698C259.124 63.6662 259.018 63.39 258.785 63.1988C258.552 63.0076 258.255 62.9226 257.873 62.9226C257.618 62.9226 257.363 62.9651 257.109 63.0289C256.854 63.0926 256.642 63.1988 256.472 63.305V69.9329C256.345 69.9754 256.154 70.0179 255.878 70.0391C255.602 70.0816 255.326 70.1029 255.029 70.1029C254.753 70.1029 254.499 70.0816 254.265 70.0391C254.032 69.9966 253.862 69.9329 253.692 69.8055C253.544 69.6992 253.417 69.5293 253.332 69.3381C253.247 69.1469 253.204 68.892 253.204 68.5733V62.8377C253.204 62.4978 253.268 62.2216 253.417 61.9879C253.565 61.7755 253.756 61.5843 254.011 61.3931C254.435 61.0957 254.987 60.8408 255.645 60.6496C256.302 60.4584 257.024 60.3734 257.83 60.3734C259.273 60.3734 260.376 60.6921 261.162 61.3294C261.947 61.9667 262.329 62.8377 262.329 63.9636V69.9542C262.201 69.9966 262.01 70.0391 261.734 70.0604C261.459 70.1029 261.183 70.1241 260.886 70.1241C260.61 70.1241 260.355 70.1029 260.122 70.0604C259.91 70.0179 259.719 69.9542 259.549 69.8267C259.4 69.7205 259.273 69.5505 259.188 69.3593C259.103 69.1682 259.061 68.9132 259.061 68.5946V64.0698H259.124Z" fill="#864241"/>
<path d="M264.981 60.6496C264.981 59.9911 265.087 59.4387 265.32 58.9714C265.533 58.504 265.851 58.1217 266.233 57.8243C266.615 57.5268 267.06 57.3144 267.57 57.1657C268.079 57.017 268.631 56.9533 269.225 56.9533C270.158 56.9533 270.859 57.0807 271.304 57.3357C271.75 57.5906 271.962 58.0154 271.962 58.6103C271.962 58.8652 271.898 59.0989 271.792 59.29C271.686 59.5025 271.559 59.6512 271.431 59.7574C271.198 59.6937 270.943 59.6299 270.668 59.5874C270.413 59.545 270.095 59.5237 269.755 59.5237C269.203 59.5237 268.779 59.6087 268.482 59.7999C268.185 59.9911 268.015 60.3097 268.015 60.7558V61.3719H271.156C271.24 61.5206 271.304 61.6905 271.368 61.903C271.431 62.1154 271.474 62.3491 271.474 62.604C271.474 63.0501 271.368 63.3688 271.177 63.5599C270.986 63.7511 270.71 63.8573 270.392 63.8573H268.206V69.9117C268.079 69.9542 267.888 69.9967 267.612 70.0179C267.336 70.0604 267.06 70.0816 266.763 70.0816C266.487 70.0816 266.233 70.0604 265.999 70.0179C265.787 69.9754 265.596 69.9117 265.427 69.7842C265.278 69.678 265.151 69.5081 265.066 69.3169C264.981 69.1257 264.938 68.8708 264.938 68.5521V60.6496H264.981Z" fill="#864241"/>
<path d="M276.588 69.9329C276.46 69.9754 276.269 70.0179 275.993 70.0391C275.718 70.0816 275.442 70.1029 275.145 70.1029C274.869 70.1029 274.614 70.0816 274.381 70.0391C274.147 69.9967 273.978 69.9329 273.808 69.8055C273.659 69.6992 273.532 69.5293 273.447 69.3381C273.362 69.1469 273.32 68.892 273.32 68.5733V62.8377C273.32 62.5403 273.383 62.2853 273.49 62.0729C273.596 61.8605 273.744 61.6693 273.956 61.4993C274.169 61.3294 274.402 61.1807 274.72 61.0532C275.017 60.9258 275.336 60.7983 275.675 60.6921C276.015 60.5859 276.375 60.5009 276.736 60.4584C277.097 60.3947 277.479 60.3734 277.839 60.3734C278.455 60.3734 278.943 60.5009 279.282 60.7346C279.643 60.9683 279.813 61.3506 279.813 61.8817C279.813 62.0517 279.792 62.2428 279.728 62.4128C279.685 62.5827 279.622 62.7314 279.537 62.8801C279.261 62.8801 278.985 62.9014 278.709 62.9226C278.434 62.9439 278.158 62.9864 277.882 63.0289C277.606 63.0713 277.373 63.1351 277.118 63.1988C276.885 63.2625 276.672 63.3263 276.524 63.39V69.9329H276.588Z" fill="#864241"/>
<path d="M285.287 60.3734C285.966 60.3734 286.603 60.4372 287.176 60.5859C287.749 60.7346 288.237 60.947 288.619 61.2232C289.022 61.4993 289.319 61.8817 289.552 62.3066C289.764 62.7527 289.871 63.2625 289.871 63.8573V68.1485C289.871 68.4884 289.786 68.7433 289.595 68.9557C289.404 69.1682 289.192 69.3381 288.937 69.5081C288.109 69.9967 286.942 70.2516 285.436 70.2516C284.757 70.2516 284.163 70.1878 283.611 70.0604C283.059 69.9329 282.614 69.7417 282.211 69.4868C281.829 69.2319 281.532 68.9132 281.319 68.5096C281.107 68.106 281.001 67.6599 281.001 67.1288C281.001 66.2578 281.256 65.578 281.786 65.1107C282.317 64.6433 283.123 64.3459 284.205 64.2397L286.709 63.9636V63.8361C286.709 63.475 286.539 63.1988 286.221 63.0501C285.903 62.9014 285.436 62.8164 284.82 62.8164C284.332 62.8164 283.866 62.8589 283.399 62.9651C282.932 63.0713 282.529 63.1988 282.147 63.3475C281.977 63.2413 281.85 63.0501 281.723 62.8164C281.616 62.5827 281.553 62.3278 281.553 62.0729C281.553 61.733 281.638 61.4781 281.786 61.2869C281.956 61.0957 282.189 60.9258 282.529 60.7771C282.89 60.6284 283.335 60.5434 283.844 60.4797C284.375 60.3947 284.842 60.3734 285.287 60.3734ZM285.457 67.8936C285.669 67.8936 285.903 67.8723 286.178 67.8298C286.433 67.7873 286.624 67.7236 286.751 67.6386V66.1091L285.372 66.2153C285.011 66.2366 284.714 66.3216 284.502 66.449C284.269 66.5765 284.163 66.7677 284.163 67.0226C284.163 67.2775 284.269 67.4899 284.46 67.6386C284.651 67.8086 284.969 67.8936 285.457 67.8936Z" fill="#864241"/>
<path d="M297.34 70.2516C296.597 70.2516 295.897 70.1454 295.239 69.9329C294.602 69.7205 294.029 69.4018 293.563 68.977C293.096 68.5521 292.714 68.021 292.438 67.3837C292.162 66.7464 292.035 66.0029 292.035 65.1532C292.035 64.3035 292.162 63.5812 292.438 62.9864C292.714 62.3916 293.075 61.8817 293.52 61.4993C293.966 61.117 294.475 60.8196 295.048 60.6496C295.621 60.4584 296.215 60.3734 296.809 60.3734C297.488 60.3734 298.103 60.4797 298.655 60.6708C299.207 60.8833 299.695 61.1594 300.098 61.5206C300.501 61.8817 300.819 62.3066 301.032 62.7952C301.244 63.2838 301.371 63.8361 301.371 64.4309C301.371 64.8558 301.244 65.1957 301.01 65.4293C300.777 65.663 300.438 65.8117 299.992 65.8755L295.281 66.5765C295.43 67.0013 295.706 67.32 296.13 67.5324C296.555 67.7449 297.064 67.8511 297.615 67.8511C298.146 67.8511 298.634 67.7873 299.101 67.6599C299.568 67.5324 299.95 67.3625 300.247 67.1925C300.459 67.32 300.629 67.4899 300.756 67.7236C300.904 67.9573 300.968 68.191 300.968 68.4459C300.968 69.0195 300.692 69.4443 300.162 69.7205C299.759 69.9329 299.292 70.0816 298.782 70.1666C298.273 70.2091 297.785 70.2516 297.34 70.2516ZM296.809 62.7314C296.512 62.7314 296.236 62.7739 296.024 62.8801C295.812 62.9864 295.621 63.1138 295.472 63.2625C295.324 63.4325 295.218 63.6024 295.154 63.7936C295.09 63.9848 295.048 64.1972 295.027 64.3884L298.294 63.8573C298.252 63.6024 298.125 63.3475 297.87 63.0926C297.637 62.8589 297.276 62.7314 296.809 62.7314Z" fill="#864241"/>
<path d="M311.323 67.1713C311.323 68.1485 310.962 68.892 310.241 69.4443C309.519 69.9967 308.437 70.2728 307.037 70.2728C306.506 70.2728 305.997 70.2303 305.551 70.1666C305.084 70.0816 304.703 69.9754 304.384 69.8055C304.066 69.6355 303.811 69.4443 303.62 69.2106C303.429 68.977 303.345 68.6796 303.345 68.3609C303.345 68.0635 303.408 67.7874 303.536 67.5962C303.663 67.405 303.811 67.2138 304.002 67.0651C304.363 67.2775 304.787 67.4475 305.275 67.6174C305.742 67.7873 306.294 67.8511 306.931 67.8511C307.334 67.8511 307.631 67.7874 307.843 67.6811C308.055 67.5749 308.161 67.405 308.161 67.2138C308.161 67.0438 308.076 66.8951 307.928 66.7889C307.779 66.6827 307.525 66.5977 307.164 66.534L306.591 66.4278C305.488 66.2153 304.66 65.8755 304.108 65.4081C303.557 64.9407 303.302 64.2822 303.302 63.4112C303.302 62.9439 303.408 62.519 303.599 62.1366C303.811 61.7543 304.087 61.4356 304.448 61.1807C304.809 60.9258 305.254 60.7346 305.785 60.5859C306.294 60.4372 306.867 60.3734 307.503 60.3734C307.97 60.3734 308.416 60.4159 308.84 60.4797C309.243 60.5434 309.604 60.6496 309.922 60.7983C310.219 60.947 310.474 61.117 310.644 61.3506C310.814 61.5631 310.92 61.8392 310.92 62.1366C310.92 62.434 310.856 62.689 310.75 62.9014C310.644 63.1138 310.495 63.2838 310.347 63.4325C310.241 63.3687 310.092 63.305 309.88 63.2413C309.668 63.1776 309.456 63.1138 309.222 63.0501C308.989 62.9864 308.734 62.9439 308.48 62.9014C308.225 62.8589 308.013 62.8377 307.8 62.8377C307.376 62.8377 307.058 62.8801 306.824 62.9864C306.591 63.0926 306.485 63.2413 306.485 63.4325C306.485 63.5812 306.549 63.6874 306.676 63.7724C306.803 63.8573 307.037 63.9423 307.397 64.0273L307.991 64.1547C309.222 64.4309 310.092 64.8133 310.601 65.3019C311.068 65.7692 311.323 66.4065 311.323 67.1713Z" fill="#864241"/>
<path d="M316.712 66.7464C316.712 67.0863 316.818 67.32 317.031 67.4475C317.243 67.5962 317.54 67.6599 317.922 67.6599C318.113 67.6599 318.304 67.6386 318.516 67.6174C318.728 67.5962 318.898 67.5537 319.046 67.4899C319.153 67.6386 319.259 67.7873 319.344 67.9573C319.428 68.1272 319.471 68.3397 319.471 68.5733C319.471 69.0619 319.28 69.4443 318.919 69.763C318.558 70.0604 317.922 70.2303 317.009 70.2303C315.885 70.2303 315.036 69.9754 314.421 69.4656C313.805 68.9557 313.508 68.1272 313.508 66.9801V58.8014C313.657 58.7589 313.848 58.7165 314.102 58.674C314.357 58.6315 314.633 58.6102 314.93 58.6102C315.482 58.6102 315.927 58.7165 316.246 58.9076C316.564 59.0988 316.712 59.5237 316.712 60.161V61.3931H319.216C319.301 61.5418 319.365 61.7118 319.428 61.9242C319.492 62.1366 319.534 62.3703 319.534 62.6252C319.534 63.0713 319.428 63.39 319.237 63.5812C319.046 63.7724 318.771 63.8786 318.452 63.8786H316.712V66.7464Z" fill="#864241"/>
<path d="M324.924 69.9329C324.797 69.9754 324.606 70.0179 324.33 70.0391C324.054 70.0816 323.778 70.1029 323.481 70.1029C323.205 70.1029 322.951 70.0816 322.717 70.0391C322.484 69.9967 322.314 69.9329 322.144 69.8055C321.996 69.6992 321.869 69.5293 321.784 69.3381C321.699 69.1469 321.656 68.892 321.656 68.5733V62.8377C321.656 62.5403 321.72 62.2853 321.826 62.0729C321.932 61.8605 322.081 61.6693 322.293 61.4993C322.505 61.3294 322.739 61.1807 323.057 61.0532C323.354 60.9258 323.672 60.7983 324.012 60.6921C324.351 60.5859 324.712 60.5009 325.073 60.4584C325.433 60.3947 325.815 60.3734 326.176 60.3734C326.791 60.3734 327.279 60.5009 327.619 60.7346C327.98 60.9683 328.149 61.3506 328.149 61.8817C328.149 62.0517 328.128 62.2428 328.064 62.4128C328.022 62.5827 327.958 62.7314 327.873 62.8801C327.598 62.8801 327.322 62.9014 327.046 62.9226C326.77 62.9439 326.494 62.9864 326.218 63.0289C325.943 63.0713 325.709 63.1351 325.455 63.1988C325.221 63.2625 325.009 63.3263 324.86 63.39V69.9329H324.924Z" fill="#864241"/>
<path d="M330.101 60.7983C330.229 60.7558 330.42 60.7133 330.696 60.6921C330.971 60.6496 331.247 60.6284 331.544 60.6284C331.82 60.6284 332.075 60.6496 332.308 60.6921C332.52 60.7346 332.711 60.7983 332.881 60.9258C333.03 61.032 333.157 61.2019 333.242 61.3931C333.327 61.5843 333.369 61.8392 333.369 62.1579V66.2578C333.369 66.7889 333.496 67.1501 333.751 67.3837C334.006 67.6174 334.366 67.7236 334.854 67.7236C335.152 67.7236 335.385 67.7024 335.576 67.6387C335.767 67.5962 335.894 67.5324 336 67.49V60.7983C336.128 60.7558 336.319 60.7133 336.594 60.6921C336.87 60.6496 337.146 60.6284 337.443 60.6284C337.719 60.6284 337.974 60.6496 338.207 60.6921C338.419 60.7346 338.61 60.7983 338.78 60.9258C338.95 61.0532 339.056 61.2019 339.141 61.3931C339.226 61.5843 339.268 61.8392 339.268 62.1579V67.9785C339.268 68.6158 338.992 69.1044 338.462 69.4231C338.016 69.6993 337.486 69.9117 336.87 70.0604C336.255 70.2091 335.576 70.2728 334.854 70.2728C334.175 70.2728 333.539 70.1879 332.945 70.0391C332.372 69.8904 331.863 69.6568 331.438 69.3381C331.014 69.0195 330.696 68.6158 330.462 68.106C330.229 67.5962 330.123 67.0014 330.123 66.2791V60.7983H330.101Z" fill="#864241"/>
<path d="M345.04 66.7464C345.04 67.0863 345.146 67.32 345.358 67.4475C345.57 67.5962 345.867 67.6599 346.249 67.6599C346.44 67.6599 346.631 67.6386 346.843 67.6174C347.055 67.5962 347.225 67.5537 347.374 67.4899C347.48 67.6386 347.586 67.7873 347.671 67.9573C347.756 68.1272 347.798 68.3397 347.798 68.5733C347.798 69.0619 347.607 69.4443 347.246 69.763C346.886 70.0604 346.249 70.2303 345.337 70.2303C344.212 70.2303 343.363 69.9754 342.748 69.4656C342.133 68.9557 341.835 68.1272 341.835 66.9801V58.8014C341.984 58.7589 342.175 58.7165 342.43 58.674C342.684 58.6315 342.96 58.6102 343.257 58.6102C343.809 58.6102 344.254 58.7165 344.573 58.9076C344.891 59.0988 345.04 59.5237 345.04 60.161V61.3931H347.543C347.628 61.5418 347.692 61.7118 347.756 61.9242C347.819 62.1366 347.862 62.3703 347.862 62.6252C347.862 63.0713 347.756 63.39 347.565 63.5812C347.374 63.7724 347.098 63.8786 346.779 63.8786H345.04V66.7464Z" fill="#864241"/>
<path d="M350.005 60.7983C350.132 60.7558 350.323 60.7133 350.599 60.6921C350.875 60.6496 351.151 60.6284 351.448 60.6284C351.723 60.6284 351.978 60.6496 352.212 60.6921C352.424 60.7346 352.615 60.7983 352.784 60.9258C352.933 61.032 353.06 61.2019 353.145 61.3931C353.23 61.5843 353.272 61.8392 353.272 62.1579V66.2578C353.272 66.7889 353.4 67.1501 353.654 67.3837C353.909 67.6174 354.27 67.7236 354.758 67.7236C355.055 67.7236 355.288 67.7024 355.479 67.6387C355.67 67.5962 355.797 67.5324 355.904 67.49V60.7983C356.031 60.7558 356.222 60.7133 356.498 60.6921C356.774 60.6496 357.049 60.6284 357.346 60.6284C357.622 60.6284 357.877 60.6496 358.11 60.6921C358.323 60.7346 358.513 60.7983 358.683 60.9258C358.853 61.0532 358.959 61.2019 359.044 61.3931C359.129 61.5843 359.171 61.8392 359.171 62.1579V67.9785C359.171 68.6158 358.895 69.1044 358.365 69.4231C357.919 69.6993 357.389 69.9117 356.774 70.0604C356.158 70.2091 355.479 70.2728 354.758 70.2728C354.079 70.2728 353.442 70.1879 352.848 70.0391C352.275 69.8904 351.766 69.6568 351.342 69.3381C350.917 69.0195 350.599 68.6158 350.365 68.106C350.132 67.5962 350.026 67.0014 350.026 66.2791V60.7983H350.005Z" fill="#864241"/>
<path d="M364.922 69.9329C364.794 69.9754 364.603 70.0179 364.327 70.0391C364.052 70.0816 363.776 70.1029 363.479 70.1029C363.203 70.1029 362.948 70.0816 362.715 70.0391C362.481 69.9967 362.312 69.9329 362.142 69.8055C361.993 69.6992 361.866 69.5293 361.781 69.3381C361.696 69.1469 361.654 68.892 361.654 68.5733V62.8377C361.654 62.5403 361.718 62.2853 361.824 62.0729C361.93 61.8605 362.078 61.6693 362.29 61.4993C362.503 61.3294 362.736 61.1807 363.054 61.0532C363.351 60.9258 363.67 60.7983 364.009 60.6921C364.349 60.5859 364.709 60.5009 365.07 60.4584C365.431 60.3947 365.813 60.3734 366.174 60.3734C366.789 60.3734 367.277 60.5009 367.616 60.7346C367.977 60.9683 368.147 61.3506 368.147 61.8817C368.147 62.0517 368.126 62.2428 368.062 62.4128C368.02 62.5827 367.956 62.7314 367.871 62.8801C367.595 62.8801 367.319 62.9014 367.043 62.9226C366.768 62.9439 366.492 62.9864 366.216 63.0289C365.94 63.0713 365.707 63.1351 365.452 63.1988C365.219 63.2625 365.006 63.3263 364.858 63.39V69.9329H364.922Z" fill="#864241"/>
<path d="M373.643 60.3734C374.322 60.3734 374.958 60.4372 375.531 60.5859C376.104 60.7346 376.592 60.947 376.974 61.2232C377.377 61.4993 377.674 61.8817 377.908 62.3066C378.12 62.7527 378.226 63.2625 378.226 63.8573V68.1485C378.226 68.4884 378.141 68.7433 377.95 68.9557C377.759 69.1682 377.547 69.3381 377.292 69.5081C376.465 69.9967 375.298 70.2516 373.791 70.2516C373.112 70.2516 372.518 70.1878 371.966 70.0604C371.415 69.9329 370.969 69.7417 370.566 69.4868C370.184 69.2319 369.887 68.9132 369.675 68.5096C369.462 68.106 369.356 67.6599 369.356 67.1288C369.356 66.2578 369.611 65.578 370.141 65.1107C370.672 64.6433 371.478 64.3459 372.56 64.2397L375.064 63.9636V63.8361C375.064 63.475 374.894 63.1988 374.576 63.0501C374.258 62.9014 373.791 62.8164 373.176 62.8164C372.688 62.8164 372.221 62.8589 371.754 62.9651C371.287 63.0713 370.884 63.1988 370.502 63.3475C370.332 63.2413 370.205 63.0501 370.078 62.8164C369.972 62.5827 369.908 62.3278 369.908 62.0729C369.908 61.733 369.993 61.4781 370.141 61.2869C370.311 61.0957 370.545 60.9258 370.884 60.7771C371.245 60.6284 371.69 60.5434 372.2 60.4797C372.709 60.3947 373.197 60.3734 373.643 60.3734ZM373.791 67.8936C374.003 67.8936 374.237 67.8723 374.513 67.8298C374.767 67.7873 374.958 67.7236 375.085 67.6386V66.1091L373.706 66.2153C373.345 66.2366 373.048 66.3216 372.836 66.449C372.603 66.5765 372.497 66.7677 372.497 67.0226C372.497 67.2775 372.603 67.4899 372.794 67.6386C372.985 67.8086 373.324 67.8936 373.791 67.8936Z" fill="#864241"/>
<path d="M53.0683 49.4119C52.1983 49.1145 51.4132 48.8171 50.6918 48.4984C49.9704 48.201 49.355 47.8187 48.8458 47.3938C48.3365 46.9477 47.9334 46.4378 47.6363 45.8218C47.3392 45.227 47.2119 44.4835 47.2119 43.6125C47.2119 41.9343 47.8697 40.5747 49.164 39.5763C50.4584 38.5566 52.2832 38.068 54.6173 38.068C55.466 38.068 56.2511 38.1317 56.9938 38.2379C57.7365 38.3654 58.3518 38.5353 58.8823 38.7903C59.4127 39.0452 59.8159 39.3638 60.113 39.7462C60.41 40.1286 60.5586 40.5747 60.5586 41.1058C60.5586 41.6156 60.4312 42.0617 60.1978 42.4229C59.9644 42.784 59.6674 43.1027 59.3279 43.3576C58.8823 43.0814 58.3094 42.8265 57.5667 42.6353C56.824 42.4229 56.0389 42.3167 55.169 42.3167C54.2778 42.3167 53.62 42.4441 53.2168 42.699C52.7925 42.9539 52.6015 43.2514 52.6015 43.6337C52.6015 43.9311 52.7288 44.1648 52.9834 44.356C53.2381 44.5472 53.62 44.7171 54.1505 44.8658L55.7207 45.3757C57.5879 45.9705 59.0096 46.7353 60.0069 47.6487C61.0042 48.5622 61.5134 49.8155 61.5134 51.4088C61.5134 53.087 60.8556 54.4678 59.5188 55.4875C58.182 56.5284 56.2511 57.0595 53.6624 57.0595C52.75 57.0595 51.9013 56.9745 51.1162 56.8258C50.3311 56.6771 49.6521 56.4647 49.058 56.1673C48.4638 55.8699 48.0182 55.53 47.6999 55.1051C47.3817 54.6802 47.2119 54.1916 47.2119 53.6393C47.2119 53.0658 47.3817 52.5772 47.7212 52.1735C48.0607 51.7699 48.4214 51.4513 48.8245 51.2388C49.3762 51.6849 50.0552 52.0461 50.8616 52.3647C51.6679 52.6834 52.5378 52.8321 53.4927 52.8321C54.4688 52.8321 55.1478 52.6834 55.5509 52.386C55.9541 52.0886 56.145 51.7487 56.145 51.345C56.145 50.9414 55.9965 50.644 55.6782 50.4316C55.3599 50.2192 54.9144 50.028 54.3414 49.8155L53.0683 49.4119Z" fill="white"/>
<path d="M67.2425 39.0877C67.582 38.8965 68.0912 38.7053 68.7702 38.5141C69.4492 38.3442 70.1494 38.2379 70.8284 38.2379C71.8257 38.2379 72.6957 38.3866 73.4596 38.6628C74.2235 38.9602 74.7115 39.4063 74.9237 40.0224C75.2844 41.0633 75.6663 42.2529 76.0907 43.6125C76.5151 44.9721 76.9183 46.3954 77.3426 47.8399C77.767 49.3057 78.1702 50.729 78.5521 52.1523C78.9553 53.5756 79.2948 54.829 79.5918 55.9124C79.3584 56.1885 78.9977 56.4222 78.5309 56.5709C78.0641 56.7408 77.4912 56.8258 76.8334 56.8258C76.3666 56.8258 75.9634 56.7833 75.6239 56.6984C75.3056 56.6134 75.0298 56.5072 74.8176 56.3372C74.6054 56.1885 74.4357 55.9761 74.3083 55.7212C74.181 55.4662 74.0749 55.1688 73.9688 54.829L73.4384 52.7684H68.07C67.9215 53.3632 67.7517 53.9792 67.6032 54.6165C67.4547 55.2538 67.2849 55.8699 67.1364 56.4647C66.8605 56.5709 66.5635 56.6559 66.2664 56.7196C65.9693 56.7833 65.5874 56.8258 65.163 56.8258C64.1445 56.8258 63.4019 56.6559 62.9138 56.316C62.4258 55.9761 62.1924 55.4875 62.1924 54.8714C62.1924 54.5953 62.2348 54.3191 62.3197 54.0429C62.4046 53.7668 62.4894 53.4481 62.5955 53.0658C62.7441 52.5347 62.935 51.8761 63.1685 51.0689C63.4231 50.2829 63.6989 49.4119 63.996 48.4985C64.293 47.585 64.6113 46.629 64.9508 45.6519C65.2903 44.6747 65.6086 43.7612 65.9057 42.9115C66.2027 42.0405 66.4786 41.2757 66.7332 40.596C66.903 39.9587 67.0939 39.4488 67.2425 39.0877ZM70.8072 42.9115C70.5314 43.74 70.2131 44.6747 69.8736 45.6943C69.5341 46.714 69.2158 47.7549 68.94 48.7959H72.632C72.3562 47.7337 72.0804 46.6715 71.7833 45.6519C71.4862 44.6322 71.2316 43.7187 70.9982 42.9115H70.8072Z" fill="white"/>
<path d="M93.6387 38.5566C93.7872 38.769 93.8933 39.0664 94.0206 39.4276C94.1267 39.7887 94.1904 40.1711 94.1904 40.5747C94.1904 41.3395 94.0206 41.8918 93.7023 42.2317C93.384 42.5503 92.9384 42.7203 92.3868 42.7203H86.1484V46.0767H92.6626C92.8111 46.2891 92.9597 46.5865 93.0658 46.9477C93.1719 47.3088 93.2355 47.6912 93.2355 48.0736C93.2355 48.8171 93.0658 49.3694 92.7475 49.6881C92.4292 50.0067 91.9836 50.1767 91.4319 50.1767H86.2333V56.4434C86.0211 56.5072 85.6816 56.5709 85.2148 56.6134C84.748 56.6771 84.2812 56.6984 83.8356 56.6984C83.39 56.6984 82.9868 56.6559 82.6261 56.5921C82.2866 56.5284 81.9895 56.4009 81.7561 56.2098C81.5227 56.0398 81.3318 55.7849 81.2257 55.4662C81.0983 55.1476 81.0559 54.7227 81.0559 54.2129V41.2757C81.0559 40.426 81.3105 39.7462 81.7986 39.2576C82.2866 38.769 82.9656 38.5141 83.8144 38.5141H93.6387V38.5566Z" fill="white"/>
<path d="M100.917 56.4434C100.705 56.5072 100.365 56.5709 99.8983 56.6134C99.4315 56.6771 98.9646 56.6984 98.5191 56.6984C98.0735 56.6984 97.6703 56.6559 97.3096 56.5921C96.9701 56.5284 96.673 56.401 96.4396 56.2098C96.2062 56.0186 96.0152 55.7849 95.9091 55.4663C95.7818 55.1476 95.7394 54.7227 95.7394 54.2129V38.5141C95.9516 38.4716 96.3123 38.4291 96.7791 38.3442C97.2459 38.2804 97.7127 38.2379 98.1371 38.2379C98.5827 38.2379 98.9859 38.2804 99.3466 38.3442C99.6861 38.4079 99.9832 38.5354 100.217 38.7265C100.45 38.8965 100.641 39.1514 100.747 39.4701C100.874 39.7887 100.917 40.2136 100.917 40.7234V56.4434Z" fill="white"/>
<path d="M37.6422 52.2373L38.4273 54.0429C38.6819 54.6378 38.4273 55.3388 37.8332 55.5937L25.6111 60.9895C25.017 61.2444 24.3168 60.9895 24.0621 60.3947L16.7629 43.8249C16.5082 43.2301 16.7629 42.5291 17.357 42.2742L20.6035 40.8509L26.4811 54.1704C27.0964 55.5725 28.7303 56.1885 30.1095 55.5725L37.6422 52.2373Z" fill="white"/>
<path d="M30.449 37.3882L28.2635 32.4598L21.0066 35.6675C20.5186 35.8799 20.3064 36.4322 20.5186 36.9208L27.9452 53.7668C28.1574 54.2554 28.7303 54.4678 29.1971 54.2554H29.2183L41.3979 48.8808C41.886 48.6684 42.0981 48.1161 41.886 47.6275L36.6449 35.6887L31.7221 37.8768C31.2341 38.0892 30.6612 37.8555 30.449 37.3882ZM36.3266 45.5669L30.2368 48.2648C30.0034 48.371 29.7063 48.2648 29.6002 48.0098L29.4729 47.7124C29.3668 47.4788 29.4729 47.1814 29.7063 47.0751L35.7961 44.3772C36.0296 44.271 36.3266 44.3772 36.4327 44.6322L36.56 44.9296C36.6873 45.1845 36.56 45.4606 36.3266 45.5669ZM35.3081 43.2301L29.2183 45.928C28.9849 46.0342 28.6878 45.928 28.5817 45.6731L28.4544 45.3757C28.3483 45.142 28.4544 44.8446 28.6878 44.7384L34.7776 42.0405C35.011 41.9343 35.3081 42.0405 35.4142 42.2954L35.5415 42.5928C35.6476 42.8265 35.5415 43.1239 35.3081 43.2301ZM34.3957 40.0224L34.523 40.2985C34.6291 40.5322 34.523 40.8296 34.2896 40.9358L28.1998 43.6337C27.9664 43.7399 27.6693 43.6337 27.5632 43.4L27.4359 43.1239C27.3298 42.869 27.4359 42.5928 27.6693 42.4866L33.7591 39.7887C34.0138 39.6612 34.2896 39.7674 34.3957 40.0224ZM36.0296 34.3079L36.1356 34.5204L31.5099 36.5597L29.4729 31.9287L29.6851 31.8225C29.9185 31.7162 30.1732 31.7162 30.4066 31.8012L35.5203 33.7768C35.7325 33.8831 35.9235 34.0742 36.0296 34.3079Z" fill="white"/>
</g>
<defs>
<clipPath id="clip0">
<rect width="383" height="95" fill="white"/>
</clipPath>
</defs>
</svg>
