<svg width="84" height="61" viewBox="0 0 597 448" fill="none" xmlns="http://www.w3.org/2000/svg">
<path d="M393.43 37.0514C465.15 51.1114 517.4 78.5814 550.12 109.981C540.7 76.2414 517.38 46.4414 476.84 25.0614C387.52 -22.0186 257.07 4.58138 170.57 44.5814C174.276 43.6614 178.03 42.7947 181.83 41.9814C237.27 24.1114 308.89 20.4714 393.43 37.0514Z" fill="#AE9293"/>
<path d="M55.72 319.681C53.3598 317.572 51.1164 315.335 49 312.981C39.125 301.881 30.2567 289.923 22.5 277.251C31.37 336.451 70.91 383.581 109.33 413.251C162.12 454.051 241.16 458.041 322 425.471C228 416.781 153.1 390.981 108.2 362.081C85.85 347.701 68.67 333.561 55.72 319.681Z" fill="#AE9293"/>
<path d="M22.9998 224.771C23.2498 223.241 23.5298 221.691 23.8298 220.141C23.8298 219.911 23.9198 219.691 23.9598 219.461C24.2398 218.061 24.5198 216.661 24.8398 215.251C24.9298 214.811 25.0298 214.391 25.1298 213.951C25.3198 213.101 25.5298 212.251 25.7298 211.391C37.1598 163.921 66.2598 123.691 93.4598 94.9813C94.7498 93.5713 96.1698 92.1513 97.6498 90.7213C112.56 76.0513 131 63.4313 152.71 53.3413C158.41 50.3413 164.38 47.4413 170.57 44.5813C127.11 55.2913 89.8798 72.5213 62.5698 93.8013C13.5898 131.981 -26.9502 195.291 22.4998 277.221C19.9216 259.819 20.0904 242.121 22.9998 224.771Z" fill="#AE9293"/>
<path d="M595.1 249.271C593.205 237.682 590.498 226.241 587 215.031C580.82 232.161 567.62 247.031 547.34 257.501C483.97 290.311 494.82 315.271 515.68 332.601C526.97 341.981 533.12 352.071 534.37 362.071C588.58 323.981 601.06 285.621 595.1 249.271Z" fill="#AE9293"/>
<path d="M345.9 414.802C337.9 418.715 329.933 422.271 322 425.471C340.3 427.161 359.33 428.211 379 428.471C484.05 430.041 538.71 396.652 534.39 362.042C517.82 373.682 497.39 385.292 472.31 396.802C439 412.142 393.92 416.882 345.9 414.802Z" fill="#AE9293"/>
<path d="M555 150.851C569.085 170.363 579.893 192.041 587 215.031C598.34 183.601 586 144.431 550.1 110.031C553.751 123.319 555.402 137.077 555 150.851Z" fill="#AE9293"/>
<path d="M75.71 337.111C69.61 331.301 62.08 325.471 55.71 319.681C68.71 333.561 85.84 347.681 108.19 362.081C153.1 390.981 228 416.781 322 425.471C329.96 422.271 337.927 418.715 345.9 414.801C235.32 409.981 109.18 368.981 75.71 337.111Z" fill="#865D5D"/>
<path d="M181.83 41.9814C242 29.0414 312.92 28.3914 385.52 46.2214C437.49 58.9814 509.37 87.8314 555 150.851C555.414 137.061 553.769 123.286 550.12 109.981C517.4 78.5814 465.12 51.1114 393.43 37.0514C308.89 20.4714 237.27 24.1114 181.83 41.9814Z" fill="#865D5D"/>
<path d="M515.7 332.601C494.84 315.271 483.99 290.311 547.36 257.501C567.64 247.001 580.84 232.161 587.02 215.031C579.913 192.041 569.105 170.363 555.02 150.851C553.9 195.691 533.3 243.931 499.46 287.031C453.35 345.751 399.78 388.351 345.93 414.801C393.93 416.881 439.04 412.141 472.34 396.801C497.34 385.291 517.85 373.681 534.42 362.041C533.14 352.071 527 341.981 515.7 332.601Z" fill="#865D5D"/>
<path d="M385.52 46.2214C312.92 28.3914 242 29.0414 181.83 41.9814C171.899 45.165 162.174 48.9589 152.71 53.3414C129.34 65.5314 110.29 78.4914 97.65 90.7114C96.2167 92.1114 94.82 93.5314 93.46 94.9714C55.39 136.181 34.46 175.261 25.69 211.381C25.49 212.231 25.28 213.091 25.09 213.941C24.99 214.381 24.89 214.811 24.8 215.241C24.49 216.641 24.2 218.041 23.92 219.451C23.92 219.681 23.83 219.901 23.79 220.131C23.5 221.671 23.22 223.211 22.96 224.761C20.37 240.501 16.24 263.761 22.5 277.211C27.7 288.381 41 303.881 55.72 319.671C62.08 325.461 69.61 331.291 75.72 337.101C109.18 368.981 235.32 409.981 345.9 414.801C399.75 388.351 453.32 345.751 499.43 287.031C533.27 243.981 553.87 195.691 555 150.851C509.37 87.8314 437.49 58.9814 385.52 46.2214Z" fill="#602A2A"/>
<path d="M242.08 232.541C237.98 231.141 234.247 229.718 230.88 228.271C227.742 226.945 224.817 225.162 222.2 222.981C219.806 220.965 217.872 218.459 216.53 215.631C215.1 212.345 214.417 208.783 214.53 205.201C214.426 201.532 215.204 197.89 216.8 194.584C218.396 191.278 220.762 188.403 223.7 186.201C229.82 181.441 238.383 179.061 249.39 179.061C253.14 179.041 256.885 179.322 260.59 179.901C263.66 180.345 266.652 181.216 269.48 182.491C271.748 183.497 273.741 185.034 275.29 186.971C276.692 188.795 277.433 191.041 277.39 193.341C277.453 195.538 276.869 197.704 275.71 199.571C274.624 201.267 273.25 202.759 271.65 203.981C269.074 202.45 266.293 201.295 263.39 200.551C259.68 199.535 255.846 199.04 252 199.081C247.8 199.081 244.72 199.665 242.76 200.831C240.8 201.998 239.82 203.468 239.82 205.241C239.815 205.919 239.979 206.587 240.297 207.186C240.615 207.785 241.076 208.295 241.64 208.671C243.32 209.77 245.162 210.597 247.1 211.121L254.52 213.501C263.3 216.301 270.043 219.871 274.75 224.211C279.457 228.551 281.813 234.455 281.82 241.921C281.911 245.646 281.107 249.339 279.475 252.689C277.842 256.039 275.43 258.948 272.44 261.171C266.193 266.071 257 268.521 244.86 268.521C240.836 268.548 236.818 268.196 232.86 267.471C229.517 266.878 226.269 265.843 223.2 264.391C220.696 263.245 218.491 261.534 216.76 259.391C215.229 257.409 214.414 254.966 214.45 252.461C214.388 249.941 215.233 247.482 216.83 245.531C218.267 243.752 220.024 242.256 222.01 241.121C224.934 243.347 228.164 245.139 231.6 246.441C235.557 247.952 239.765 248.699 244 248.641C248.58 248.641 251.8 247.941 253.66 246.541C254.493 246.017 255.184 245.296 255.672 244.441C256.16 243.587 256.431 242.625 256.46 241.641C256.499 240.795 256.311 239.953 255.918 239.203C255.524 238.453 254.938 237.821 254.22 237.371C252.244 236.164 250.128 235.2 247.92 234.501L242.08 232.541Z" fill="white"/>
<path d="M308.86 183.981C311.138 182.788 313.562 181.893 316.07 181.321C319.246 180.487 322.516 180.063 325.8 180.061C330.016 179.977 334.214 180.655 338.19 182.061C341.78 183.411 344.1 185.541 345.12 188.431C346.8 193.285 348.62 198.931 350.58 205.371C352.54 211.811 354.5 218.461 356.46 225.321C358.42 232.181 360.333 238.948 362.2 245.621C364.067 252.295 365.7 258.198 367.1 263.331C365.736 264.799 364.012 265.885 362.1 266.481C359.52 267.328 356.815 267.73 354.1 267.671C352.195 267.704 350.292 267.517 348.43 267.111C347.068 266.817 345.781 266.245 344.65 265.431C343.643 264.646 342.828 263.64 342.27 262.491C341.609 261.142 341.071 259.736 340.66 258.291L338.14 248.631H312.78C312.03 251.431 311.29 254.321 310.54 257.311C309.79 260.301 309.05 263.191 308.3 265.991C306.947 266.468 305.568 266.865 304.17 267.181C302.442 267.532 300.682 267.696 298.92 267.671C294.16 267.671 290.636 266.855 288.35 265.221C287.251 264.472 286.36 263.456 285.76 262.268C285.16 261.081 284.871 259.761 284.92 258.431C284.924 257.105 285.113 255.786 285.48 254.511C285.853 253.178 286.273 251.638 286.74 249.891C287.406 247.371 288.316 244.245 289.47 240.511C290.623 236.778 291.907 232.741 293.32 228.401C294.72 224.061 296.213 219.605 297.8 215.031C299.386 210.458 300.88 206.141 302.28 202.081C303.68 198.021 304.963 194.405 306.13 191.231C307.296 188.058 308.206 185.641 308.86 183.981ZM325.66 201.981C324.326 205.901 322.856 210.265 321.25 215.071C319.643 219.878 318.173 224.755 316.84 229.701H334.2C332.867 224.661 331.533 219.738 330.2 214.931C328.867 210.125 327.63 205.791 326.49 201.931L325.66 201.981Z" fill="white"/>
<path d="M433.32 181.441C434.087 182.732 434.676 184.122 435.07 185.571C435.59 187.32 435.849 189.137 435.84 190.961C435.84 194.601 435.07 197.191 433.53 198.731C432.702 199.519 431.724 200.13 430.652 200.528C429.581 200.925 428.44 201.1 427.3 201.041H397.9V216.861H428.56C429.41 218.101 430.048 219.473 430.45 220.921C430.968 222.647 431.228 224.44 431.22 226.241C431.22 229.795 430.45 232.338 428.91 233.871C428.082 234.659 427.103 235.27 426.032 235.667C424.961 236.064 423.82 236.239 422.68 236.181H398.18V265.721C396.589 266.102 394.976 266.383 393.35 266.561C391.191 266.839 389.016 266.98 386.84 266.981C384.938 267 383.04 266.836 381.17 266.491C379.68 266.224 378.268 265.626 377.04 264.741C375.878 263.843 375.003 262.627 374.52 261.241C373.897 259.346 373.612 257.355 373.68 255.361V194.461C373.68 190.461 374.846 187.288 377.18 184.941C379.513 182.595 382.686 181.428 386.7 181.441H433.32Z" fill="white"/>
<path d="M467.62 265.721C466.029 266.102 464.416 266.383 462.79 266.561C460.631 266.839 458.457 266.98 456.28 266.981C454.379 267 452.48 266.836 450.61 266.492C449.12 266.224 447.709 265.626 446.48 264.742C445.319 263.843 444.443 262.628 443.96 261.242C443.337 259.346 443.053 257.356 443.12 255.361V181.441C444.12 181.251 445.78 181.001 448.02 180.671C450.152 180.351 452.304 180.188 454.46 180.181C456.362 180.158 458.261 180.322 460.13 180.671C461.62 180.939 463.031 181.537 464.26 182.421C465.421 183.32 466.297 184.535 466.78 185.921C467.403 187.817 467.687 189.807 467.62 191.801V265.721Z" fill="white"/>
<path d="M177.42 245.921L181.16 254.401C181.755 255.75 181.79 257.28 181.257 258.654C180.725 260.029 179.668 261.136 178.32 261.731L120.67 287.182C119.321 287.777 117.791 287.812 116.417 287.279C115.042 286.746 113.935 285.69 113.34 284.341L78.9097 206.341C78.6118 205.672 78.4489 204.95 78.4305 204.217C78.412 203.485 78.5383 202.756 78.8022 202.072C79.066 201.388 79.4622 200.763 79.968 200.233C80.4737 199.703 81.0792 199.277 81.7497 198.981L96.9997 192.281L124.71 254.981C126.105 258.125 128.688 260.588 131.895 261.831C135.102 263.073 138.671 262.994 141.82 261.611L177.42 245.921Z" fill="white"/>
<path d="M143.5 175.981L133.24 152.741L98.9995 167.851C98.4597 168.089 97.972 168.431 97.5643 168.857C97.1565 169.283 96.8367 169.785 96.6231 170.335C96.4095 170.885 96.3064 171.471 96.3195 172.061C96.3326 172.65 96.4617 173.232 96.6995 173.771L131.7 253.091C131.937 253.631 132.279 254.119 132.705 254.527C133.131 254.934 133.633 255.254 134.183 255.468C134.733 255.681 135.319 255.785 135.909 255.771C136.499 255.758 137.08 255.629 137.62 255.391H137.7L195.12 229.981C196.207 229.501 197.06 228.61 197.491 227.502C197.923 226.394 197.897 225.16 197.42 224.071L172.65 167.981L149.42 178.241C148.334 178.719 147.104 178.749 145.996 178.326C144.888 177.903 143.991 177.061 143.5 175.981ZM171.22 214.481L142.47 227.171C142.197 227.296 141.902 227.364 141.603 227.373C141.303 227.382 141.005 227.33 140.726 227.222C140.446 227.114 140.191 226.951 139.975 226.744C139.76 226.536 139.588 226.287 139.47 226.011L138.86 224.641C138.613 224.092 138.595 223.468 138.808 222.905C139.022 222.343 139.451 221.888 140 221.641L168.78 208.981C169.052 208.858 169.346 208.79 169.644 208.782C169.943 208.773 170.24 208.824 170.519 208.93C170.798 209.037 171.053 209.199 171.27 209.405C171.486 209.611 171.659 209.858 171.78 210.131L172.39 211.511C172.636 212.06 172.654 212.685 172.441 213.247C172.227 213.81 171.798 214.265 171.25 214.511L171.22 214.481ZM166.35 203.481L137.61 216.171C137.337 216.294 137.042 216.362 136.743 216.37C136.444 216.378 136.146 216.326 135.867 216.218C135.588 216.11 135.333 215.948 135.117 215.741C134.901 215.534 134.729 215.286 134.61 215.011L134 213.641C133.753 213.092 133.735 212.468 133.948 211.905C134.162 211.343 134.591 210.888 135.14 210.641L163.92 197.981C164.192 197.859 164.487 197.791 164.786 197.783C165.085 197.775 165.383 197.827 165.662 197.934C165.941 198.042 166.196 198.205 166.412 198.412C166.628 198.619 166.8 198.867 166.92 199.141L167.53 200.521C167.654 200.793 167.724 201.086 167.734 201.385C167.744 201.684 167.695 201.981 167.588 202.26C167.482 202.54 167.322 202.795 167.116 203.011C166.91 203.228 166.663 203.401 166.39 203.521L166.35 203.481ZM162.14 188.381L162.73 189.721C162.853 189.994 162.921 190.288 162.929 190.586C162.938 190.885 162.887 191.182 162.78 191.461C162.674 191.74 162.512 191.995 162.306 192.212C162.1 192.428 161.853 192.601 161.58 192.721L132.83 205.401C132.558 205.526 132.265 205.596 131.966 205.606C131.667 205.616 131.37 205.566 131.091 205.46C130.811 205.354 130.556 205.194 130.339 204.988C130.123 204.782 129.95 204.535 129.83 204.261L129.25 202.921C129.006 202.375 128.987 201.756 129.194 201.195C129.401 200.635 129.82 200.178 130.36 199.921L159.1 187.241C159.376 187.123 159.673 187.06 159.973 187.057C160.274 187.054 160.572 187.11 160.851 187.222C161.13 187.335 161.384 187.501 161.598 187.712C161.812 187.923 161.983 188.174 162.1 188.451L162.14 188.381ZM169.76 161.481L170.22 162.481L148.39 172.121L138.76 150.291L139.76 149.831C140.847 149.353 142.079 149.32 143.19 149.741L167.26 159.091C167.811 159.301 168.316 159.617 168.745 160.022C169.174 160.427 169.519 160.913 169.76 161.451V161.481Z" fill="white"/>
</svg>
