<svg width="110" height="84" viewBox="0 0 110 84" fill="none" xmlns="http://www.w3.org/2000/svg">
<path d="M99.6875 83.25H10.3125C4.61699 83.25 0 78.633 0 72.9375V11.0625C0 5.36699 4.61699 0.75 10.3125 0.75H99.6875C105.383 0.75 110 5.36699 110 11.0625V72.9375C110 78.633 105.383 83.25 99.6875 83.25ZM24.0625 12.7812C17.4178 12.7812 12.0312 18.1678 12.0312 24.8125C12.0312 31.4572 17.4178 36.8438 24.0625 36.8438C30.7072 36.8438 36.0938 31.4572 36.0938 24.8125C36.0938 18.1678 30.7072 12.7812 24.0625 12.7812ZM13.75 69.5H96.25V45.4375L77.4479 26.6354C76.4412 25.6287 74.8088 25.6287 73.8018 26.6354L44.6875 55.75L32.7604 43.8229C31.7537 42.8162 30.1213 42.8162 29.1143 43.8229L13.75 59.1875V69.5Z" fill="#6A6A6A"/>
</svg>
